<svg width="24" height="24" viewBox="0 0 24 24" fill="none" xmlns="http://www.w3.org/2000/svg">
<g clip-path="url(#clip0_90_297)">
<path d="M10.9784 7.03125H13.3485C13.7368 7.03125 14.0517 6.71644 14.0517 6.32812C14.0517 5.93981 13.7368 5.625 13.3485 5.625H11.6815V4.21875H13.1738C13.5621 4.21875 13.8769 3.90394 13.8769 3.51562C13.8769 3.12731 13.5621 2.8125 13.1738 2.8125H11.6815V1.40625H13.3485C13.7368 1.40625 14.0517 1.09144 14.0517 0.703125C14.0517 0.314812 13.7368 0 13.3485 0H10.9784C10.5901 0 10.2753 0.314812 10.2753 0.703125V6.32812C10.2753 6.71644 10.59 7.03125 10.9784 7.03125Z" fill="#145E94"/>
<path d="M5.25 7.03125H5.25309C5.26814 7.03116 6.76088 7.02455 7.16925 7.02455C8.39184 7.02455 9.38644 6.02991 9.38644 4.80731C9.38644 4.11098 9.06347 3.48895 8.5598 3.08217C8.76286 2.76956 8.88131 2.39719 8.88131 1.99744C8.88136 0.896062 7.98534 0 6.88392 0H5.25C4.86169 0 4.54688 0.314812 4.54688 0.703125V6.32812C4.54688 6.51516 4.62136 6.69445 4.75392 6.82641C4.88573 6.95766 5.06409 7.03125 5.25 7.03125ZM7.16925 5.6183C6.94627 5.6183 6.40477 5.62022 5.95313 5.62205V3.99769C6.06727 3.99722 7.16925 3.99637 7.16925 3.99637C7.61644 3.99637 7.98019 4.36017 7.98019 4.80731C7.98023 5.25455 7.61644 5.6183 7.16925 5.6183ZM6.88392 1.40625C7.20994 1.40625 7.47511 1.67147 7.47511 1.99744C7.47511 2.32341 7.20989 2.58862 6.88392 2.58862C6.76322 2.58862 5.95313 2.59013 5.95313 2.59013V1.40625H6.88392Z" fill="#145E94"/>
<path d="M15.6436 1.40625H16.4874V6.32812C16.4874 6.71644 16.8022 7.03125 17.1905 7.03125C17.5788 7.03125 17.8936 6.71644 17.8936 6.32812V1.40625H18.75C19.1383 1.40625 19.4531 1.09144 19.4531 0.703125C19.4531 0.314812 19.1383 0 18.75 0H15.6436C15.2552 0 14.9404 0.314812 14.9404 0.703125C14.9404 1.09144 15.2552 1.40625 15.6436 1.40625Z" fill="#145E94"/>
<path d="M23.2969 8.85938H15.7321C13.7165 8.85938 11.8852 9.96952 10.9529 11.7565L10.2878 13.0312H0.703125C0.314812 13.0312 0 13.3461 0 13.7344V23.2969C0 23.6852 0.314812 24 0.703125 24H17.5781C17.9664 24 18.2812 23.6852 18.2812 23.2969V21.4984C19.4181 21.3818 20.4072 20.6689 20.8818 19.6406H23.2969C23.6852 19.6406 24 19.3258 24 18.9375V9.5625C24 9.17419 23.6852 8.85938 23.2969 8.85938ZM12.8053 17.3753C13.2165 17.7865 13.7567 17.9921 14.2969 17.9921C14.8371 17.9921 15.3772 17.7865 15.7884 17.3753L16.875 16.2887V19.852C15.4995 20.1323 14.4136 21.2183 14.1332 22.5938H4.14802C3.86766 21.2183 2.78175 20.1323 1.40625 19.852V17.1792C2.78175 16.8989 3.86766 15.813 4.14802 14.4375H12.7622C11.9837 15.2631 11.9977 16.5676 12.8053 17.3753ZM2.69156 14.4375C2.47936 15.0358 2.00456 15.5106 1.40625 15.7228V14.4375H2.69156ZM1.40625 21.3084C2.00456 21.5206 2.47936 21.9954 2.69156 22.5938H1.40625V21.3084ZM15.5897 22.5938C15.8019 21.9954 16.2767 21.5206 16.875 21.3084V22.5938H15.5897ZM22.5938 18.2344H20.3906C20.0719 18.2344 19.7931 18.4487 19.7111 18.7568C19.5281 19.4448 18.963 19.9533 18.2812 20.079V14.8825L18.3425 14.8212C18.7226 15.0344 19.1527 15.1478 19.6002 15.1478C20.2885 15.1478 20.936 14.8794 21.4232 14.3922C21.6978 14.1177 21.6978 13.6725 21.4232 13.3979C21.1486 13.1233 20.7034 13.1233 20.4288 13.3979C20.2072 13.6195 19.9129 13.7415 19.6002 13.7415C19.2874 13.7415 18.9931 13.6195 18.7716 13.3979C18.6397 13.266 18.4609 13.1919 18.2744 13.1919C18.0879 13.1919 17.9091 13.266 17.7772 13.3979L14.7941 16.381C14.52 16.6552 14.0739 16.6552 13.7997 16.381C13.5255 16.1068 13.5255 15.6608 13.7997 15.3866L16.7828 12.4035C17.0574 12.1289 17.0574 11.6837 16.7828 11.4091C16.5083 11.1345 16.0631 11.1345 15.7885 11.4091L14.1662 13.0312H11.8739L12.1996 12.407C12.8888 11.0861 14.2423 10.2656 15.7321 10.2656H22.5938V18.2344Z" fill="#145E94"/>
<path d="M9.14062 15.9375C7.71905 15.9375 6.5625 17.094 6.5625 18.5156C6.5625 19.9372 7.71905 21.0938 9.14062 21.0938C10.5622 21.0938 11.7188 19.9372 11.7188 18.5156C11.7188 17.094 10.5622 15.9375 9.14062 15.9375ZM9.14062 19.6875C8.49445 19.6875 7.96875 19.1618 7.96875 18.5156C7.96875 17.8695 8.49445 17.3438 9.14062 17.3438C9.7868 17.3438 10.3125 17.8695 10.3125 18.5156C10.3125 19.1618 9.7868 19.6875 9.14062 19.6875Z" fill="#145E94"/>
</g>
<defs>
<clipPath id="clip0_90_297">
<rect width="24" height="24" fill="white"/>
</clipPath>
</defs>
</svg>
