<svg width="19" height="19" viewBox="0 0 19 19" fill="none" xmlns="http://www.w3.org/2000/svg">
<circle cx="9.5" cy="9.5" r="9" fill="white" stroke="#EEEEEE"/>
<path d="M8.39383 13.3579C8.34354 13.5535 8.2773 13.7421 8.19544 13.9215C8.17725 13.9161 8.15907 13.9108 8.14108 13.9052C7.98989 13.8584 7.84095 13.8042 7.69507 13.7424C7.66998 13.7318 7.34987 13.5879 7.35256 13.5801C7.3982 13.4479 7.43828 13.3114 7.47132 13.1716C7.77123 13.2648 8.08041 13.3273 8.39383 13.3579Z" fill="#D3DCE2"/>
<path d="M9.49957 14.1102C12.046 14.1102 14.1102 12.046 14.1102 9.49957C14.1102 6.95318 12.046 4.88892 9.49957 4.88892C6.95318 4.88892 4.88892 6.95318 4.88892 9.49957C4.88892 12.046 6.95318 14.1102 9.49957 14.1102Z" fill="#94E061"/>
<path d="M8.19532 13.9216C7.90434 13.836 7.62188 13.7217 7.35243 13.5801C7.66717 12.6697 7.71246 11.5536 7.1058 10.5803C6.5836 9.74259 5.7307 9.24898 4.91211 9.0324C4.94144 8.7481 4.99692 8.4675 5.07764 8.19434C6.20853 8.35987 7.31716 9.12964 7.97206 10.3359C8.62511 11.5388 8.66817 12.884 8.19532 13.9216Z" fill="white"/>
<path d="M11.6994 13.5515C9.64233 14.6682 7.11089 14.0577 5.77197 12.2135C7.18253 13.4687 9.28288 13.773 11.0379 12.8203C13.2757 11.6053 14.1049 8.80629 12.8899 6.56842C12.7917 6.38767 12.6834 6.2162 12.5655 6.0542C12.9536 6.39936 13.2895 6.81673 13.5517 7.29961C14.7666 9.53745 13.9373 12.3365 11.6994 13.5515Z" fill="#70CF3D"/>
<path d="M14.0894 9.93841C14.0627 10.2173 14.0105 10.4927 13.9339 10.7611C12.8286 10.5736 11.7532 9.81129 11.1124 8.63086C10.4699 7.44744 10.4176 6.12651 10.8665 5.09619C11.1376 5.18044 11.401 5.28937 11.653 5.42224C11.3887 6.21929 11.3345 7.19115 11.74 8.07931C12.2136 9.11723 13.1613 9.6955 14.0894 9.93841Z" fill="white"/>
<path d="M14.0897 9.9383C14.0794 10.0462 14.0655 10.1495 14.0482 10.2562C14.0416 10.2963 13.9421 10.7623 13.9342 10.761C13.6544 10.7135 13.3764 10.6292 13.1069 10.5104C13.2172 10.2398 13.3016 9.95944 13.3591 9.6731C13.598 9.78649 13.8446 9.87408 14.0897 9.9383Z" fill="#D3DCE2"/>
<path d="M14.0895 9.93826C14.0862 9.97315 14.0824 10.0078 14.0784 10.0426C14.0763 10.06 14.0741 10.0773 14.0719 10.0947C14.0695 10.112 14.0672 10.1294 14.0646 10.1467C14.0626 10.1615 14.0604 10.1763 14.0581 10.1912C14.055 10.2129 14.0515 10.2344 14.0479 10.2562C14.0442 10.2775 14.0405 10.299 14.0366 10.3204C14.0355 10.3265 14.0344 10.3326 14.0333 10.3387C14.0292 10.3608 14.0249 10.3829 14.0205 10.405C14.0205 10.4052 14.0205 10.4054 14.0203 10.4056C14.0157 10.4289 14.0108 10.4521 14.0056 10.4753C14.0026 10.4898 13.9993 10.5043 13.996 10.5188C13.993 10.5319 13.99 10.5451 13.9869 10.5583C13.983 10.5754 13.9787 10.5925 13.9744 10.6093C13.9702 10.6262 13.9659 10.6431 13.9614 10.66C13.9527 10.6938 13.9436 10.7274 13.934 10.761C13.6541 10.7135 13.3761 10.6292 13.1067 10.5104C13.2169 10.2398 13.3014 9.95944 13.3589 9.6731C13.5977 9.78646 13.8444 9.87404 14.0895 9.93826Z" fill="#D3DCE2"/>
</svg>
