<svg width="19" height="19" viewBox="0 0 19 19" fill="none" xmlns="http://www.w3.org/2000/svg">
<circle cx="9.5" cy="9.5" r="9" fill="white" stroke="#EEEEEE"/>
<path d="M6.94164 10.3988C6.85166 10.3988 6.76034 10.3865 6.66963 10.3607C6.49672 10.3116 6.39644 10.1318 6.44563 9.95913C6.49483 9.78645 6.67499 9.68635 6.8478 9.73544C7.03042 9.7873 7.22106 9.68123 7.27299 9.49898C7.32492 9.31671 7.2187 9.12626 7.03619 9.07439C6.39605 8.89484 5.8173 8.4507 5.4076 7.82408C4.9956 7.19392 4.77783 6.43429 4.77783 5.62733V5.62482C4.77896 5.30754 4.90329 5.01078 5.12792 4.78804C5.35152 4.5663 5.64792 4.44434 5.96287 4.44434C5.96432 4.44434 5.96571 4.44436 5.96717 4.44436C6.62068 4.44668 7.15047 4.97947 7.14817 5.63202C7.14754 5.81114 7.0019 5.95593 6.82267 5.95593C6.82228 5.95593 6.82189 5.95593 6.8215 5.95593C6.64173 5.9553 6.4965 5.80925 6.49713 5.62974C6.49817 5.33563 6.25939 5.0955 5.96487 5.09446C5.82183 5.09351 5.68787 5.14895 5.58664 5.24934C5.4854 5.34973 5.42937 5.48348 5.42885 5.62594V5.62733C5.42885 6.29803 5.61489 6.95197 5.95273 7.46868C6.27621 7.96345 6.72389 8.31153 7.21329 8.44881C7.74215 8.5991 8.04933 9.14987 7.89916 9.67691C7.77481 10.1134 7.37507 10.3987 6.94164 10.3988Z" fill="#FBAC5B"/>
<path d="M12.0667 10.3988C11.6332 10.3988 11.2335 10.1134 11.1092 9.67689C10.959 9.14987 11.2662 8.59907 11.794 8.4491C12.2844 8.31151 12.7321 7.96345 13.0556 7.46868C13.3934 6.95195 13.5795 6.29801 13.5795 5.62733V5.62482C13.579 5.4835 13.5229 5.34975 13.4217 5.24934C13.3209 5.14941 13.1873 5.09446 13.0454 5.09446C13.0447 5.09446 13.0441 5.09446 13.0434 5.09446C12.7489 5.0955 12.5102 5.33563 12.5112 5.62974C12.5118 5.80925 12.3666 5.9553 12.1868 5.95593C12.1864 5.95593 12.1861 5.95593 12.1857 5.95593C12.0064 5.95593 11.8608 5.81116 11.8602 5.63202C11.8579 4.97947 12.3877 4.44668 13.0411 4.44436C13.0426 4.44436 13.044 4.44434 13.0454 4.44434C13.3604 4.44434 13.6568 4.5663 13.8804 4.78804C14.1051 5.01078 14.2294 5.30754 14.2305 5.62367V5.62733C14.2305 6.43429 14.0127 7.19392 13.6007 7.82408C13.191 8.4507 12.6123 8.89484 11.9711 9.0747C11.7896 9.12626 11.6834 9.31673 11.7353 9.49898C11.7873 9.68123 11.978 9.7873 12.1605 9.73546C12.3333 9.68633 12.5135 9.78645 12.5627 9.95915C12.6119 10.1318 12.5116 10.3116 12.3387 10.3608C12.2481 10.3865 12.1566 10.3988 12.0667 10.3988Z" fill="#FD8F32"/>
<path d="M11.1482 13.6166H7.86028C7.68051 13.6166 7.53477 13.4711 7.53477 13.2916C7.53477 12.5797 7.9181 11.9308 8.52768 11.5835V10.2242C8.38695 10.1644 8.25208 10.0919 8.12478 10.0073C7.42856 9.54503 7.01294 8.7706 7.01294 7.93573V4.7694C7.01294 4.58989 7.15868 4.44434 7.33846 4.44434H11.6701C11.8498 4.44434 11.9956 4.58986 11.9956 4.7694V7.93573C11.9956 8.77062 11.5799 9.54505 10.8837 10.0073C10.7564 10.0919 10.6215 10.1644 10.4808 10.2242V11.5835C11.0904 11.9308 11.4738 12.5797 11.4738 13.2916C11.4737 13.4711 11.328 13.6166 11.1482 13.6166Z" fill="#FDDB8D"/>
<path d="M10.8836 10.0073C11.5798 9.54505 11.9954 8.77062 11.9954 7.93573V4.7694C11.9954 4.58989 11.8497 4.44434 11.6699 4.44434H9.50415V13.6166H11.1481C11.3279 13.6166 11.4736 13.4711 11.4736 13.2915C11.4736 12.5797 11.0903 11.9308 10.4807 11.5835V10.2242C10.6214 10.1644 10.7563 10.0919 10.8836 10.0073Z" fill="#FBAC5B"/>
<path d="M10.3722 11.2016H8.63606C8.45629 11.2016 8.31055 11.0561 8.31055 10.8766C8.31055 10.697 8.45629 10.5515 8.63606 10.5515H10.3722C10.5519 10.5515 10.6977 10.697 10.6977 10.8766C10.6977 11.0561 10.5519 11.2016 10.3722 11.2016Z" fill="#FBAC5B"/>
<path d="M10.3722 10.5515H9.50415V11.2016H10.3722C10.552 11.2016 10.6977 11.0561 10.6977 10.8766C10.6977 10.697 10.552 10.5515 10.3722 10.5515Z" fill="#FD8F32"/>
<path d="M9.50405 8.79215C9.32428 8.79215 9.17853 8.64662 9.17853 8.46709V6.76267H9.06966C8.88989 6.76267 8.74414 6.61714 8.74414 6.43761C8.74414 6.25808 8.88989 6.11255 9.06966 6.11255H9.50405C9.68382 6.11255 9.82957 6.25808 9.82957 6.43761V8.46709C9.82957 8.64662 9.68382 8.79215 9.50405 8.79215Z" fill="#FBAC5B"/>
<path d="M9.50415 6.11279V8.79237C9.68392 8.79237 9.82967 8.64684 9.82967 8.46731V6.43786C9.82967 6.25832 9.68392 6.11279 9.50415 6.11279Z" fill="#FD8F32"/>
<path d="M12.5343 15.5554H6.47396C6.29418 15.5554 6.14844 15.4099 6.14844 15.2303V13.2916C6.14844 13.1121 6.29418 12.9666 6.47396 12.9666H12.5343C12.7141 12.9666 12.8598 13.1121 12.8598 13.2916V15.2303C12.8598 15.4099 12.714 15.5554 12.5343 15.5554Z" fill="#BA602B"/>
<path d="M12.5343 12.9668H9.50415V15.5556H12.5343C12.7141 15.5556 12.8598 15.4101 12.8598 15.2306V13.2918C12.8598 13.1123 12.7141 12.9668 12.5343 12.9668Z" fill="#964C22"/>
<path d="M12.9682 15.5554H6.03987C5.8601 15.5554 5.71436 15.4099 5.71436 15.2303C5.71436 15.0508 5.8601 14.9053 6.03987 14.9053H12.9683C13.148 14.9053 13.2938 15.0508 13.2938 15.2303C13.2938 15.4099 13.148 15.5554 12.9682 15.5554Z" fill="#964C22"/>
<path d="M12.9683 14.9055H9.50415V15.5556H12.9683C13.1481 15.5556 13.2939 15.4101 13.2939 15.2306C13.2939 15.051 13.1481 14.9055 12.9683 14.9055Z" fill="#6F3716"/>
</svg>
