<svg width="34" height="34" viewBox="0 0 34 34" fill="none" xmlns="http://www.w3.org/2000/svg">
<path d="M34 17C34 7.61096 26.389 0 17 0C7.61096 0 0 7.61096 0 17C0 25.4849 6.2157 32.5191 14.343 33.7935V21.9136H10.0262V17H14.343V13.255C14.343 8.99363 16.8816 6.64133 20.7652 6.64133C22.6264 6.64133 24.5707 6.97378 24.5707 6.97378V11.157H22.4274C20.3169 11.157 19.657 12.4667 19.657 13.8116V17H24.3717L23.6187 21.9136H19.657V33.7935C27.7843 32.5191 34 25.4849 34 17Z" fill="#4676ED"/>
<path d="M23.6161 21.9136L24.3692 17H19.6545V13.8115C19.6545 12.4667 20.3119 11.157 22.4249 11.157H24.5682V6.97377C24.5682 6.97377 22.6239 6.64133 20.7627 6.64133C16.8791 6.64133 14.3404 8.99362 14.3404 13.255V17H10.0237V21.9136H14.3404V33.7935C15.2068 33.9295 16.0933 34 16.9975 34C17.9016 34 18.7881 33.9295 19.6545 33.7935V21.9136H23.6161Z" fill="white"/>
</svg>
