<svg width="10" height="5" viewBox="0 0 10 5" fill="none" xmlns="http://www.w3.org/2000/svg">
<path d="M5 4.14548L9.36098 0.103808C9.39613 0.0705318 9.43785 0.0442247 9.48374 0.0264083C9.52963 0.00859193 9.57878 -0.000379787 9.62833 1.23018e-05C9.67788 0.000404391 9.72686 0.0101522 9.77244 0.0286923C9.81801 0.0472324 9.85927 0.0741965 9.89383 0.108024C9.92839 0.141851 9.95556 0.18187 9.97377 0.225765C9.99198 0.26966 10.0009 0.316559 9.99993 0.363749C9.99899 0.410939 9.98823 0.457481 9.96827 0.500684C9.94832 0.543887 9.91957 0.582892 9.88368 0.615442L5.26135 4.89889C5.19138 4.96373 5.09762 5 5 5C4.90238 5 4.80862 4.96373 4.73865 4.89889L0.116316 0.615441C0.08043 0.582892 0.0516786 0.543887 0.0317249 0.500684C0.0117712 0.457481 0.00101088 0.410938 6.7695e-05 0.363749C-0.000875487 0.316559 0.00801657 0.269659 0.0262289 0.225764C0.0444422 0.181869 0.0716133 0.141851 0.106173 0.108023C0.140732 0.0741961 0.181992 0.0472319 0.227564 0.0286919C0.273136 0.0101518 0.322116 0.000403982 0.37167 1.18972e-05C0.421225 -0.000380188 0.470367 0.00859153 0.516257 0.0264079C0.562147 0.0442243 0.603871 0.0705314 0.639015 0.103807L5 4.14548Z" fill="black"/>
</svg>
