<svg width="16" height="8" viewBox="0 0 16 8" fill="none" xmlns="http://www.w3.org/2000/svg">
<path d="M8 6.63277L14.9776 0.166092C15.0338 0.112851 15.1006 0.0707595 15.174 0.0422533C15.2474 0.0137471 15.326 -0.00060766 15.4053 1.96829e-05C15.4846 0.000647026 15.563 0.0162436 15.6359 0.0459077C15.7088 0.0755718 15.7748 0.118714 15.8301 0.172838C15.8854 0.226962 15.9289 0.290992 15.958 0.361224C15.9872 0.431456 16.0014 0.506495 15.9999 0.581998C15.9984 0.657502 15.9812 0.73197 15.9492 0.801095C15.9173 0.870219 15.8713 0.932627 15.8139 0.984707L8.41816 7.83823C8.30621 7.94196 8.15619 8 8 8C7.84381 8 7.69379 7.94196 7.58184 7.83823L0.186105 0.984706C0.128688 0.932626 0.082686 0.870219 0.0507597 0.801094C0.0188334 0.731969 0.00161767 0.657501 0.00010837 0.581998C-0.00140093 0.506494 0.0128259 0.431455 0.0419666 0.361223C0.0711072 0.290991 0.114582 0.226961 0.169876 0.172837C0.22517 0.118714 0.291186 0.0755711 0.364101 0.045907C0.437017 0.0162429 0.515386 0.000646371 0.594672 1.90355e-05C0.673958 -0.0006083 0.752588 0.0137464 0.826011 0.0422527C0.899435 0.0707589 0.966193 0.11285 1.02242 0.166092L8 6.63277Z" fill="#B0AAAA"/>
</svg>
