<svg width="13" height="24" viewBox="0 0 13 24" fill="none" xmlns="http://www.w3.org/2000/svg">
<path d="M2.0948 11.6734L12.0021 21.8549C12.0837 21.937 12.1482 22.0344 12.1919 22.1415C12.2355 22.2486 12.2575 22.3634 12.2566 22.4791C12.2556 22.5948 12.2317 22.7091 12.1863 22.8155C12.1408 22.9219 12.0747 23.0182 11.9918 23.0989C11.9089 23.1796 11.8108 23.243 11.7032 23.2856C11.5956 23.3281 11.4806 23.3488 11.3649 23.3466C11.2493 23.3444 11.1352 23.3193 11.0293 23.2727C10.9234 23.2261 10.8278 23.159 10.748 23.0752L0.247962 12.2836C0.0890359 12.1202 0.000116514 11.9013 0.000116534 11.6734C0.000116554 11.4455 0.089036 11.2266 0.247962 11.0632L10.748 0.271572C10.8278 0.187791 10.9234 0.120666 11.0293 0.0740802C11.1352 0.0274941 11.2493 0.00237343 11.3649 0.000171107C11.4806 -0.00203121 11.5956 0.0187283 11.7032 0.0612495C11.8108 0.103771 11.9089 0.167208 11.9918 0.247892C12.0747 0.328575 12.1408 0.424904 12.1863 0.5313C12.2317 0.637697 12.2556 0.752051 12.2566 0.867743C12.2575 0.983436 12.2355 1.09817 12.1919 1.20531C12.1482 1.31244 12.0837 1.40986 12.0021 1.49191L2.0948 11.6734Z" fill="#145E94"/>
</svg>
