<svg width="33" height="24" viewBox="0 0 33 24" fill="none" xmlns="http://www.w3.org/2000/svg">
<path d="M31.4545 6.30397C31.2788 5.99994 30.8899 5.89571 30.5858 6.07141C30.2817 6.24712 30.1775 6.63604 30.3532 6.94013C31.2525 8.49684 31.7279 10.2757 31.7279 12.0845C31.7279 17.7635 27.1077 22.3837 21.4286 22.3837C15.7495 22.3837 11.1293 17.7635 11.1293 12.0845C11.1293 6.40539 15.7495 1.78519 21.4286 1.78519C23.2377 1.78519 25.0168 2.26072 26.5736 3.16022C26.8776 3.33617 27.2666 3.23182 27.4423 2.92779C27.618 2.62376 27.5139 2.23478 27.2098 2.05907C25.4599 1.04791 23.4608 0.513367 21.4286 0.513367C18.4673 0.513367 15.7627 1.63206 13.7139 3.46838H6.54581C6.19466 3.46838 5.9099 3.75314 5.9099 4.10429C5.9099 4.45544 6.19466 4.7402 6.54581 4.7402H12.4936C11.8201 5.55817 11.257 6.47013 10.8261 7.45274H7.41415C7.063 7.45274 6.77824 7.7375 6.77824 8.08865C6.77824 8.4398 7.063 8.72456 7.41415 8.72456H10.3556C10.0912 9.59404 9.9265 10.5064 9.87519 11.4485H4.38207C4.03092 11.4485 3.74615 11.7333 3.74615 12.0845C3.74615 12.4356 4.03092 12.7204 4.38207 12.7204H9.87525C9.9265 13.6625 10.0913 14.5749 10.3556 15.4444H7.62686C7.27571 15.4444 6.99095 15.7291 6.99095 16.0803C6.99095 16.4314 7.27571 16.7162 7.62686 16.7162H10.8261C11.257 17.6988 11.8201 18.6107 12.4936 19.4287H6.15155C5.8004 19.4287 5.51564 19.7135 5.51564 20.0646C5.51564 20.4158 5.8004 20.7005 6.15155 20.7005H13.714C15.7628 22.5369 18.4674 23.6555 21.4287 23.6555C27.8089 23.6555 32.9997 18.4648 32.9997 12.0845C32.9997 10.0527 32.4654 8.05374 31.4545 6.30397Z" fill="white"/>
<path d="M29.1615 4.98725C29.3243 4.98725 29.4869 4.92513 29.6111 4.801L29.6182 4.79394C29.8665 4.54561 29.8665 4.14296 29.6182 3.89457C29.3698 3.64631 28.9673 3.64631 28.7188 3.89457L28.7118 3.90163C28.4634 4.14995 28.4634 4.55261 28.7118 4.801C28.836 4.92513 28.9987 4.98725 29.1615 4.98725Z" fill="white"/>
<path d="M12.6526 12.0845C12.6526 16.9234 16.5893 20.8601 21.4282 20.8601C26.267 20.8601 30.2037 16.9234 30.2037 12.0845C30.2037 7.2456 26.267 3.30893 21.4282 3.30893C16.5893 3.30893 12.6526 7.2456 12.6526 12.0845ZM28.9319 12.0845C28.9319 16.222 25.5657 19.5882 21.4282 19.5882C17.2906 19.5882 13.9244 16.222 13.9244 12.0845C13.9244 7.94694 17.2906 4.58075 21.4282 4.58075C25.5657 4.58075 28.9319 7.94694 28.9319 12.0845Z" fill="white"/>
<path d="M20.7923 6.95384V7.47694C20.7079 7.49449 20.6227 7.51541 20.5364 7.54136C19.7026 7.79184 19.0794 8.50425 18.9101 9.4005C18.7552 10.2207 19.0194 11.0129 19.5994 11.4679C19.9018 11.705 20.2774 11.9217 20.7923 12.1503V15.3985C20.3631 15.3639 20.0853 15.2559 19.6163 14.9491C19.3225 14.7569 18.9283 14.8392 18.736 15.1331C18.5438 15.427 18.6261 15.8211 18.9201 16.0134C19.6508 16.4915 20.1507 16.6361 20.7923 16.6737V17.2152C20.7923 17.5664 21.0771 17.8511 21.4282 17.8511C21.7794 17.8511 22.0641 17.5664 22.0641 17.2152V16.6015C23.2546 16.3097 24.0179 15.2974 24.1857 14.2993C24.4028 13.0078 23.7277 11.8851 22.4659 11.439C22.3337 11.3923 22.199 11.3437 22.0641 11.2935V8.79601C22.4022 8.90793 22.6244 9.06576 22.6352 9.07358C22.9151 9.28286 23.3116 9.22716 23.5229 8.94831C23.735 8.66838 23.68 8.26947 23.4001 8.0574C23.3662 8.03183 22.8403 7.6417 22.0641 7.48126V6.9539C22.0641 6.60275 21.7793 6.31799 21.4282 6.31799C21.077 6.31799 20.7923 6.60269 20.7923 6.95384ZM22.9315 14.0883C22.8553 14.5413 22.5611 15.0204 22.0641 15.2591V12.6466C23.033 13.0022 22.9734 13.8387 22.9315 14.0883ZM20.3843 10.4671C20.1825 10.3089 20.0945 9.98287 20.1599 9.63643C20.2178 9.32979 20.4143 8.96427 20.7923 8.8004V10.7328C20.6396 10.6475 20.5013 10.5589 20.3843 10.4671Z" fill="white"/>
<path d="M4.34146 15.4444H1.91075C1.5596 15.4444 1.27484 15.7291 1.27484 16.0803C1.27484 16.4314 1.5596 16.7162 1.91075 16.7162H4.34146C4.69261 16.7162 4.97737 16.4314 4.97737 16.0803C4.97737 15.7291 4.69261 15.4444 4.34146 15.4444Z" fill="white"/>
<path d="M1.71317 12.0844C1.71317 11.9172 1.64512 11.7531 1.52678 11.6348C1.40856 11.5165 1.2445 11.4485 1.07726 11.4485C0.910011 11.4485 0.745946 11.5165 0.627667 11.6348C0.509388 11.7532 0.441345 11.9172 0.441345 12.0844C0.441345 12.2517 0.509324 12.4157 0.627667 12.534C0.745946 12.6523 0.910011 12.7203 1.07726 12.7203C1.2445 12.7203 1.40856 12.6523 1.52678 12.534C1.64512 12.4157 1.71317 12.2517 1.71317 12.0844Z" fill="white"/>
<path d="M1.91075 8.72455H4.34146C4.69261 8.72455 4.97737 8.43979 4.97737 8.08864C4.97737 7.73749 4.69261 7.45273 4.34146 7.45273H1.91075C1.5596 7.45273 1.27484 7.73749 1.27484 8.08864C1.27484 8.43979 1.5596 8.72455 1.91075 8.72455Z" fill="white"/>
</svg>
