<svg width="33" height="24" viewBox="0 0 33 24" fill="none" xmlns="http://www.w3.org/2000/svg">
<path d="M31.4544 6.30391C31.2788 5.99988 30.8899 5.89565 30.5857 6.07135C30.2816 6.24706 30.1775 6.63598 30.3532 6.94007C31.2525 8.49678 31.7278 10.2757 31.7278 12.0844C31.7278 17.7635 27.1076 22.3837 21.4285 22.3837C15.7495 22.3837 11.1293 17.7635 11.1293 12.0844C11.1293 6.40533 15.7495 1.78513 21.4285 1.78513C23.2376 1.78513 25.0168 2.26066 26.5735 3.16016C26.8775 3.33611 27.2665 3.23176 27.4422 2.92773C27.618 2.6237 27.5139 2.23472 27.2098 2.05901C25.4598 1.04785 23.4608 0.513306 21.4285 0.513306C18.4672 0.513306 15.7626 1.632 13.7139 3.46832H6.54575C6.1946 3.46832 5.90984 3.75308 5.90984 4.10423C5.90984 4.45538 6.1946 4.74014 6.54575 4.74014H12.4936C11.82 5.55811 11.257 6.47007 10.8261 7.45268H7.41409C7.06294 7.45268 6.77818 7.73744 6.77818 8.08859C6.77818 8.43974 7.06294 8.7245 7.41409 8.7245H10.3555C10.0911 9.59398 9.92644 10.5063 9.87513 11.4485H4.382C4.03085 11.4485 3.74609 11.7332 3.74609 12.0844C3.74609 12.4355 4.03085 12.7203 4.382 12.7203H9.87519C9.92644 13.6625 10.0912 14.5748 10.3556 15.4443H7.6268C7.27565 15.4443 6.99089 15.7291 6.99089 16.0802C6.99089 16.4314 7.27565 16.7161 7.6268 16.7161H10.8261C11.257 17.6987 11.82 18.6107 12.4936 19.4287H6.15149C5.80034 19.4287 5.51558 19.7134 5.51558 20.0646C5.51558 20.4157 5.80034 20.7005 6.15149 20.7005H13.7139C15.7627 22.5368 18.4673 23.6555 21.4286 23.6555C27.8089 23.6555 32.9996 18.4647 32.9996 12.0844C32.9996 10.0526 32.4653 8.05368 31.4544 6.30391Z" fill="white"/>
<path d="M29.1614 4.98725C29.3241 4.98725 29.4868 4.92513 29.611 4.801L29.6181 4.79394C29.8664 4.54561 29.8664 4.14296 29.6181 3.89457C29.3697 3.64631 28.9671 3.64631 28.7187 3.89457L28.7116 3.90163C28.4633 4.14995 28.4633 4.55261 28.7116 4.801C28.8359 4.92513 28.9986 4.98725 29.1614 4.98725Z" fill="white"/>
<path d="M12.6528 12.0844C12.6528 16.9233 16.5895 20.86 21.4284 20.86C26.2673 20.86 30.204 16.9233 30.204 12.0844C30.204 7.24551 26.2673 3.30884 21.4284 3.30884C16.5895 3.30884 12.6528 7.24551 12.6528 12.0844ZM28.9321 12.0844C28.9321 16.222 25.5659 19.5881 21.4284 19.5881C17.2908 19.5881 13.9247 16.222 13.9247 12.0844C13.9247 7.94685 17.2908 4.58066 21.4284 4.58066C25.5659 4.58066 28.9321 7.94685 28.9321 12.0844Z" fill="white"/>
<path d="M20.7924 6.95372V7.47682C20.708 7.49437 20.6228 7.51529 20.5365 7.54124C19.7027 7.79172 19.0795 8.50413 18.9103 9.40038C18.7554 10.2206 19.0195 11.0127 19.5995 11.4678C19.9019 11.7049 20.2775 11.9216 20.7924 12.1502V15.3984C20.3632 15.3638 20.0854 15.2558 19.6164 14.949C19.3227 14.7568 18.9285 14.8391 18.7362 15.133C18.5439 15.4269 18.6262 15.821 18.9202 16.0133C19.6509 16.4914 20.1508 16.636 20.7924 16.6735V17.2151C20.7924 17.5662 21.0772 17.851 21.4283 17.851C21.7795 17.851 22.0643 17.5662 22.0643 17.2151V16.6014C23.2547 16.3095 24.018 15.2973 24.1858 14.2992C24.4029 13.0076 23.7279 11.885 22.466 11.4389C22.3338 11.3922 22.1991 11.3436 22.0643 11.2934V8.79589C22.4023 8.90781 22.6246 9.06564 22.6354 9.07346C22.9152 9.28274 23.3117 9.22703 23.523 8.94819C23.7351 8.66826 23.6802 8.26935 23.4002 8.05728C23.3663 8.03171 22.8405 7.64158 22.0642 7.48114V6.95378C22.0642 6.60263 21.7794 6.31787 21.4283 6.31787C21.0771 6.31787 20.7924 6.60257 20.7924 6.95372ZM22.9316 14.0882C22.8555 14.5412 22.5612 15.0202 22.0642 15.259V12.6465C23.0331 13.0021 22.9735 13.8386 22.9316 14.0882ZM20.3844 10.467C20.1827 10.3088 20.0946 9.98275 20.16 9.63631C20.2179 9.32967 20.4144 8.96415 20.7924 8.80027V10.7327C20.6397 10.6473 20.5014 10.5588 20.3844 10.467Z" fill="white"/>
<path d="M4.34152 15.4443H1.91081C1.55966 15.4443 1.2749 15.7291 1.2749 16.0802C1.2749 16.4314 1.55966 16.7162 1.91081 16.7162H4.34152C4.69267 16.7162 4.97743 16.4314 4.97743 16.0802C4.97743 15.7291 4.69267 15.4443 4.34152 15.4443Z" fill="white"/>
<path d="M1.71323 12.0844C1.71323 11.9172 1.64518 11.7531 1.52684 11.6348C1.40863 11.5165 1.24456 11.4485 1.07732 11.4485C0.910072 11.4485 0.746007 11.5165 0.627728 11.6348C0.509449 11.7532 0.441406 11.9172 0.441406 12.0844C0.441406 12.2516 0.509385 12.4157 0.627728 12.5339C0.746007 12.6523 0.910072 12.7203 1.07732 12.7203C1.24456 12.7203 1.40863 12.6523 1.52684 12.5339C1.64518 12.4157 1.71323 12.2516 1.71323 12.0844Z" fill="white"/>
<path d="M1.91081 8.72446H4.34152C4.69267 8.72446 4.97743 8.4397 4.97743 8.08855C4.97743 7.7374 4.69267 7.45264 4.34152 7.45264H1.91081C1.55966 7.45264 1.2749 7.7374 1.2749 8.08855C1.2749 8.4397 1.55966 8.72446 1.91081 8.72446Z" fill="white"/>
</svg>
