<svg width="33" height="25" viewBox="0 0 33 25" fill="none" xmlns="http://www.w3.org/2000/svg">
<path d="M31.2746 6.74574C31.0989 6.44171 30.71 6.33748 30.4058 6.51319C30.1017 6.68889 29.9976 7.07781 30.1733 7.3819C31.0726 8.93861 31.5479 10.7175 31.5479 12.5262C31.5479 18.2053 26.9277 22.8255 21.2487 22.8255C15.5696 22.8255 10.9494 18.2053 10.9494 12.5262C10.9494 6.84717 15.5696 2.22696 21.2487 2.22696C23.0578 2.22696 24.8369 2.70249 26.3936 3.60199C26.6977 3.77795 27.0866 3.67359 27.2623 3.36956C27.4381 3.06554 27.334 2.67655 27.0299 2.50085C25.28 1.48969 23.2809 0.955139 21.2487 0.955139C18.2874 0.955139 15.5828 2.07383 13.534 3.91015H6.36588C6.01473 3.91015 5.72997 4.19491 5.72997 4.54606C5.72997 4.89721 6.01473 5.18197 6.36588 5.18197H12.3137C11.6401 5.99994 11.0771 6.9119 10.6462 7.89451H7.23422C6.88307 7.89451 6.59831 8.17927 6.59831 8.53042C6.59831 8.88157 6.88307 9.16633 7.23422 9.16633H10.1756C9.91127 10.0358 9.74657 10.9482 9.69525 11.8903H4.20213C3.85098 11.8903 3.56622 12.1751 3.56622 12.5262C3.56622 12.8774 3.85098 13.1621 4.20213 13.1621H9.69532C9.74657 14.1043 9.91134 15.0166 10.1757 15.8861H7.44693C7.09578 15.8861 6.81102 16.1709 6.81102 16.522C6.81102 16.8732 7.09578 17.1579 7.44693 17.1579H10.6462C11.0771 18.1406 11.6401 19.0525 12.3137 19.8705H5.97162C5.62047 19.8705 5.33571 20.1552 5.33571 20.5064C5.33571 20.8575 5.62047 21.1423 5.97162 21.1423H13.5341C15.5828 22.9786 18.2874 24.0973 21.2487 24.0973C27.629 24.0973 32.8198 18.9066 32.8198 12.5262C32.8198 10.4944 32.2855 8.49551 31.2746 6.74574Z" fill="#145E94"/>
<path d="M28.9815 5.42903C29.1443 5.42903 29.307 5.3669 29.4312 5.24277L29.4382 5.23571C29.6866 4.98739 29.6866 4.58473 29.4382 4.33634C29.1899 4.08808 28.7873 4.08808 28.5389 4.33634L28.5318 4.3434C28.2835 4.59172 28.2835 4.99438 28.5318 5.24277C28.6561 5.3669 28.8188 5.42903 28.9815 5.42903Z" fill="#145E94"/>
<path d="M12.4727 12.5263C12.4727 17.3652 16.4093 21.3018 21.2482 21.3018C26.0871 21.3018 30.0238 17.3652 30.0238 12.5263C30.0238 7.68737 26.0871 3.7507 21.2482 3.7507C16.4093 3.7507 12.4727 7.68737 12.4727 12.5263ZM28.752 12.5263C28.752 16.6638 25.3858 20.03 21.2482 20.03C17.1107 20.03 13.7445 16.6638 13.7445 12.5263C13.7445 8.38871 17.1107 5.02252 21.2482 5.02252C25.3858 5.02252 28.752 8.38871 28.752 12.5263Z" fill="#145E94"/>
<path d="M20.6123 7.39561V7.91871C20.5279 7.93626 20.4427 7.95719 20.3564 7.98313C19.5226 8.23362 18.8995 8.94603 18.7302 9.84228C18.5753 10.6625 18.8395 11.4546 19.4195 11.9097C19.7219 12.1468 20.0975 12.3635 20.6124 12.5921V15.8403C20.1831 15.8057 19.9054 15.6977 19.4364 15.3908C19.1426 15.1987 18.7484 15.281 18.5561 15.5749C18.3639 15.8688 18.4462 16.2629 18.7401 16.4552C19.4709 16.9332 19.9708 17.0779 20.6124 17.1154V17.657C20.6124 18.0081 20.8971 18.2929 21.2483 18.2929C21.5994 18.2929 21.8842 18.0081 21.8842 17.657V17.0433C23.0746 16.7514 23.838 15.7392 24.0058 14.7411C24.2229 13.4495 23.5478 12.3269 22.286 11.8808C22.1538 11.8341 22.019 11.7855 21.8842 11.7353V9.23778C22.2223 9.3497 22.4445 9.50753 22.4553 9.51536C22.7352 9.72463 23.1317 9.66893 23.343 9.39008C23.5551 9.11015 23.5001 8.71125 23.2201 8.49917C23.1863 8.47361 22.6604 8.08348 21.8841 7.92304V7.39568C21.8841 7.04453 21.5994 6.75977 21.2482 6.75977C20.8971 6.75977 20.6123 7.04446 20.6123 7.39561ZM22.7515 14.5301C22.6754 14.9831 22.3812 15.4621 21.8841 15.7009V13.0883C22.8531 13.4439 22.7935 14.2805 22.7515 14.5301ZM20.2043 10.9089C20.0026 10.7507 19.9145 10.4246 19.98 10.0782C20.0378 9.77156 20.2343 9.40604 20.6123 9.24217V11.1746C20.4596 11.0892 20.3213 11.0007 20.2043 10.9089Z" fill="#145E94"/>
<path d="M4.16152 15.8861H1.73082C1.37967 15.8861 1.09491 16.1709 1.09491 16.522C1.09491 16.8732 1.37967 17.158 1.73082 17.158H4.16152C4.51267 17.158 4.79743 16.8732 4.79743 16.522C4.79743 16.1709 4.51267 15.8861 4.16152 15.8861Z" fill="#145E94"/>
<path d="M1.53323 12.5262C1.53323 12.359 1.46519 12.1949 1.34685 12.0766C1.22863 11.9583 1.06457 11.8903 0.897324 11.8903C0.730079 11.8903 0.566015 11.9583 0.447735 12.0766C0.329456 12.195 0.261414 12.359 0.261414 12.5262C0.261414 12.6934 0.329392 12.8575 0.447735 12.9757C0.566015 13.0941 0.730079 13.1621 0.897324 13.1621C1.06457 13.1621 1.22863 13.0941 1.34685 12.9757C1.46519 12.8575 1.53323 12.6934 1.53323 12.5262Z" fill="#145E94"/>
<path d="M1.73082 9.16632H4.16152C4.51267 9.16632 4.79743 8.88156 4.79743 8.53041C4.79743 8.17926 4.51267 7.8945 4.16152 7.8945H1.73082C1.37967 7.8945 1.09491 8.17926 1.09491 8.53041C1.09491 8.88156 1.37967 9.16632 1.73082 9.16632Z" fill="#145E94"/>
</svg>
