<svg width="24" height="26" viewBox="0 0 24 26" fill="none" xmlns="http://www.w3.org/2000/svg">
<path d="M19.6756 2.51545V2.61545H19.7756H20.8521C22.2728 2.61545 23.4432 3.87922 23.4432 5.45127V11.2278L21.8491 13.1501V9.75715V9.65715H21.7491H2.37267H2.27267V9.75715V22.6748C2.27267 23.2612 2.71188 23.7534 3.26973 23.7534H12.001L13.6933 25.5106H3.26973C1.84897 25.5106 0.678552 24.2468 0.678552 22.6748V5.45127C0.678552 3.87922 1.84897 2.61545 3.26973 2.61545H4.3462H4.4462V2.51545V0.658228H6.04031V2.51545V2.61545H6.14031H17.9815H18.0815V2.51545V0.658228H19.6756V2.51545ZM2.27267 7.79993V7.89993H2.37267H21.7491H21.8491V7.79993V5.45127C21.8491 4.86484 21.4099 4.37266 20.8521 4.37266H19.7756H19.6756V4.47266V6.32988H18.0815V4.47266V4.37266H17.9815H6.14031H6.04031V4.47266V6.32988H4.4462V4.47266V4.37266H4.3462H3.26973C2.71188 4.37266 2.27267 4.86484 2.27267 5.45127V7.79993ZM12.0677 20.8322L13.1727 19.5658L16.3428 22.8577L16.4206 22.9386L16.492 22.8519L22.211 15.9056L23.4023 17.0728L16.5097 25.4447L12.0677 20.8322ZM16.4462 13.6694H14.8521V11.9122H16.4462V13.6694ZM20.0344 11.9122V13.6694H18.4403V11.9122H20.0344ZM5.68149 17.5839H4.08737V15.8267H5.68149V17.5839ZM9.26972 17.5839H7.67561V15.8267H9.26972V17.5839ZM11.2638 15.8267H12.858V17.5839H11.2638V15.8267ZM14.8521 15.8267H16.4462V17.5839H14.8521V15.8267ZM4.08737 19.7411H5.68149V21.4983H4.08737V19.7411ZM7.67561 19.7411H9.26972V21.4983H7.67561V19.7411ZM5.68149 13.6694H4.08737V11.9122H5.68149V13.6694ZM9.26972 13.6694H7.67561V11.9122H9.26972V13.6694ZM12.858 13.6694H11.2638V11.9122H12.858V13.6694Z" fill="white" stroke="#1F1B1B" stroke-width="0.2"/>
</svg>
