<svg width="24" height="26" viewBox="0 0 24 26" fill="none" xmlns="http://www.w3.org/2000/svg">
<path d="M19.6757 2.51545V2.61545H19.7757H20.8521C22.2729 2.61545 23.4433 3.87922 23.4433 5.45127V11.2278L21.8492 13.1501V9.75715V9.65715H21.7492H2.37273H2.27273V9.75715V22.6748C2.27273 23.2612 2.71194 23.7534 3.26979 23.7534H12.0011L13.6933 25.5106H3.26979C1.84903 25.5106 0.678613 24.2468 0.678613 22.6748V5.45127C0.678613 3.87922 1.84903 2.61545 3.26979 2.61545H4.34626H4.44626V2.51545V0.658228H6.04037V2.51545V2.61545H6.14037H17.9815H18.0815V2.51545V0.658228H19.6757V2.51545ZM2.27273 7.79993V7.89993H2.37273H21.7492H21.8492V7.79993V5.45127C21.8492 4.86484 21.41 4.37266 20.8521 4.37266H19.7757H19.6757V4.47266V6.32988H18.0815V4.47266V4.37266H17.9815H6.14037H6.04037V4.47266V6.32988H4.44626V4.47266V4.37266H4.34626H3.26979C2.71194 4.37266 2.27273 4.86484 2.27273 5.45127V7.79993ZM12.0678 20.8322L13.1728 19.5658L16.3428 22.8577L16.4207 22.9386L16.492 22.8519L22.211 15.9056L23.4024 17.0728L16.5097 25.4447L12.0678 20.8322ZM16.4462 13.6694H14.8521V11.9122H16.4462V13.6694ZM20.0345 11.9122V13.6694H18.4404V11.9122H20.0345ZM5.68155 17.5839H4.08743V15.8267H5.68155V17.5839ZM9.26978 17.5839H7.67567V15.8267H9.26978V17.5839ZM11.2639 15.8267H12.858V17.5839H11.2639V15.8267ZM14.8521 15.8267H16.4462V17.5839H14.8521V15.8267ZM4.08743 19.7411H5.68155V21.4983H4.08743V19.7411ZM7.67567 19.7411H9.26978V21.4983H7.67567V19.7411ZM5.68155 13.6694H4.08743V11.9122H5.68155V13.6694ZM9.26978 13.6694H7.67567V11.9122H9.26978V13.6694ZM12.858 13.6694H11.2639V11.9122H12.858V13.6694Z" 
fill="#145E94" stroke="#1F1B1B" stroke-width="0.2"/>
</svg>
