<svg width="24" height="26" viewBox="0 0 24 26" fill="none" xmlns="http://www.w3.org/2000/svg">
<path d="M19.605 2.51545V2.61545H19.705H20.7814C22.2022 2.61545 23.3726 3.87922 23.3726 5.45127V11.2278L21.7785 13.1501V9.75715V9.65715H21.6785H2.30205H2.20205V9.75715V22.6748C2.20205 23.2612 2.64126 23.7534 3.19911 23.7534H11.9304L13.6227 25.5106H3.19911C1.77835 25.5106 0.607935 24.2468 0.607935 22.6748V5.45127C0.607935 3.87922 1.77835 2.61545 3.19911 2.61545H4.27558H4.37558V2.51545V0.658228H5.96969V2.51545V2.61545H6.06969H17.9109H18.0109V2.51545V0.658228H19.605V2.51545ZM2.20205 7.79993V7.89993H2.30205H21.6785H21.7785V7.79993V5.45127C21.7785 4.86484 21.3393 4.37266 20.7814 4.37266H19.705H19.605V4.47266V6.32988H18.0109V4.47266V4.37266H17.9109H6.06969H5.96969V4.47266V6.32988H4.37558V4.47266V4.37266H4.27558H3.19911C2.64126 4.37266 2.20205 4.86484 2.20205 5.45127V7.79993ZM11.9971 20.8322L13.1021 19.5658L16.2721 22.8577L16.35 22.9386L16.4214 22.8519L22.1404 15.9056L23.3317 17.0728L16.4391 25.4447L11.9971 20.8322ZM16.3756 13.6694H14.7815V11.9122H16.3756V13.6694ZM19.9638 11.9122V13.6694H18.3697V11.9122H19.9638ZM5.61087 17.5839H4.01676V15.8267H5.61087V17.5839ZM9.1991 17.5839H7.60499V15.8267H9.1991V17.5839ZM11.1932 15.8267H12.7873V17.5839H11.1932V15.8267ZM14.7815 15.8267H16.3756V17.5839H14.7815V15.8267ZM4.01676 19.7411H5.61087V21.4983H4.01676V19.7411ZM7.60499 19.7411H9.1991V21.4983H7.60499V19.7411ZM5.61087 13.6694H4.01676V11.9122H5.61087V13.6694ZM9.1991 13.6694H7.60499V11.9122H9.1991V13.6694ZM12.7873 13.6694H11.1932V11.9122H12.7873V13.6694Z" fill="#1F1B1B" stroke="#1F1B1B" stroke-width="0.2"/>
</svg>
