<svg width="24" height="26" viewBox="0 0 24 26" fill="none" xmlns="http://www.w3.org/2000/svg">
<path d="M19.6403 2.51545V2.61545H19.7403H20.8167C22.2375 2.61545 23.4079 3.87922 23.4079 5.45127V11.2278L21.8138 13.1501V9.75715V9.65715H21.7138H2.33733H2.23733V9.75715V22.6748C2.23733 23.2612 2.67654 23.7534 3.23439 23.7534H11.9657L13.6579 25.5106H3.23439C1.81363 25.5106 0.643213 24.2468 0.643213 22.6748V5.45127C0.643213 3.87922 1.81363 2.61545 3.23439 2.61545H4.31086H4.41086V2.51545V0.658228H6.00497V2.51545V2.61545H6.10497H17.9461H18.0461V2.51545V0.658228H19.6403V2.51545ZM2.23733 7.79993V7.89993H2.33733H21.7138H21.8138V7.79993V5.45127C21.8138 4.86484 21.3746 4.37266 20.8167 4.37266H19.7403H19.6403V4.47266V6.32988H18.0461V4.47266V4.37266H17.9461H6.10497H6.00497V4.47266V6.32988H4.41086V4.47266V4.37266H4.31086H3.23439C2.67654 4.37266 2.23733 4.86484 2.23733 5.45127V7.79993ZM12.0324 20.8322L13.1374 19.5658L16.3074 22.8577L16.3853 22.9386L16.4566 22.8519L22.1756 15.9056L23.367 17.0728L16.4743 25.4447L12.0324 20.8322ZM16.4108 13.6694H14.8167V11.9122H16.4108V13.6694ZM19.9991 11.9122V13.6694H18.405V11.9122H19.9991ZM5.64615 17.5839H4.05203V15.8267H5.64615V17.5839ZM9.23438 17.5839H7.64027V15.8267H9.23438V17.5839ZM11.2285 15.8267H12.8226V17.5839H11.2285V15.8267ZM14.8167 15.8267H16.4108V17.5839H14.8167V15.8267ZM4.05203 19.7411H5.64615V21.4983H4.05203V19.7411ZM7.64027 19.7411H9.23438V21.4983H7.64027V19.7411ZM5.64615 13.6694H4.05203V11.9122H5.64615V13.6694ZM9.23438 13.6694H7.64027V11.9122H9.23438V13.6694ZM12.8226 13.6694H11.2285V11.9122H12.8226V13.6694Z" fill="#145E94" stroke="#494949" stroke-width="0.2"/>
</svg>
