<svg width="31" height="24" viewBox="0 0 31 24" fill="none" xmlns="http://www.w3.org/2000/svg">
<path d="M12.2385 7.09717H11.9885V6.84717V1.89268C11.9885 0.987126 11.2514 0.25 10.3458 0.25H2.73733C1.83178 0.25 1.09465 0.987126 1.09465 1.89268V13.3505V15.2432V15.6217V16.9688V18.1801V21.2084V21.8141C1.09465 21.9697 1.09041 22.1103 1.08598 22.2353C1.08509 22.2605 1.0842 22.2848 1.08333 22.3084C1.07984 22.4039 1.07678 22.4874 1.07591 22.5639C1.07364 22.7637 1.08911 22.859 1.11608 22.9129C1.13127 22.9433 1.16077 22.9848 1.29309 23.0202C1.43647 23.0586 1.66115 23.0782 2.01804 23.0782L2.01948 23.0782L28.29 23.2296C28.2903 23.2296 28.2906 23.2296 28.2908 23.2296C29.362 23.2292 30.2339 22.3571 30.2339 21.2858V13.9091C30.2339 13.0036 29.4968 12.2664 28.5912 12.2664H21.3612H21.1112V12.0164V8.73985C21.1112 7.8343 20.3741 7.09717 19.4685 7.09717H12.2385ZM21.3612 21.4584H21.1112V21.2084V14.2877V14.0377H21.3612H28.2127H28.4627V14.2877V21.2084V21.4584H28.2127H21.3612ZM12.2385 21.4584H11.9885V21.2084V9.11838V8.86838H12.2385H19.09H19.34V9.11838V9.12137V9.1246V9.12808V9.13179V9.13574V9.13993V9.14436V9.14902V9.15392V9.15905V9.16441V9.17001V9.17584V9.1819V9.18819V9.19471V9.20145V9.20842V9.21562V9.22304V9.23069V9.23856V9.24665V9.25496V9.26349V9.27225V9.28121V9.2904V9.2998V9.30942V9.31925V9.3293V9.33956V9.35003V9.36071V9.3716V9.3827V9.394V9.40552V9.41724V9.42916V9.44129V9.45362V9.46615V9.47889V9.49182V9.50495V9.51828V9.53181V9.54554V9.55946V9.57358V9.58788V9.60238V9.61708V9.63196V9.64703V9.6623V9.67774V9.69338V9.7092V9.72521V9.7414V9.75778V9.77433V9.79107V9.80799V9.82509V9.84236V9.85982V9.87745V9.89525V9.91323V9.93138V9.94971V9.96821V9.98688V10.0057V10.0247V10.0439V10.0632V10.0827V10.1024V10.1223V10.1423V10.1624V10.1827V10.2032V10.2239V10.2447V10.2656V10.2867V10.308V10.3294V10.351V10.3728V10.3946V10.4167V10.4389V10.4612V10.4837V10.5063V10.5291V10.552V10.5751V10.5983V10.6216V10.6451V10.6687V10.6925V10.7164V10.7405V10.7647V10.789V10.8134V10.838V10.8627V10.8876V10.9126V10.9377V10.9629V10.9883V11.0138V11.0394V11.0652V11.0911V11.1171V11.1432V11.1694V11.1958V11.2223V11.2489V11.2756V11.3024V11.3294V11.3564V11.3836V11.4109V11.4383V11.4658V11.4935V11.5212V11.549V11.577V11.605V11.6332V11.6615V11.6898V11.7183V11.7469V11.7756V11.8043V11.8332V11.8622V11.8912V11.9204V11.9497V11.979V12.0085V12.038V12.0676V12.0973V12.1272V12.157V12.187V12.2171V12.2473V12.2775V12.3078V12.3382V12.3687V12.3993V12.4299V12.4607V12.4915V12.5223V12.5533V12.5843V12.6154V12.6466V12.6779V12.7092V12.7406V12.7721V12.8036V12.8352V12.8669V12.8986V12.9304V12.9622V12.9942V13.0261V13.0582V13.0903V13.1225V13.1547V13.187V13.2193V13.2517V13.2841V13.3166V13.3492V13.3818V13.4144V13.4471V13.4799V13.5127V13.5455V13.5784V13.6113V13.6443V13.6773V13.7104V13.7435V13.7766V13.8098V13.843V13.8763V13.9096V13.9429V13.9763V14.0097V14.0431V14.0766V14.1101V14.1436V14.1771V14.2107V14.2443V14.2779V14.3116V14.3453V14.379V14.4127V14.4464V14.4802V14.514V14.5478V14.5816V14.6154V14.6493V14.6831V14.717V14.7509V14.7848V14.8187V14.8526V14.8866V14.9205V14.9545V14.9884V15.0224V15.0563V15.0903V15.1242V15.1582V15.1922V15.2261V15.2601V15.2941V15.328V15.362V15.3959V15.4299V15.4638V15.4977V15.5316V15.5655V15.5994V15.6333V15.6672V15.701V15.7349V15.7687V15.8025V15.8363V15.8701V15.9038V15.9375V15.9712V16.0049V16.0386V16.0722V16.1058V16.1394V16.173V16.2065V16.24V16.2735V16.3069V16.3403V16.3737V16.407V16.4403V16.4736V16.5068V16.54V16.5732V16.6063V16.6394V16.6724V16.7054V16.7384V16.7713V16.8041V16.8369V16.8697V16.9024V16.9351V16.9677V17.0003V17.0328V17.0653V17.0977V17.13V17.1623V17.1945V17.2267V17.2589V17.2909V17.3229V17.3549V17.3867V17.4186V17.4503V17.482V17.5136V17.5452V17.5767V17.6081V17.6394V17.6707V17.7019V17.733V17.7641V17.7951V17.826V17.8568V17.8876V17.9183V17.9488V17.9794V18.0098V18.0401V18.0704V18.1006V18.1307V18.1607V18.1906V18.2205V18.2502V18.2799V18.3094V18.3389V18.3683V18.3976V18.4268V18.4559V18.4849V18.5138V18.5426V18.5713V18.5999V18.6284V18.6568V18.6851V18.7133V18.7414V18.7694V18.7973V18.8251V18.8527V18.8803V18.9077V18.935V18.9623V18.9894V19.0164V19.0432V19.07V19.0966V19.1231V19.1495V19.1758V19.202V19.228V19.2539V19.2797V19.3054V19.3309V19.3564V19.3816V19.4068V19.4318V19.4567V19.4815V19.5061V19.5306V19.555V19.5792V19.6033V19.6273V19.6511V19.6748V19.6983V19.7217V19.745V19.7681V19.791V19.8139V19.8365V19.8591V19.8815V19.9037V19.9258V19.9477V19.9695V19.9911V20.0126V20.0339V20.0551V20.0761V20.097V20.1177V20.1382V20.1586V20.1788V20.1989V20.2187V20.2385V20.258V20.2774V20.2967V20.3157V20.3346V20.3533V20.3719V20.3903V20.4085V20.4265V20.4444V20.4621V20.4796V20.4969V20.5141V20.5311V20.5479V20.5645V20.5809V20.5972V20.6132V20.6291V20.6448V20.6603V20.6757V20.6908V20.7057V20.7205V20.7351V20.7494V20.7636V20.7776V20.7914V20.805V20.8184V20.8316V20.8446V20.8574V20.87V20.8824V20.8946V20.9066V20.9184V20.9299V20.9413V20.9525V20.9634V20.9742V20.9847V20.9951V21.0052V21.0151V21.0248V21.0343V21.0435V21.0526V21.0614V21.07V21.0784V21.0865V21.0945V21.1022V21.1097V21.117V21.124V21.1308V21.1374V21.1438V21.1499V21.1558V21.1615V21.167V21.1722V21.1771V21.1819V21.1864V21.1907V21.1947V21.1985V21.202V21.2054V21.2084V21.4584H19.09H12.2385ZM3.11579 21.4584H2.86579V21.2084V2.27121V2.02121H3.11579H9.96728H10.2173V2.27121V2.27517V2.2795V2.28421V2.28928V2.29472V2.30052V2.30669V2.31322V2.32012V2.32737V2.33499V2.34296V2.35128V2.35997V2.369V2.37839V2.38812V2.39821V2.40864V2.41942V2.43054V2.44201V2.45382V2.46596V2.47845V2.49128V2.50444V2.51793V2.53176V2.54592V2.56041V2.57523V2.59038V2.60585V2.62165V2.63777V2.65421V2.67097V2.68805V2.70545V2.72317V2.7412V2.75954V2.77819V2.79716V2.81643V2.83601V2.8559V2.87609V2.89659V2.91738V2.93848V2.95988V2.98157V3.00356V3.02585V3.04842V3.07129V3.09445V3.1179V3.14164V3.16566V3.18997V3.21456V3.23943V3.26459V3.29002V3.31573V3.34171V3.36797V3.39451V3.42131V3.44839V3.47573V3.50334V3.53122V3.55937V3.58777V3.61644V3.64537V3.67456V3.704V3.7337V3.76366V3.79387V3.82433V3.85504V3.886V3.91721V3.94867V3.98037V4.01231V4.04449V4.07692V4.10958V4.14248V4.17562V4.20899V4.2426V4.27644V4.31051V4.34481V4.37933V4.41408V4.44906V4.48426V4.51968V4.55532V4.59118V4.62726V4.66356V4.70007V4.73679V4.77373V4.81087V4.84823V4.88579V4.92356V4.96153V4.99971V5.03809V5.07667V5.11545V5.15442V5.19359V5.23296V5.27252V5.31228V5.35222V5.39235V5.43267V5.47318V5.51387V5.55475V5.5958V5.63704V5.67846V5.72005V5.76182V5.80377V5.84589V5.88818V5.93064V5.97327V6.01607V6.05904V6.10217V6.14546V6.18891V6.23253V6.27631V6.32024V6.36433V6.40857V6.45297V6.49752V6.54222V6.58707V6.63207V6.67721V6.7225V6.76794V6.81351V6.85923V6.90508V6.95107V6.9972V7.04346V7.08986V7.13639V7.18305V7.22984V7.27676V7.3238V7.37097V7.41826V7.46568V7.51321V7.56086V7.60864V7.65653V7.70453V7.75265V7.80088V7.84922V7.89766V7.94622V7.99488V8.04365V8.09253V8.1415V8.19057V8.23975V8.28902V8.33839V8.38785V8.43741V8.48706V8.5368V8.58663V8.63655V8.68655V8.73664V8.78681V8.83707V8.88741V8.93782V8.98831V9.03888V9.08953V9.14025V9.19104V9.2419V9.29283V9.34383V9.39489V9.44602V9.49722V9.54847V9.59979V9.65117V9.7026V9.75409V9.80564V9.85724V9.90889V9.96059V10.0123V10.0641V10.116V10.1679V10.2198V10.2718V10.3238V10.3759V10.428V10.4801V10.5323V10.5845V10.6367V10.689V10.7413V10.7936V10.8459V10.8983V10.9507V11.0031V11.0556V11.108V11.1605V11.213V11.2655V11.318V11.3706V11.4231V11.4757V11.5282V11.5808V11.6334V11.686V11.7386V11.7911V11.8437V11.8963V11.9489V12.0015V12.054V12.1066V12.1591V12.2117V12.2642V12.3167V12.3692V12.4217V12.4742V12.5266V12.579V12.6314V12.6838V12.7362V12.7885V12.8408V12.8931V12.9453V12.9975V13.0497V13.1019V13.154V13.206V13.2581V13.3101V13.362V13.4139V13.4658V13.5176V13.5694V13.6211V13.6727V13.7244V13.7759V13.8274V13.8789V13.9303V13.9816V14.0329V14.0841V14.1352V14.1863V14.2374V14.2883V14.3392V14.39V14.4407V14.4914V14.542V14.5925V14.643V14.6933V14.7436V14.7938V14.8439V14.8939V14.9439V14.9937V15.0435V15.0932V15.1428V15.1923V15.2417V15.291V15.3402V15.3893V15.4383V15.4872V15.536V15.5847V15.6333V15.6818V15.7301V15.7784V15.8265V15.8746V15.9225V15.9703V16.018V16.0656V16.113V16.1604V16.2076V16.2546V16.3016V16.3484V16.3951V16.4417V16.4881V16.5344V16.5806V16.6266V16.6725V16.7183V16.7639V16.8094V16.8547V16.8999V16.945V16.9899V17.0346V17.0792V17.1236V17.1679V17.2121V17.256V17.2999V17.3435V17.387V17.4304V17.4736V17.5166V17.5594V17.6021V17.6446V17.687V17.7291V17.7711V17.813V17.8546V17.8961V17.9374V17.9785V18.0194V18.0602V18.1007V18.1411V18.1813V18.2213V18.2611V18.3007V18.3402V18.3794V18.4184V18.4573V18.4959V18.5344V18.5726V18.6106V18.6485V18.6861V18.7235V18.7607V18.7977V18.8345V18.8711V18.9074V18.9436V18.9795V19.0152V19.0507V19.086V19.121V19.1558V19.1904V19.2248V19.259V19.2929V19.3265V19.36V19.3932V19.4262V19.4589V19.4914V19.5237V19.5557V19.5875V19.619V19.6503V19.6813V19.7121V19.7426V19.7729V19.8029V19.8327V19.8623V19.8915V19.9205V19.9493V19.9778V20.006V20.0339V20.0616V20.0891V20.1162V20.1431V20.1697V20.1961V20.2221V20.2479V20.2735V20.2987V20.3237V20.3483V20.3727V20.3968V20.4207V20.4442V20.4674V20.4904V20.5131V20.5354V20.5575V20.5793V20.6008V20.622V20.6429V20.6635V20.6838V20.7037V20.7234V20.7428V20.7618V20.7806V20.799V20.8172V20.835V20.8525V20.8696V20.8865V20.903V20.9193V20.9352V20.9507V20.966V20.9809V20.9955V21.0097V21.0237V21.0373V21.0505V21.0635V21.0761V21.0883V21.1002V21.1118V21.123V21.1339V21.1444V21.1546V21.1645V21.174V21.1831V21.1919V21.2003V21.2084V21.4584H9.96728H3.11579Z" fill="#145E94" stroke="#313035" stroke-width="0.5"/>
</svg>
