<svg width="31" height="24" viewBox="0 0 31 24" fill="none" xmlns="http://www.w3.org/2000/svg">
<path d="M12.0586 7.53894H11.8086V7.28894V2.33445C11.8086 1.4289 11.0715 0.691772 10.1659 0.691772H2.55746C1.65191 0.691772 0.914783 1.4289 0.914783 2.33445V13.7923V15.6849V16.0635V17.4106V18.6219V21.6502V22.2558C0.914783 22.4115 0.910542 22.5521 0.906109 22.6771C0.905218 22.7022 0.904327 22.7266 0.903463 22.7502C0.899967 22.8456 0.89691 22.9292 0.896042 23.0056C0.893772 23.2055 0.909241 23.3008 0.936209 23.3547C0.951395 23.3851 0.980898 23.4266 1.11322 23.462C1.2566 23.5004 1.48128 23.52 1.83817 23.52L1.83961 23.52L28.1102 23.6714C28.1104 23.6714 28.1107 23.6714 28.1109 23.6714C29.1822 23.671 30.054 22.7989 30.054 21.7276V14.3509C30.054 13.4453 29.3169 12.7082 28.4113 12.7082H21.1813H20.9313V12.4582V9.18162C20.9313 8.27607 20.1942 7.53894 19.2886 7.53894H12.0586ZM21.1813 21.9002H20.9313V21.6502V14.7294V14.4794H21.1813H28.0328H28.2828V14.7294V21.6502V21.9002H28.0328H21.1813ZM12.0586 21.9002H11.8086V21.6502V9.56016V9.31016H12.0586H18.9101H19.1601V9.56016V9.56315V9.56638V9.56985V9.57356V9.57751V9.5817V9.58613V9.59079V9.59569V9.60082V9.60619V9.61178V9.61761V9.62367V9.62996V9.63648V9.64322V9.6502V9.65739V9.66482V9.67246V9.68033V9.68842V9.69673V9.70527V9.71402V9.72299V9.73217V9.74158V9.75119V9.76103V9.77107V9.78133V9.7918V9.80248V9.81337V9.82447V9.83578V9.84729V9.85901V9.87093V9.88306V9.89539V9.90792V9.92066V9.93359V9.94673V9.96006V9.97359V9.98731V10.0012V10.0153V10.0297V10.0442V10.0588V10.0737V10.0888V10.1041V10.1195V10.1352V10.151V10.167V10.1832V10.1995V10.2161V10.2328V10.2498V10.2669V10.2841V10.3016V10.3192V10.337V10.355V10.3732V10.3915V10.41V10.4286V10.4475V10.4665V10.4857V10.505V10.5245V10.5442V10.564V10.584V10.6042V10.6245V10.645V10.6656V10.6864V10.7074V10.7285V10.7498V10.7712V10.7928V10.8145V10.8364V10.8584V10.8806V10.903V10.9255V10.9481V10.9709V10.9938V11.0168V11.04V11.0634V11.0869V11.1105V11.1343V11.1582V11.1823V11.2064V11.2308V11.2552V11.2798V11.3045V11.3294V11.3544V11.3795V11.4047V11.4301V11.4556V11.4812V11.507V11.5328V11.5588V11.585V11.6112V11.6376V11.664V11.6906V11.7174V11.7442V11.7711V11.7982V11.8254V11.8527V11.8801V11.9076V11.9352V11.963V11.9908V12.0188V12.0468V12.075V12.1032V12.1316V12.1601V12.1887V12.2173V12.2461V12.275V12.3039V12.333V12.3622V12.3914V12.4208V12.4502V12.4798V12.5094V12.5391V12.5689V12.5988V12.6288V12.6589V12.689V12.7193V12.7496V12.78V12.8105V12.8411V12.8717V12.9024V12.9332V12.9641V12.9951V13.0261V13.0572V13.0884V13.1196V13.151V13.1824V13.2138V13.2454V13.277V13.3086V13.3404V13.3722V13.404V13.4359V13.4679V13.5V13.5321V13.5642V13.5964V13.6287V13.6611V13.6935V13.7259V13.7584V13.7909V13.8235V13.8562V13.8889V13.9216V13.9544V13.9873V14.0202V14.0531V14.0861V14.1191V14.1522V14.1853V14.2184V14.2516V14.2848V14.3181V14.3514V14.3847V14.4181V14.4514V14.4849V14.5183V14.5518V14.5853V14.6189V14.6525V14.6861V14.7197V14.7534V14.787V14.8207V14.8545V14.8882V14.922V14.9557V14.9895V15.0234V15.0572V15.091V15.1249V15.1588V15.1927V15.2266V15.2605V15.2944V15.3283V15.3623V15.3962V15.4302V15.4641V15.4981V15.5321V15.566V15.6V15.6339V15.6679V15.7019V15.7358V15.7698V15.8037V15.8377V15.8716V15.9056V15.9395V15.9734V16.0073V16.0412V16.0751V16.1089V16.1428V16.1766V16.2105V16.2443V16.2781V16.3118V16.3456V16.3793V16.413V16.4467V16.4804V16.514V16.5476V16.5812V16.6148V16.6483V16.6818V16.7153V16.7487V16.7821V16.8155V16.8488V16.8821V16.9154V16.9486V16.9818V17.015V17.0481V17.0812V17.1142V17.1472V17.1801V17.213V17.2459V17.2787V17.3115V17.3442V17.3769V17.4095V17.442V17.4746V17.507V17.5394V17.5718V17.6041V17.6363V17.6685V17.7006V17.7327V17.7647V17.7966V17.8285V17.8603V17.8921V17.9238V17.9554V17.987V18.0184V18.0499V18.0812V18.1125V18.1437V18.1748V18.2059V18.2369V18.2678V18.2986V18.3293V18.36V18.3906V18.4211V18.4516V18.4819V18.5122V18.5424V18.5725V18.6025V18.6324V18.6622V18.692V18.7217V18.7512V18.7807V18.8101V18.8394V18.8686V18.8977V18.9267V18.9556V18.9844V19.0131V19.0417V19.0702V19.0986V19.1269V19.1551V19.1832V19.2112V19.2391V19.2668V19.2945V19.322V19.3495V19.3768V19.404V19.4311V19.4581V19.485V19.5118V19.5384V19.5649V19.5913V19.6176V19.6438V19.6698V19.6957V19.7215V19.7472V19.7727V19.7981V19.8234V19.8486V19.8736V19.8985V19.9233V19.9479V19.9724V19.9968V20.021V20.0451V20.069V20.0929V20.1165V20.1401V20.1635V20.1867V20.2098V20.2328V20.2556V20.2783V20.3008V20.3232V20.3455V20.3676V20.3895V20.4113V20.4329V20.4544V20.4757V20.4969V20.5179V20.5387V20.5594V20.58V20.6004V20.6206V20.6406V20.6605V20.6802V20.6998V20.7192V20.7384V20.7575V20.7764V20.7951V20.8137V20.8321V20.8503V20.8683V20.8862V20.9039V20.9214V20.9387V20.9559V20.9728V20.9896V21.0063V21.0227V21.0389V21.055V21.0709V21.0866V21.1021V21.1174V21.1326V21.1475V21.1623V21.1768V21.1912V21.2054V21.2194V21.2332V21.2468V21.2602V21.2734V21.2864V21.2992V21.3118V21.3242V21.3364V21.3483V21.3601V21.3717V21.3831V21.3943V21.4052V21.416V21.4265V21.4368V21.447V21.4569V21.4666V21.476V21.4853V21.4943V21.5032V21.5118V21.5201V21.5283V21.5363V21.544V21.5515V21.5587V21.5658V21.5726V21.5792V21.5856V21.5917V21.5976V21.6033V21.6087V21.6139V21.6189V21.6237V21.6282V21.6324V21.6365V21.6403V21.6438V21.6471V21.6502V21.9002H18.9101H12.0586ZM2.93592 21.9002H2.68592V21.6502V2.71298V2.46298H2.93592H9.78741H10.0374V2.71298V2.71694V2.72128V2.72598V2.73105V2.73649V2.7423V2.74846V2.755V2.76189V2.76915V2.77676V2.78473V2.79306V2.80174V2.81077V2.82016V2.82989V2.83998V2.85041V2.86119V2.87231V2.88378V2.89559V2.90774V2.92022V2.93305V2.94621V2.9597V2.97353V2.98769V3.00218V3.017V3.03215V3.04762V3.06342V3.07954V3.09598V3.11274V3.12982V3.14722V3.16494V3.18297V3.20131V3.21997V3.23893V3.2582V3.27779V3.29767V3.31787V3.33836V3.35916V3.38025V3.40165V3.42334V3.44533V3.46762V3.4902V3.51307V3.53623V3.55968V3.58341V3.60744V3.63174V3.65633V3.68121V3.70636V3.73179V3.7575V3.78348V3.80974V3.83628V3.86308V3.89016V3.9175V3.94512V3.97299V4.00114V4.02954V4.05821V4.08714V4.11633V4.14577V4.17548V4.20543V4.23564V4.2661V4.29681V4.32778V4.35898V4.39044V4.42214V4.45408V4.48627V4.51869V4.55135V4.58426V4.61739V4.65077V4.68437V4.71821V4.75228V4.78658V4.8211V4.85585V4.89083V4.92603V4.96145V4.99709V5.03296V5.06903V5.10533V5.14184V5.17856V5.2155V5.25264V5.29V5.32756V5.36533V5.4033V5.44148V5.47986V5.51844V5.55722V5.59619V5.63537V5.67473V5.7143V5.75405V5.79399V5.83412V5.87444V5.91495V5.95564V5.99652V6.03758V6.07881V6.12023V6.16182V6.2036V6.24554V6.28766V6.32995V6.37241V6.41504V6.45784V6.50081V6.54394V6.58723V6.63069V6.6743V6.71808V6.76201V6.8061V6.85035V6.89474V6.93929V6.98399V7.02884V7.07384V7.11899V7.16428V7.20971V7.25528V7.301V7.34685V7.39284V7.43897V7.48524V7.53163V7.57816V7.62482V7.67161V7.71853V7.76557V7.81274V7.86003V7.90745V7.95498V8.00264V8.05041V8.0983V8.1463V8.19442V8.24265V8.29099V8.33944V8.38799V8.43666V8.48543V8.5343V8.58327V8.63235V8.68152V8.73079V8.78016V8.82963V8.87918V8.92883V8.97857V9.0284V9.07832V9.12833V9.17841V9.22859V9.27884V9.32918V9.37959V9.43009V9.48066V9.5313V9.58202V9.63281V9.68367V9.7346V9.7856V9.83666V9.88779V9.93899V9.99024V10.0416V10.0929V10.1444V10.1959V10.2474V10.299V10.3507V10.4024V10.4541V10.5059V10.5578V10.6097V10.6616V10.7136V10.7656V10.8176V10.8697V10.9219V10.974V11.0262V11.0785V11.1307V11.183V11.2354V11.2877V11.3401V11.3925V11.4449V11.4973V11.5498V11.6023V11.6548V11.7073V11.7598V11.8123V11.8649V11.9174V11.97V12.0226V12.0752V12.1277V12.1803V12.2329V12.2855V12.3381V12.3906V12.4432V12.4958V12.5483V12.6009V12.6534V12.706V12.7585V12.811V12.8635V12.9159V12.9684V13.0208V13.0732V13.1256V13.1779V13.2303V13.2826V13.3349V13.3871V13.4393V13.4915V13.5436V13.5957V13.6478V13.6998V13.7518V13.8038V13.8557V13.9075V13.9594V14.0111V14.0628V14.1145V14.1661V14.2177V14.2692V14.3207V14.372V14.4234V14.4747V14.5259V14.577V14.6281V14.6791V14.7301V14.781V14.8318V14.8825V14.9332V14.9838V15.0343V15.0847V15.1351V15.1854V15.2356V15.2857V15.3357V15.3857V15.4355V15.4853V15.535V15.5845V15.634V15.6834V15.7327V15.7819V15.831V15.88V15.929V15.9778V16.0265V16.075V16.1235V16.1719V16.2202V16.2683V16.3163V16.3643V16.4121V16.4598V16.5073V16.5548V16.6021V16.6493V16.6964V16.7434V16.7902V16.8369V16.8835V16.9299V16.9762V17.0224V17.0684V17.1143V17.1601V17.2057V17.2512V17.2965V17.3417V17.3867V17.4316V17.4764V17.521V17.5654V17.6097V17.6538V17.6978V17.7416V17.7853V17.8288V17.8722V17.9153V17.9584V18.0012V18.0439V18.0864V18.1287V18.1709V18.2129V18.2547V18.2964V18.3379V18.3792V18.4203V18.4612V18.5019V18.5425V18.5829V18.6231V18.6631V18.7029V18.7425V18.7819V18.8212V18.8602V18.899V18.9377V18.9761V19.0144V19.0524V19.0902V19.1279V19.1653V19.2025V19.2395V19.2763V19.3129V19.3492V19.3854V19.4213V19.457V19.4925V19.5278V19.5628V19.5976V19.6322V19.6666V19.7007V19.7346V19.7683V19.8018V19.835V19.8679V19.9007V19.9332V19.9654V19.9974V20.0292V20.0608V20.092V20.1231V20.1539V20.1844V20.2147V20.2447V20.2745V20.304V20.3333V20.3623V20.3911V20.4195V20.4478V20.4757V20.5034V20.5308V20.558V20.5849V20.6115V20.6378V20.6639V20.6897V20.7152V20.7405V20.7654V20.7901V20.8145V20.8386V20.8624V20.886V20.9092V20.9322V20.9548V20.9772V20.9993V21.0211V21.0426V21.0638V21.0847V21.1052V21.1255V21.1455V21.1652V21.1846V21.2036V21.2224V21.2408V21.2589V21.2767V21.2942V21.3114V21.3283V21.3448V21.361V21.3769V21.3925V21.4077V21.4227V21.4373V21.4515V21.4655V21.479V21.4923V21.5052V21.5178V21.5301V21.542V21.5536V21.5648V21.5757V21.5862V21.5964V21.6063V21.6157V21.6249V21.6337V21.6421V21.6502V21.9002H9.78741H2.93592Z" fill="#145E94" stroke="#145E94" stroke-width="0.5"/>
</svg>
