<svg width="49" height="24" viewBox="0 0 49 24" fill="none" xmlns="http://www.w3.org/2000/svg">
<mask id="path-1-inside-1_65_64" fill="white">
<path d="M47.9893 15.2077C47.7632 14.1587 45.9847 14.0633 45.9847 14.0633C44.999 14.2725 44.3079 13.9397 43.4518 14.0648C37.4621 14.9402 34.3937 14.4415 34.3937 14.4415C35.1186 12.6784 36.6556 8.86066 37.7388 8.7407C38.945 8.60747 40.165 11.3573 40.9746 11.3772C41.215 11.3833 41.5662 10.855 41.5662 10.855C42.3615 10.6616 42.4891 10.0904 42.4891 10.0904C41.6331 10.635 40.1915 8.57225 40.701 8.00206C41.2145 7.42729 42.7663 8.05158 43.4493 8.71773C44.1956 9.44666 43.6009 10.2848 43.6009 10.2848C43.6009 10.2848 44.3002 10.0582 44.5258 9.45381C44.5565 9.37162 44.5932 9.29557 44.6315 9.22768C44.7412 9.03472 44.9092 8.88414 45.1052 8.77949C45.3421 8.65392 45.4926 8.3941 45.171 7.98165C44.7423 7.43341 44.0072 6.35583 43.6754 5.57483C43.3232 5.60444 42.7331 5.56718 42.5008 5.03732C42.4141 4.8413 42.2461 4.21956 42.2461 4.21956L43.5606 5.26243C43.5412 5.19709 43.5279 5.13584 43.5167 5.07918C43.2456 3.74586 41.7923 2.9475 41.7923 2.9475C40.5846 2.06032 39.3901 0.857682 38.6489 0.0200195C38.6489 0.0200195 36.9664 2.84592 39.4646 4.24713C38.1961 3.59476 37.7439 2.85664 37.6811 2.18232C30.6684 0.797448 26.2233 5.47019 24.9018 6.43445C23.2816 7.61667 21.1616 8.63401 19.0248 9.4824C18.4904 9.69321 17.9616 9.90506 17.4429 10.1C17.1841 10.1996 16.9279 10.2971 16.6757 10.3936C16.4241 10.4906 16.1749 10.5789 15.9309 10.6692C15.6875 10.7585 15.4481 10.8463 15.2148 10.9321C14.9815 11.0194 14.7528 11.0944 14.5313 11.173C14.3097 11.2501 14.0948 11.3252 13.8876 11.3976C13.7834 11.4334 13.6819 11.4691 13.5818 11.5038C13.4818 11.5365 13.3838 11.5686 13.2878 11.5998C12.9034 11.7259 12.5532 11.8402 12.2434 11.9413C11.9335 12.0393 11.6645 12.1174 11.443 12.1853C11.0009 12.319 10.7508 12.3946 10.7508 12.3946C10.7508 12.3946 11.0734 12.3257 11.6247 12.2088C11.7625 12.1791 11.9152 12.147 12.08 12.1118C12.2449 12.0781 12.4226 12.0321 12.6119 11.9882C12.8008 11.9433 13.0014 11.8958 13.2117 11.8453C13.422 11.7948 13.6431 11.7458 13.8712 11.6845C14.3276 11.5651 14.8187 11.442 15.3301 11.3037C15.5859 11.2328 15.8467 11.1603 16.1117 11.0868C16.3766 11.0122 16.6461 10.9408 16.9166 10.8601C17.1882 10.78 17.4613 10.7003 17.7354 10.6197C18.01 10.5396 18.2857 10.4589 18.5598 10.3737C18.8339 10.2894 19.108 10.2052 19.3796 10.122C19.5159 10.0801 19.6512 10.0383 19.7859 9.99694C19.9207 9.95457 20.0544 9.91169 20.1872 9.86932C17.4725 10.9867 14.1923 12.243 11.5497 13.0418C11.3848 13.0929 11.2225 13.1429 11.0632 13.1919C10.9836 13.2174 10.9045 13.2404 10.8259 13.2613C10.7478 13.2838 10.6702 13.3052 10.5931 13.3267C10.2858 13.4129 9.99176 13.4951 9.71407 13.5732C9.57472 13.614 9.43893 13.6452 9.30775 13.6773C9.17605 13.71 9.04894 13.7412 8.92643 13.7713C8.6809 13.8315 8.45375 13.8871 8.24752 13.9377C7.41956 14.1082 6.92595 14.2103 6.92595 14.2103C6.92595 14.2103 7.25979 14.171 7.83916 14.1031C7.91164 14.0949 7.98821 14.0857 8.06835 14.0765C8.14849 14.0658 8.23221 14.0587 8.3195 14.0433C8.49408 14.0163 8.68244 13.9867 8.88356 13.955C9.08519 13.9234 9.29907 13.8897 9.52469 13.8545C9.7498 13.8177 9.98564 13.7677 10.2317 13.7223C12.2026 13.3542 14.7993 12.7116 17.3041 11.9668C17.0683 12.0597 16.8314 12.1465 16.5961 12.2348C16.3613 12.3226 16.1275 12.4104 15.8962 12.4967C15.7804 12.5395 15.665 12.5829 15.5507 12.6253C15.4358 12.6661 15.3215 12.707 15.2081 12.7473C14.981 12.8279 14.7574 12.9076 14.5374 12.9857C14.0989 13.1454 13.6722 13.2838 13.2694 13.4191C13.0678 13.4864 12.8723 13.5518 12.6834 13.6146C12.494 13.6763 12.3098 13.7309 12.1336 13.7861C11.7814 13.8953 11.4593 13.9943 11.175 14.0821C10.8876 14.1628 10.6385 14.2322 10.4328 14.2899C10.0219 14.4047 9.78911 14.4696 9.78911 14.4696C9.78911 14.4696 10.0346 14.4226 10.4665 14.3404C10.6824 14.2981 10.9458 14.2501 11.247 14.1893C11.5476 14.1235 11.8871 14.049 12.2582 13.9673C12.443 13.9249 12.638 13.8871 12.8365 13.8361C13.0361 13.7876 13.2429 13.7371 13.4552 13.685C13.6676 13.6329 13.8861 13.5793 14.1096 13.5247C14.3332 13.4691 14.5604 13.4063 14.7921 13.3455C15.2556 13.2215 15.7375 13.0975 16.224 12.9561C16.7109 12.8157 17.2102 12.6804 17.7058 12.5288C17.3388 12.6738 16.9738 12.8091 16.619 12.9413C16.4414 13.0081 16.2668 13.073 16.0948 13.1378C15.9233 13.2016 15.7543 13.2659 15.5879 13.3236C15.2551 13.442 14.9366 13.5553 14.6369 13.6615C14.4874 13.7146 14.3429 13.7682 14.202 13.8152C14.0611 13.8621 13.9259 13.9071 13.7962 13.9504C13.5364 14.0372 13.3006 14.1158 13.0923 14.1853C12.9887 14.2205 12.8917 14.2526 12.8018 14.2828C12.712 14.3108 12.6293 14.3363 12.5548 14.3593C12.2567 14.4507 12.0897 14.5028 12.0897 14.5028C12.0897 14.5028 12.1678 14.4854 12.3128 14.4532C12.4573 14.4206 12.6706 14.3782 12.9361 14.3134C13.2015 14.2485 13.5221 14.1699 13.8861 14.0811C14.0678 14.0352 14.2623 13.9918 14.4629 13.9372C14.664 13.8836 14.8748 13.8279 15.0933 13.7697C15.3123 13.7115 15.5394 13.6513 15.7727 13.589C16.0065 13.5268 16.2439 13.4568 16.4884 13.3879C16.9764 13.2496 17.4863 13.1072 18.0009 12.9505C18.5164 12.7963 19.0427 12.6406 19.5629 12.4757C20.084 12.3129 20.6047 12.1521 21.1085 11.9872C20.9197 12.0648 20.7298 12.1434 20.5399 12.2215C20.3495 12.2986 20.1586 12.3752 19.9687 12.4512C19.5884 12.6033 19.2137 12.758 18.8452 12.9014C18.4766 13.0449 18.1183 13.1842 17.7773 13.3175C17.6915 13.3507 17.6073 13.3833 17.5241 13.416C17.4409 13.4471 17.3582 13.4778 17.277 13.5084C17.1147 13.5691 16.9575 13.6278 16.8064 13.6845C16.5037 13.7973 16.225 13.9014 15.9774 13.9938C15.7278 14.0832 15.5093 14.1608 15.3291 14.2246C14.9682 14.3527 14.76 14.4267 14.76 14.4267C14.76 14.4267 14.9371 14.3802 15.2485 14.2976C15.5588 14.2138 16.0065 14.1005 16.5379 13.9464C16.8043 13.8708 17.0933 13.7891 17.3995 13.7024C17.7068 13.6166 18.0264 13.5166 18.3607 13.418C18.6941 13.3175 19.0417 13.2174 19.3913 13.1072C19.7415 12.9979 20.0983 12.8866 20.4567 12.7749C19.4312 13.1939 18.3658 13.6202 17.3388 14.0127C17.081 14.1102 16.8268 14.2067 16.5767 14.3011C16.4516 14.3486 16.3276 14.3956 16.2046 14.442C16.081 14.4864 15.9585 14.5308 15.837 14.5747C15.5946 14.662 15.3577 14.7473 15.1275 14.83C14.8968 14.9121 14.6752 14.9959 14.4573 15.0673C14.0223 15.2143 13.6206 15.3501 13.2628 15.4711C13.174 15.5022 13.0862 15.5303 13.0014 15.5563C12.9167 15.5824 12.8345 15.6084 12.7559 15.6329C12.5982 15.6824 12.4527 15.7279 12.321 15.7687C12.0581 15.8509 11.8498 15.9162 11.7074 15.9606C11.637 15.9836 11.5808 15.9979 11.5436 16.0091C11.5058 16.0198 11.4864 16.0255 11.4864 16.0255C11.4864 16.0255 11.5037 16.0214 11.5374 16.0152C11.5706 16.0081 11.6217 15.9989 11.6855 15.9841C11.8141 15.9545 12.0035 15.9116 12.2449 15.8565C12.4869 15.8009 12.7819 15.733 13.1209 15.6554C13.4568 15.5706 13.837 15.4747 14.2536 15.3695C14.6053 15.2838 14.9784 15.1806 15.3715 15.0729C12.9106 15.9765 10.5722 16.7692 8.76462 17.3506C8.50122 17.4353 8.24905 17.5165 8.00965 17.5936C7.77025 17.6707 7.5436 17.7437 7.33023 17.8085C6.90349 17.9397 6.5334 18.054 6.22917 18.1479C5.92443 18.2414 5.68706 18.3169 5.52423 18.3639C5.36139 18.4124 5.27512 18.4374 5.27512 18.4374C5.27512 18.4374 5.3864 18.4139 5.59314 18.371C5.79885 18.3266 6.09951 18.2602 6.47878 18.177C6.85754 18.0928 7.31594 17.9948 7.83507 17.8759C8.3537 17.7549 8.9346 17.6196 9.56093 17.4731C10.1857 17.32 10.8565 17.1551 11.5563 16.9831C12.2546 16.8029 12.9825 16.6166 13.7227 16.4211C14.0918 16.3205 14.4644 16.2194 14.8381 16.1173C15.2122 16.0163 15.5879 15.9152 15.9606 15.807C16.7063 15.5926 17.4521 15.3859 18.1724 15.1658C16.325 15.8851 14.2827 16.6538 12.2439 17.3634C11.7365 17.5461 11.2261 17.7156 10.7217 17.8886C10.469 17.9754 10.2179 18.0612 9.96828 18.1459C9.71918 18.2311 9.46956 18.3108 9.2225 18.3925C8.72889 18.5538 8.24395 18.7161 7.7682 18.8687C7.29194 19.0193 6.82743 19.1663 6.3772 19.3082C5.928 19.4532 5.49003 19.5818 5.07145 19.7094C4.65287 19.836 4.25267 19.9596 3.87289 20.0719C3.1118 20.2919 2.43799 20.4909 1.87598 20.6502C0.749905 20.9641 0.0791626 21.151 0.0791626 21.151C0.0791626 21.151 0.535002 21.0642 1.32672 20.9141C1.52478 20.8763 1.74377 20.835 1.98215 20.7896C2.22003 20.7441 2.47679 20.6905 2.7509 20.6354C3.02502 20.5803 3.31649 20.5216 3.62328 20.4593C3.77642 20.4282 3.93364 20.3965 4.09494 20.3638C4.25523 20.3291 4.41908 20.2944 4.58651 20.2587C7.26846 19.6936 10.8008 18.8641 14.2173 17.9305C11.6334 18.8672 9.08315 19.712 7.17556 20.3118C6.22304 20.6175 5.42877 20.8518 4.87543 21.0208C4.59876 21.1045 4.38233 21.1704 4.2343 21.2148C4.08626 21.2582 4.00714 21.2806 4.00714 21.2806C4.00714 21.2806 4.09035 21.2643 4.24655 21.2326C4.40224 21.1995 4.63092 21.151 4.9224 21.0887C5.50534 20.9631 6.34096 20.7885 7.34401 20.5563C9.35165 20.1025 12.0356 19.4486 14.7462 18.7028C14.6206 18.7488 14.4955 18.7947 14.371 18.8401C14.2459 18.885 14.1214 18.9289 13.9978 18.9734C13.7503 19.0606 13.5052 19.1474 13.2638 19.2332C12.7804 19.4047 12.3108 19.5721 11.858 19.7242C11.4057 19.8789 10.9734 20.0264 10.5665 20.1658C10.1592 20.3026 9.77533 20.4266 9.42464 20.5425C9.07345 20.6579 8.75441 20.763 8.47264 20.8554C8.19035 20.9447 7.94584 21.0223 7.74523 21.0856C7.34452 21.2122 7.11941 21.2832 7.11941 21.2832C7.11941 21.2832 7.54105 21.1877 8.26029 21.0249C8.62016 20.9447 9.05201 20.8365 9.5446 20.7201C10.0372 20.6027 10.589 20.4721 11.1816 20.3199C11.4782 20.2454 11.786 20.1678 12.1025 20.0877C12.2608 20.0474 12.421 20.0065 12.5839 19.9652C12.7457 19.9228 12.9101 19.8794 13.076 19.8355C13.7385 19.6574 14.4328 19.4808 15.1341 19.2817C15.8365 19.0862 16.5532 18.8912 17.2638 18.6804C17.619 18.5767 17.9743 18.4736 18.3265 18.371C18.6793 18.2679 19.0274 18.1592 19.3725 18.0556C17.3056 18.8657 15.1474 19.6681 13.4986 20.2444C12.6763 20.54 11.9795 20.7727 11.491 20.9407C11.0025 21.1076 10.7202 21.2041 10.7202 21.2041C10.7202 21.2041 10.9601 21.1438 11.3807 21.0377C11.5915 20.9851 11.8473 20.9208 12.1413 20.8467C12.4353 20.7722 12.7676 20.6895 13.1296 20.5925C13.8524 20.3996 14.7013 20.1816 15.6094 19.9254C15.8365 19.8616 16.0678 19.7977 16.3026 19.7324C16.5369 19.6676 16.7747 19.6022 17.0136 19.5318C17.4919 19.3924 17.9789 19.251 18.4679 19.1086C17.0647 19.6507 15.6094 20.2 14.2097 20.7028C13.5098 20.9529 12.8268 21.2015 12.1694 21.4246C11.5129 21.6512 10.8881 21.8712 10.3031 22.0627C9.71918 22.2561 9.18064 22.4399 8.69877 22.5946C8.21588 22.7492 7.79271 22.885 7.44304 22.9973C7.26795 23.0535 7.11073 23.1035 6.97444 23.1474C6.83713 23.1897 6.72023 23.226 6.62529 23.2551C6.4354 23.3143 6.3333 23.3454 6.3333 23.3454C6.3333 23.3454 6.42468 23.325 6.59619 23.2867C6.76821 23.249 7.02089 23.1928 7.34248 23.1157C7.98566 22.9621 8.91214 22.7523 10.028 22.47C12.2638 21.9177 15.2725 21.1163 18.372 20.1831C19.1489 19.956 19.9263 19.7064 20.7043 19.4659C21.0932 19.347 21.4786 19.2184 21.863 19.0943C22.2479 18.9698 22.6297 18.8457 23.009 18.7227C23.7639 18.468 24.5067 18.2199 25.2244 17.9729C25.5822 17.8473 25.9339 17.7238 26.279 17.6028C26.624 17.4803 26.963 17.3654 27.2907 17.2439C27.4321 17.1924 27.5715 17.1413 27.7098 17.0913C27.745 17.1439 27.7807 17.1949 27.817 17.2414C28.3647 17.9387 32.1288 18.1357 33.6949 18.0433C35.3815 17.9438 43.8403 15.954 43.8403 15.954C43.8403 15.954 45.0562 16.0985 45.5723 16.1398C45.6881 16.1495 45.7999 16.0985 45.8704 16.0055L46.0164 15.8111C46.0164 15.8111 46.5672 15.9438 46.3349 16.6896C46.3349 16.6896 47.1343 16.078 46.9934 15.5298C47.0281 15.5461 47.0638 15.564 47.1011 15.5854C47.7984 15.9979 47.1368 16.6416 47.1368 16.6416C47.1368 16.6416 48.2078 16.223 47.9893 15.2077Z"/>
</mask>
<path d="M47.9893 15.2077C47.7632 14.1587 45.9847 14.0633 45.9847 14.0633C44.999 14.2725 44.3079 13.9397 43.4518 14.0648C37.4621 14.9402 34.3937 14.4415 34.3937 14.4415C35.1186 12.6784 36.6556 8.86066 37.7388 8.7407C38.945 8.60747 40.165 11.3573 40.9746 11.3772C41.215 11.3833 41.5662 10.855 41.5662 10.855C42.3615 10.6616 42.4891 10.0904 42.4891 10.0904C41.6331 10.635 40.1915 8.57225 40.701 8.00206C41.2145 7.42729 42.7663 8.05158 43.4493 8.71773C44.1956 9.44666 43.6009 10.2848 43.6009 10.2848C43.6009 10.2848 44.3002 10.0582 44.5258 9.45381C44.5565 9.37162 44.5932 9.29557 44.6315 9.22768C44.7412 9.03472 44.9092 8.88414 45.1052 8.77949C45.3421 8.65392 45.4926 8.3941 45.171 7.98165C44.7423 7.43341 44.0072 6.35583 43.6754 5.57483C43.3232 5.60444 42.7331 5.56718 42.5008 5.03732C42.4141 4.8413 42.2461 4.21956 42.2461 4.21956L43.5606 5.26243C43.5412 5.19709 43.5279 5.13584 43.5167 5.07918C43.2456 3.74586 41.7923 2.9475 41.7923 2.9475C40.5846 2.06032 39.3901 0.857682 38.6489 0.0200195C38.6489 0.0200195 36.9664 2.84592 39.4646 4.24713C38.1961 3.59476 37.7439 2.85664 37.6811 2.18232C30.6684 0.797448 26.2233 5.47019 24.9018 6.43445C23.2816 7.61667 21.1616 8.63401 19.0248 9.4824C18.4904 9.69321 17.9616 9.90506 17.4429 10.1C17.1841 10.1996 16.9279 10.2971 16.6757 10.3936C16.4241 10.4906 16.1749 10.5789 15.9309 10.6692C15.6875 10.7585 15.4481 10.8463 15.2148 10.9321C14.9815 11.0194 14.7528 11.0944 14.5313 11.173C14.3097 11.2501 14.0948 11.3252 13.8876 11.3976C13.7834 11.4334 13.6819 11.4691 13.5818 11.5038C13.4818 11.5365 13.3838 11.5686 13.2878 11.5998C12.9034 11.7259 12.5532 11.8402 12.2434 11.9413C11.9335 12.0393 11.6645 12.1174 11.443 12.1853C11.0009 12.319 10.7508 12.3946 10.7508 12.3946C10.7508 12.3946 11.0734 12.3257 11.6247 12.2088C11.7625 12.1791 11.9152 12.147 12.08 12.1118C12.2449 12.0781 12.4226 12.0321 12.6119 11.9882C12.8008 11.9433 13.0014 11.8958 13.2117 11.8453C13.422 11.7948 13.6431 11.7458 13.8712 11.6845C14.3276 11.5651 14.8187 11.442 15.3301 11.3037C15.5859 11.2328 15.8467 11.1603 16.1117 11.0868C16.3766 11.0122 16.6461 10.9408 16.9166 10.8601C17.1882 10.78 17.4613 10.7003 17.7354 10.6197C18.01 10.5396 18.2857 10.4589 18.5598 10.3737C18.8339 10.2894 19.108 10.2052 19.3796 10.122C19.5159 10.0801 19.6512 10.0383 19.7859 9.99694C19.9207 9.95457 20.0544 9.91169 20.1872 9.86932C17.4725 10.9867 14.1923 12.243 11.5497 13.0418C11.3848 13.0929 11.2225 13.1429 11.0632 13.1919C10.9836 13.2174 10.9045 13.2404 10.8259 13.2613C10.7478 13.2838 10.6702 13.3052 10.5931 13.3267C10.2858 13.4129 9.99176 13.4951 9.71407 13.5732C9.57472 13.614 9.43893 13.6452 9.30775 13.6773C9.17605 13.71 9.04894 13.7412 8.92643 13.7713C8.6809 13.8315 8.45375 13.8871 8.24752 13.9377C7.41956 14.1082 6.92595 14.2103 6.92595 14.2103C6.92595 14.2103 7.25979 14.171 7.83916 14.1031C7.91164 14.0949 7.98821 14.0857 8.06835 14.0765C8.14849 14.0658 8.23221 14.0587 8.3195 14.0433C8.49408 14.0163 8.68244 13.9867 8.88356 13.955C9.08519 13.9234 9.29907 13.8897 9.52469 13.8545C9.7498 13.8177 9.98564 13.7677 10.2317 13.7223C12.2026 13.3542 14.7993 12.7116 17.3041 11.9668C17.0683 12.0597 16.8314 12.1465 16.5961 12.2348C16.3613 12.3226 16.1275 12.4104 15.8962 12.4967C15.7804 12.5395 15.665 12.5829 15.5507 12.6253C15.4358 12.6661 15.3215 12.707 15.2081 12.7473C14.981 12.8279 14.7574 12.9076 14.5374 12.9857C14.0989 13.1454 13.6722 13.2838 13.2694 13.4191C13.0678 13.4864 12.8723 13.5518 12.6834 13.6146C12.494 13.6763 12.3098 13.7309 12.1336 13.7861C11.7814 13.8953 11.4593 13.9943 11.175 14.0821C10.8876 14.1628 10.6385 14.2322 10.4328 14.2899C10.0219 14.4047 9.78911 14.4696 9.78911 14.4696C9.78911 14.4696 10.0346 14.4226 10.4665 14.3404C10.6824 14.2981 10.9458 14.2501 11.247 14.1893C11.5476 14.1235 11.8871 14.049 12.2582 13.9673C12.443 13.9249 12.638 13.8871 12.8365 13.8361C13.0361 13.7876 13.2429 13.7371 13.4552 13.685C13.6676 13.6329 13.8861 13.5793 14.1096 13.5247C14.3332 13.4691 14.5604 13.4063 14.7921 13.3455C15.2556 13.2215 15.7375 13.0975 16.224 12.9561C16.7109 12.8157 17.2102 12.6804 17.7058 12.5288C17.3388 12.6738 16.9738 12.8091 16.619 12.9413C16.4414 13.0081 16.2668 13.073 16.0948 13.1378C15.9233 13.2016 15.7543 13.2659 15.5879 13.3236C15.2551 13.442 14.9366 13.5553 14.6369 13.6615C14.4874 13.7146 14.3429 13.7682 14.202 13.8152C14.0611 13.8621 13.9259 13.9071 13.7962 13.9504C13.5364 14.0372 13.3006 14.1158 13.0923 14.1853C12.9887 14.2205 12.8917 14.2526 12.8018 14.2828C12.712 14.3108 12.6293 14.3363 12.5548 14.3593C12.2567 14.4507 12.0897 14.5028 12.0897 14.5028C12.0897 14.5028 12.1678 14.4854 12.3128 14.4532C12.4573 14.4206 12.6706 14.3782 12.9361 14.3134C13.2015 14.2485 13.5221 14.1699 13.8861 14.0811C14.0678 14.0352 14.2623 13.9918 14.4629 13.9372C14.664 13.8836 14.8748 13.8279 15.0933 13.7697C15.3123 13.7115 15.5394 13.6513 15.7727 13.589C16.0065 13.5268 16.2439 13.4568 16.4884 13.3879C16.9764 13.2496 17.4863 13.1072 18.0009 12.9505C18.5164 12.7963 19.0427 12.6406 19.5629 12.4757C20.084 12.3129 20.6047 12.1521 21.1085 11.9872C20.9197 12.0648 20.7298 12.1434 20.5399 12.2215C20.3495 12.2986 20.1586 12.3752 19.9687 12.4512C19.5884 12.6033 19.2137 12.758 18.8452 12.9014C18.4766 13.0449 18.1183 13.1842 17.7773 13.3175C17.6915 13.3507 17.6073 13.3833 17.5241 13.416C17.4409 13.4471 17.3582 13.4778 17.277 13.5084C17.1147 13.5691 16.9575 13.6278 16.8064 13.6845C16.5037 13.7973 16.225 13.9014 15.9774 13.9938C15.7278 14.0832 15.5093 14.1608 15.3291 14.2246C14.9682 14.3527 14.76 14.4267 14.76 14.4267C14.76 14.4267 14.9371 14.3802 15.2485 14.2976C15.5588 14.2138 16.0065 14.1005 16.5379 13.9464C16.8043 13.8708 17.0933 13.7891 17.3995 13.7024C17.7068 13.6166 18.0264 13.5166 18.3607 13.418C18.6941 13.3175 19.0417 13.2174 19.3913 13.1072C19.7415 12.9979 20.0983 12.8866 20.4567 12.7749C19.4312 13.1939 18.3658 13.6202 17.3388 14.0127C17.081 14.1102 16.8268 14.2067 16.5767 14.3011C16.4516 14.3486 16.3276 14.3956 16.2046 14.442C16.081 14.4864 15.9585 14.5308 15.837 14.5747C15.5946 14.662 15.3577 14.7473 15.1275 14.83C14.8968 14.9121 14.6752 14.9959 14.4573 15.0673C14.0223 15.2143 13.6206 15.3501 13.2628 15.4711C13.174 15.5022 13.0862 15.5303 13.0014 15.5563C12.9167 15.5824 12.8345 15.6084 12.7559 15.6329C12.5982 15.6824 12.4527 15.7279 12.321 15.7687C12.0581 15.8509 11.8498 15.9162 11.7074 15.9606C11.637 15.9836 11.5808 15.9979 11.5436 16.0091C11.5058 16.0198 11.4864 16.0255 11.4864 16.0255C11.4864 16.0255 11.5037 16.0214 11.5374 16.0152C11.5706 16.0081 11.6217 15.9989 11.6855 15.9841C11.8141 15.9545 12.0035 15.9116 12.2449 15.8565C12.4869 15.8009 12.7819 15.733 13.1209 15.6554C13.4568 15.5706 13.837 15.4747 14.2536 15.3695C14.6053 15.2838 14.9784 15.1806 15.3715 15.0729C12.9106 15.9765 10.5722 16.7692 8.76462 17.3506C8.50122 17.4353 8.24905 17.5165 8.00965 17.5936C7.77025 17.6707 7.5436 17.7437 7.33023 17.8085C6.90349 17.9397 6.5334 18.054 6.22917 18.1479C5.92443 18.2414 5.68706 18.3169 5.52423 18.3639C5.36139 18.4124 5.27512 18.4374 5.27512 18.4374C5.27512 18.4374 5.3864 18.4139 5.59314 18.371C5.79885 18.3266 6.09951 18.2602 6.47878 18.177C6.85754 18.0928 7.31594 17.9948 7.83507 17.8759C8.3537 17.7549 8.9346 17.6196 9.56093 17.4731C10.1857 17.32 10.8565 17.1551 11.5563 16.9831C12.2546 16.8029 12.9825 16.6166 13.7227 16.4211C14.0918 16.3205 14.4644 16.2194 14.8381 16.1173C15.2122 16.0163 15.5879 15.9152 15.9606 15.807C16.7063 15.5926 17.4521 15.3859 18.1724 15.1658C16.325 15.8851 14.2827 16.6538 12.2439 17.3634C11.7365 17.5461 11.2261 17.7156 10.7217 17.8886C10.469 17.9754 10.2179 18.0612 9.96828 18.1459C9.71918 18.2311 9.46956 18.3108 9.2225 18.3925C8.72889 18.5538 8.24395 18.7161 7.7682 18.8687C7.29194 19.0193 6.82743 19.1663 6.3772 19.3082C5.928 19.4532 5.49003 19.5818 5.07145 19.7094C4.65287 19.836 4.25267 19.9596 3.87289 20.0719C3.1118 20.2919 2.43799 20.4909 1.87598 20.6502C0.749905 20.9641 0.0791626 21.151 0.0791626 21.151C0.0791626 21.151 0.535002 21.0642 1.32672 20.9141C1.52478 20.8763 1.74377 20.835 1.98215 20.7896C2.22003 20.7441 2.47679 20.6905 2.7509 20.6354C3.02502 20.5803 3.31649 20.5216 3.62328 20.4593C3.77642 20.4282 3.93364 20.3965 4.09494 20.3638C4.25523 20.3291 4.41908 20.2944 4.58651 20.2587C7.26846 19.6936 10.8008 18.8641 14.2173 17.9305C11.6334 18.8672 9.08315 19.712 7.17556 20.3118C6.22304 20.6175 5.42877 20.8518 4.87543 21.0208C4.59876 21.1045 4.38233 21.1704 4.2343 21.2148C4.08626 21.2582 4.00714 21.2806 4.00714 21.2806C4.00714 21.2806 4.09035 21.2643 4.24655 21.2326C4.40224 21.1995 4.63092 21.151 4.9224 21.0887C5.50534 20.9631 6.34096 20.7885 7.34401 20.5563C9.35165 20.1025 12.0356 19.4486 14.7462 18.7028C14.6206 18.7488 14.4955 18.7947 14.371 18.8401C14.2459 18.885 14.1214 18.9289 13.9978 18.9734C13.7503 19.0606 13.5052 19.1474 13.2638 19.2332C12.7804 19.4047 12.3108 19.5721 11.858 19.7242C11.4057 19.8789 10.9734 20.0264 10.5665 20.1658C10.1592 20.3026 9.77533 20.4266 9.42464 20.5425C9.07345 20.6579 8.75441 20.763 8.47264 20.8554C8.19035 20.9447 7.94584 21.0223 7.74523 21.0856C7.34452 21.2122 7.11941 21.2832 7.11941 21.2832C7.11941 21.2832 7.54105 21.1877 8.26029 21.0249C8.62016 20.9447 9.05201 20.8365 9.5446 20.7201C10.0372 20.6027 10.589 20.4721 11.1816 20.3199C11.4782 20.2454 11.786 20.1678 12.1025 20.0877C12.2608 20.0474 12.421 20.0065 12.5839 19.9652C12.7457 19.9228 12.9101 19.8794 13.076 19.8355C13.7385 19.6574 14.4328 19.4808 15.1341 19.2817C15.8365 19.0862 16.5532 18.8912 17.2638 18.6804C17.619 18.5767 17.9743 18.4736 18.3265 18.371C18.6793 18.2679 19.0274 18.1592 19.3725 18.0556C17.3056 18.8657 15.1474 19.6681 13.4986 20.2444C12.6763 20.54 11.9795 20.7727 11.491 20.9407C11.0025 21.1076 10.7202 21.2041 10.7202 21.2041C10.7202 21.2041 10.9601 21.1438 11.3807 21.0377C11.5915 20.9851 11.8473 20.9208 12.1413 20.8467C12.4353 20.7722 12.7676 20.6895 13.1296 20.5925C13.8524 20.3996 14.7013 20.1816 15.6094 19.9254C15.8365 19.8616 16.0678 19.7977 16.3026 19.7324C16.5369 19.6676 16.7747 19.6022 17.0136 19.5318C17.4919 19.3924 17.9789 19.251 18.4679 19.1086C17.0647 19.6507 15.6094 20.2 14.2097 20.7028C13.5098 20.9529 12.8268 21.2015 12.1694 21.4246C11.5129 21.6512 10.8881 21.8712 10.3031 22.0627C9.71918 22.2561 9.18064 22.4399 8.69877 22.5946C8.21588 22.7492 7.79271 22.885 7.44304 22.9973C7.26795 23.0535 7.11073 23.1035 6.97444 23.1474C6.83713 23.1897 6.72023 23.226 6.62529 23.2551C6.4354 23.3143 6.3333 23.3454 6.3333 23.3454C6.3333 23.3454 6.42468 23.325 6.59619 23.2867C6.76821 23.249 7.02089 23.1928 7.34248 23.1157C7.98566 22.9621 8.91214 22.7523 10.028 22.47C12.2638 21.9177 15.2725 21.1163 18.372 20.1831C19.1489 19.956 19.9263 19.7064 20.7043 19.4659C21.0932 19.347 21.4786 19.2184 21.863 19.0943C22.2479 18.9698 22.6297 18.8457 23.009 18.7227C23.7639 18.468 24.5067 18.2199 25.2244 17.9729C25.5822 17.8473 25.9339 17.7238 26.279 17.6028C26.624 17.4803 26.963 17.3654 27.2907 17.2439C27.4321 17.1924 27.5715 17.1413 27.7098 17.0913C27.745 17.1439 27.7807 17.1949 27.817 17.2414C28.3647 17.9387 32.1288 18.1357 33.6949 18.0433C35.3815 17.9438 43.8403 15.954 43.8403 15.954C43.8403 15.954 45.0562 16.0985 45.5723 16.1398C45.6881 16.1495 45.7999 16.0985 45.8704 16.0055L46.0164 15.8111C46.0164 15.8111 46.5672 15.9438 46.3349 16.6896C46.3349 16.6896 47.1343 16.078 46.9934 15.5298C47.0281 15.5461 47.0638 15.564 47.1011 15.5854C47.7984 15.9979 47.1368 16.6416 47.1368 16.6416C47.1368 16.6416 48.2078 16.223 47.9893 15.2077Z" stroke="#145E94" stroke-width="2" mask="url(#path-1-inside-1_65_64)"/>
<path d="M36.1242 19.9354L36.3735 19.3188L36.3734 19.3188L36.3732 19.3187L36.3723 19.3183L36.3686 19.3168L36.3542 19.311L36.2978 19.2882L36.0813 19.2008C35.8936 19.125 35.6224 19.0155 35.2885 18.881C35.2505 18.8657 35.2116 18.85 35.1719 18.834C35.476 18.8004 35.7855 18.7661 36.095 18.7317C36.2227 18.7923 36.3497 18.8514 36.4748 18.9075M36.4748 18.9075C36.4747 18.9074 36.4745 18.9074 36.4744 18.9073L36.7475 18.3009L36.4752 18.9077C36.4751 18.9076 36.475 18.9075 36.4748 18.9075Z" fill="#145E94" stroke="#145E94" stroke-width="1.33013"/>
</svg>
