<svg width="49" height="24" viewBox="0 0 49 24" fill="none" xmlns="http://www.w3.org/2000/svg">
<mask id="path-1-inside-1_65_89" fill="white">
<path d="M48.1692 15.7659C47.9431 14.7169 46.1647 14.6215 46.1647 14.6215C45.179 14.8308 44.4878 14.4979 43.6318 14.623C37.642 15.4984 34.5737 14.9997 34.5737 14.9997C35.2985 13.2366 36.8355 9.41888 37.9187 9.29893C39.1249 9.1657 40.3449 11.9155 41.1545 11.9354C41.3949 11.9416 41.7461 11.4132 41.7461 11.4132C42.5414 11.2198 42.669 10.6486 42.669 10.6486C41.813 11.1932 40.3715 9.13047 40.8809 8.56029C41.3944 7.98552 42.9462 8.60981 43.6292 9.27596C44.3755 10.0049 43.7808 10.8431 43.7808 10.8431C43.7808 10.8431 44.4801 10.6164 44.7058 10.012C44.7364 9.92985 44.7731 9.85379 44.8114 9.7859C44.9212 9.59295 45.0891 9.44236 45.2851 9.33772C45.522 9.21215 45.6726 8.95232 45.351 8.53987C44.9222 7.99164 44.1871 6.91406 43.8553 6.13306C43.5031 6.16267 42.913 6.1254 42.6808 5.59555C42.594 5.39953 42.4261 4.77779 42.4261 4.77779L43.7405 5.82066C43.7211 5.75532 43.7078 5.69407 43.6966 5.6374C43.4255 4.30409 41.9723 3.50573 41.9723 3.50573C40.7645 2.61855 39.57 1.41591 38.8288 0.578247C38.8288 0.578247 37.1464 3.40415 39.6446 4.80536C38.3761 4.15299 37.9238 3.41487 37.861 2.74055C30.8483 1.35568 26.4033 6.02842 25.0817 6.99267C23.4615 8.1749 21.3416 9.19224 19.2048 10.0406C18.6703 10.2514 18.1415 10.4633 17.6229 10.6583C17.3641 10.7578 17.1078 10.8553 16.8556 10.9518C16.604 11.0488 16.3549 11.1371 16.1109 11.2274C15.8674 11.3168 15.628 11.4046 15.3947 11.4903C15.1614 11.5776 14.9327 11.6527 14.7112 11.7313C14.4897 11.8083 14.2748 11.8834 14.0675 11.9559C13.9634 11.9916 13.8618 12.0273 13.7618 12.062C13.6617 12.0947 13.5637 12.1269 13.4677 12.158C13.0834 12.2841 12.7332 12.3984 12.4233 12.4995C12.1135 12.5975 11.8445 12.6756 11.6229 12.7435C11.1809 12.8772 10.9307 12.9528 10.9307 12.9528C10.9307 12.9528 11.2534 12.8839 11.8047 12.767C11.9425 12.7374 12.0951 12.7052 12.26 12.67C12.4249 12.6363 12.6025 12.5904 12.7919 12.5465C12.9807 12.5015 13.1814 12.4541 13.3917 12.4035C13.602 12.353 13.823 12.304 14.0512 12.2427C14.5075 12.1233 14.9986 12.0003 15.5101 11.8619C15.7658 11.791 16.0267 11.7185 16.2916 11.645C16.5565 11.5705 16.826 11.499 17.0966 11.4184C17.3681 11.3382 17.6412 11.2586 17.9154 11.1779C18.19 11.0978 18.4656 11.0171 18.7397 10.9319C19.0139 10.8477 19.288 10.7634 19.5595 10.6802C19.6958 10.6384 19.8311 10.5965 19.9659 10.5552C20.1006 10.5128 20.2344 10.4699 20.3671 10.4276C17.6525 11.5449 14.3723 12.8012 11.7296 13.6001C11.5647 13.6511 11.4024 13.7011 11.2431 13.7501C11.1635 13.7757 11.0844 13.7986 11.0058 13.8195C10.9277 13.842 10.8501 13.8634 10.773 13.8849C10.4657 13.9712 10.1717 14.0533 9.894 14.1314C9.75465 14.1723 9.61887 14.2034 9.48768 14.2356C9.35598 14.2682 9.22888 14.2994 9.10637 14.3295C8.86084 14.3897 8.63368 14.4454 8.42746 14.4959C7.59949 14.6664 7.10588 14.7685 7.10588 14.7685C7.10588 14.7685 7.43972 14.7292 8.01909 14.6613C8.09157 14.6531 8.16814 14.6439 8.24828 14.6348C8.32843 14.624 8.41214 14.6169 8.49943 14.6016C8.67401 14.5745 8.86237 14.5449 9.06349 14.5133C9.26512 14.4816 9.479 14.4479 9.70462 14.4127C9.92974 14.3759 10.1656 14.3259 10.4116 14.2805C12.3825 13.9125 14.9792 13.2698 17.484 12.525C17.2482 12.6179 17.0113 12.7047 16.776 12.793C16.5412 12.8808 16.3074 12.9686 16.0762 13.0549C15.9603 13.0978 15.8449 13.1411 15.7306 13.1835C15.6157 13.2244 15.5014 13.2652 15.3881 13.3055C15.1609 13.3862 14.9373 13.4658 14.7173 13.5439C14.2788 13.7037 13.8521 13.842 13.4493 13.9773C13.2477 14.0447 13.0522 14.11 12.8633 14.1728C12.674 14.2346 12.4897 14.2892 12.3136 14.3443C11.9614 14.4535 11.6393 14.5526 11.3549 14.6404C11.0675 14.721 10.8184 14.7904 10.6127 14.8481C10.2018 14.963 9.96904 15.0278 9.96904 15.0278C9.96904 15.0278 10.2146 14.9808 10.6464 14.8987C10.8623 14.8563 11.1257 14.8083 11.4269 14.7476C11.7276 14.6817 12.067 14.6072 12.4381 14.5255C12.6229 14.4831 12.8179 14.4454 13.0165 14.3943C13.2161 14.3458 13.4228 14.2953 13.6352 14.2432C13.8475 14.1912 14.066 14.1376 14.2896 14.0829C14.5131 14.0273 14.7403 13.9645 14.972 13.9038C15.4355 13.7797 15.9174 13.6557 16.4039 13.5143C16.8909 13.3739 17.3901 13.2386 17.8857 13.087C17.5187 13.232 17.1537 13.3673 16.799 13.4995C16.6213 13.5664 16.4468 13.6312 16.2747 13.696C16.1032 13.7598 15.9343 13.8241 15.7679 13.8818C15.435 14.0003 15.1165 14.1136 14.8169 14.2197C14.6673 14.2728 14.5228 14.3264 14.382 14.3734C14.2411 14.4204 14.1058 14.4653 13.9761 14.5087C13.7163 14.5954 13.4805 14.6741 13.2722 14.7435C13.1686 14.7787 13.0716 14.8109 12.9818 14.841C12.8919 14.8691 12.8092 14.8946 12.7347 14.9175C12.4366 15.0089 12.2697 15.061 12.2697 15.061C12.2697 15.061 12.3478 15.0436 12.4927 15.0115C12.6372 14.9788 12.8506 14.9364 13.116 14.8716C13.3815 14.8068 13.702 14.7282 14.066 14.6393C14.2477 14.5934 14.4422 14.55 14.6428 14.4954C14.8439 14.4418 15.0547 14.3862 15.2732 14.328C15.4922 14.2698 15.7194 14.2095 15.9526 14.1473C16.1864 14.085 16.4238 14.0151 16.6683 13.9461C17.1563 13.8078 17.6662 13.6654 18.1808 13.5087C18.6964 13.3545 19.2226 13.1988 19.7428 13.034C20.264 12.8711 20.7846 12.7103 21.2885 12.5454C21.0996 12.623 20.9097 12.7016 20.7198 12.7797C20.5294 12.8568 20.3385 12.9334 20.1486 13.0095C19.7683 13.1616 19.3936 13.3162 19.0251 13.4597C18.6565 13.6031 18.2982 13.7425 17.9572 13.8757C17.8715 13.9089 17.7872 13.9415 17.704 13.9742C17.6208 14.0054 17.5381 14.036 17.457 14.0666C17.2946 14.1274 17.1374 14.1861 16.9863 14.2427C16.6836 14.3555 16.4049 14.4597 16.1573 14.5521C15.9077 14.6414 15.6892 14.719 15.5091 14.7828C15.1482 14.9109 14.9399 14.9849 14.9399 14.9849C14.9399 14.9849 15.117 14.9385 15.4284 14.8558C15.7388 14.7721 16.1864 14.6587 16.7178 14.5046C16.9843 14.429 17.2732 14.3474 17.5795 14.2606C17.8868 14.1748 18.2063 14.0748 18.5407 13.9763C18.874 13.8757 19.2216 13.7757 19.5713 13.6654C19.9215 13.5562 20.2783 13.4449 20.6366 13.3331C19.6111 13.7522 18.5458 14.1784 17.5187 14.5709C17.2609 14.6684 17.0067 14.7649 16.7566 14.8594C16.6315 14.9068 16.5075 14.9538 16.3845 15.0002C16.261 15.0447 16.1384 15.0891 16.017 15.133C15.7745 15.2202 15.5376 15.3055 15.3074 15.3882C15.0767 15.4704 14.8552 15.5541 14.6372 15.6256C14.2023 15.7726 13.8005 15.9083 13.4427 16.0293C13.3539 16.0605 13.2661 16.0885 13.1814 16.1146C13.0966 16.1406 13.0144 16.1666 12.9358 16.1911C12.7781 16.2407 12.6326 16.2861 12.5009 16.3269C12.238 16.4091 12.0298 16.4744 11.8873 16.5189C11.8169 16.5418 11.7608 16.5561 11.7235 16.5673C11.6857 16.5781 11.6663 16.5837 11.6663 16.5837C11.6663 16.5837 11.6837 16.5796 11.7174 16.5735C11.7505 16.5663 11.8016 16.5571 11.8654 16.5423C11.994 16.5127 12.1834 16.4699 12.4249 16.4147C12.6668 16.3591 12.9619 16.2912 13.3008 16.2136C13.6367 16.1289 14.017 16.0329 14.4335 15.9277C14.7852 15.842 15.1584 15.7389 15.5514 15.6312C13.0905 16.5347 10.7521 17.3274 8.94455 17.9088C8.68115 17.9936 8.42899 18.0747 8.18958 18.1518C7.95018 18.2289 7.72353 18.3019 7.51016 18.3667C7.08342 18.4979 6.71334 18.6122 6.4091 18.7062C6.10436 18.7996 5.86699 18.8751 5.70416 18.9221C5.54132 18.9706 5.45505 18.9956 5.45505 18.9956C5.45505 18.9956 5.56633 18.9721 5.77307 18.9292C5.97879 18.8848 6.27945 18.8185 6.65872 18.7353C7.03748 18.651 7.49587 18.553 8.01501 18.4341C8.53363 18.3131 9.11453 18.1778 9.74087 18.0313C10.3657 17.8782 11.0364 17.7133 11.7362 17.5413C12.4346 17.3611 13.1625 17.1748 13.9026 16.9793C14.2717 16.8787 14.6443 16.7777 15.018 16.6756C15.3922 16.5745 15.7679 16.4734 16.1405 16.3652C16.8863 16.1508 17.632 15.9441 18.3523 15.7241C16.505 16.4433 14.4626 17.2121 12.4238 17.9216C11.9164 18.1043 11.406 18.2738 10.9016 18.4469C10.649 18.5336 10.3978 18.6194 10.1482 18.7041C9.89911 18.7894 9.64949 18.869 9.40243 18.9507C8.90882 19.112 8.42388 19.2743 7.94813 19.4269C7.47188 19.5775 7.00736 19.7245 6.55713 19.8664C6.10793 20.0114 5.66996 20.1401 5.25138 20.2677C4.8328 20.3943 4.43261 20.5178 4.05282 20.6301C3.29173 20.8501 2.61792 21.0492 2.05591 21.2084C0.929837 21.5224 0.259094 21.7092 0.259094 21.7092C0.259094 21.7092 0.714934 21.6224 1.50666 21.4723C1.70471 21.4346 1.9237 21.3932 2.16208 21.3478C2.39996 21.3024 2.65672 21.2488 2.93084 21.1936C3.20495 21.1385 3.49642 21.0798 3.80321 21.0175C3.95635 20.9864 4.11357 20.9547 4.27487 20.9221C4.43516 20.8874 4.59901 20.8527 4.76645 20.8169C7.4484 20.2518 10.9808 19.4223 14.3973 18.4887C11.8133 19.4254 9.26308 20.2702 7.35549 20.87C6.40298 21.1758 5.6087 21.4101 5.05537 21.579C4.7787 21.6627 4.56226 21.7286 4.41423 21.773C4.2662 21.8164 4.18707 21.8389 4.18707 21.8389C4.18707 21.8389 4.27028 21.8225 4.42648 21.7909C4.58217 21.7577 4.81085 21.7092 5.10233 21.6469C5.68527 21.5214 6.52089 21.3468 7.52394 21.1145C9.53158 20.6607 12.2156 20.0068 14.9261 19.261C14.8005 19.307 14.6755 19.3529 14.5509 19.3984C14.4259 19.4433 14.3013 19.4872 14.1778 19.5316C13.9302 19.6189 13.6852 19.7057 13.4437 19.7914C12.9603 19.9629 12.4907 20.1304 12.0379 20.2825C11.5857 20.4371 11.1533 20.5847 10.7465 20.724C10.3391 20.8608 9.95526 20.9849 9.60457 21.1007C9.25338 21.2161 8.93434 21.3213 8.65257 21.4136C8.37028 21.503 8.12577 21.5806 7.92516 21.6439C7.52445 21.7705 7.29934 21.8414 7.29934 21.8414C7.29934 21.8414 7.72098 21.746 8.44022 21.5831C8.80009 21.503 9.23194 21.3948 9.72453 21.2784C10.2171 21.161 10.7689 21.0303 11.3616 20.8782C11.6581 20.8036 11.966 20.7261 12.2824 20.6459C12.4407 20.6056 12.601 20.5648 12.7638 20.5234C12.9256 20.481 13.09 20.4376 13.2559 20.3937C13.9185 20.2156 14.6127 20.039 15.3141 19.8399C16.0164 19.6444 16.7331 19.4494 17.4437 19.2386C17.799 19.135 18.1542 19.0318 18.5065 18.9292C18.8592 18.8261 19.2073 18.7174 19.5524 18.6138C17.4855 19.4239 15.3273 20.2263 13.6785 20.8026C12.8562 21.0982 12.1594 21.331 11.6709 21.4989C11.1824 21.6658 10.9001 21.7623 10.9001 21.7623C10.9001 21.7623 11.14 21.7021 11.5607 21.5959C11.7715 21.5433 12.0272 21.479 12.3212 21.405C12.6153 21.3304 12.9476 21.2477 13.3095 21.1508C14.0323 20.9578 14.8812 20.7398 15.7893 20.4836C16.0164 20.4198 16.2477 20.356 16.4825 20.2906C16.7168 20.2258 16.9547 20.1605 17.1936 20.09C17.6719 19.9507 18.1588 19.8093 18.6479 19.6669C17.2446 20.209 15.7893 20.7582 14.3896 21.261C13.6898 21.5111 13.0068 21.7597 12.3493 21.9828C11.6929 22.2095 11.0681 22.4295 10.4831 22.6209C9.89911 22.8143 9.36057 22.9981 8.8787 23.1528C8.39581 23.3074 7.97264 23.4432 7.62297 23.5555C7.44789 23.6117 7.29066 23.6617 7.15437 23.7056C7.01706 23.748 6.90016 23.7842 6.80522 23.8133C6.61533 23.8725 6.51324 23.9037 6.51324 23.9037C6.51324 23.9037 6.60461 23.8832 6.77612 23.845C6.94815 23.8072 7.20082 23.751 7.52241 23.674C8.16559 23.5203 9.09207 23.3105 10.2079 23.0282C12.4437 22.4759 15.4524 21.6745 18.5519 20.7414C19.3288 20.5142 20.1062 20.2646 20.8842 20.0242C21.2732 19.9052 21.6585 19.7766 22.0429 19.6526C22.4278 19.528 22.8096 19.404 23.1889 19.2809C23.9439 19.0262 24.6866 18.7781 25.4043 18.5311C25.7621 18.4055 26.1138 18.282 26.4589 18.161C26.804 18.0385 27.1429 17.9236 27.4706 17.8021C27.612 17.7506 27.7514 17.6995 27.8897 17.6495C27.9249 17.7021 27.9607 17.7531 27.9969 17.7996C28.5446 18.4969 32.3088 18.6939 33.8748 18.6015C35.5614 18.502 44.0202 16.5122 44.0202 16.5122C44.0202 16.5122 45.2361 16.6567 45.7522 16.698C45.8681 16.7077 45.9799 16.6567 46.0503 16.5638L46.1963 16.3693C46.1963 16.3693 46.7471 16.502 46.5148 17.2478C46.5148 17.2478 47.3142 16.6363 47.1733 16.088C47.208 16.1044 47.2438 16.1222 47.281 16.1437C47.9783 16.5561 47.3168 17.1998 47.3168 17.1998C47.3168 17.1998 48.3877 16.7812 48.1692 15.7659Z"/>
</mask>
<path d="M48.1692 15.7659C47.9431 14.7169 46.1647 14.6215 46.1647 14.6215C45.179 14.8308 44.4878 14.4979 43.6318 14.623C37.642 15.4984 34.5737 14.9997 34.5737 14.9997C35.2985 13.2366 36.8355 9.41888 37.9187 9.29893C39.1249 9.1657 40.3449 11.9155 41.1545 11.9354C41.3949 11.9416 41.7461 11.4132 41.7461 11.4132C42.5414 11.2198 42.669 10.6486 42.669 10.6486C41.813 11.1932 40.3715 9.13047 40.8809 8.56029C41.3944 7.98552 42.9462 8.60981 43.6292 9.27596C44.3755 10.0049 43.7808 10.8431 43.7808 10.8431C43.7808 10.8431 44.4801 10.6164 44.7058 10.012C44.7364 9.92985 44.7731 9.85379 44.8114 9.7859C44.9212 9.59295 45.0891 9.44236 45.2851 9.33772C45.522 9.21215 45.6726 8.95232 45.351 8.53987C44.9222 7.99164 44.1871 6.91406 43.8553 6.13306C43.5031 6.16267 42.913 6.1254 42.6808 5.59555C42.594 5.39953 42.4261 4.77779 42.4261 4.77779L43.7405 5.82066C43.7211 5.75532 43.7078 5.69407 43.6966 5.6374C43.4255 4.30409 41.9723 3.50573 41.9723 3.50573C40.7645 2.61855 39.57 1.41591 38.8288 0.578247C38.8288 0.578247 37.1464 3.40415 39.6446 4.80536C38.3761 4.15299 37.9238 3.41487 37.861 2.74055C30.8483 1.35568 26.4033 6.02842 25.0817 6.99267C23.4615 8.1749 21.3416 9.19224 19.2048 10.0406C18.6703 10.2514 18.1415 10.4633 17.6229 10.6583C17.3641 10.7578 17.1078 10.8553 16.8556 10.9518C16.604 11.0488 16.3549 11.1371 16.1109 11.2274C15.8674 11.3168 15.628 11.4046 15.3947 11.4903C15.1614 11.5776 14.9327 11.6527 14.7112 11.7313C14.4897 11.8083 14.2748 11.8834 14.0675 11.9559C13.9634 11.9916 13.8618 12.0273 13.7618 12.062C13.6617 12.0947 13.5637 12.1269 13.4677 12.158C13.0834 12.2841 12.7332 12.3984 12.4233 12.4995C12.1135 12.5975 11.8445 12.6756 11.6229 12.7435C11.1809 12.8772 10.9307 12.9528 10.9307 12.9528C10.9307 12.9528 11.2534 12.8839 11.8047 12.767C11.9425 12.7374 12.0951 12.7052 12.26 12.67C12.4249 12.6363 12.6025 12.5904 12.7919 12.5465C12.9807 12.5015 13.1814 12.4541 13.3917 12.4035C13.602 12.353 13.823 12.304 14.0512 12.2427C14.5075 12.1233 14.9986 12.0003 15.5101 11.8619C15.7658 11.791 16.0267 11.7185 16.2916 11.645C16.5565 11.5705 16.826 11.499 17.0966 11.4184C17.3681 11.3382 17.6412 11.2586 17.9154 11.1779C18.19 11.0978 18.4656 11.0171 18.7397 10.9319C19.0139 10.8477 19.288 10.7634 19.5595 10.6802C19.6958 10.6384 19.8311 10.5965 19.9659 10.5552C20.1006 10.5128 20.2344 10.4699 20.3671 10.4276C17.6525 11.5449 14.3723 12.8012 11.7296 13.6001C11.5647 13.6511 11.4024 13.7011 11.2431 13.7501C11.1635 13.7757 11.0844 13.7986 11.0058 13.8195C10.9277 13.842 10.8501 13.8634 10.773 13.8849C10.4657 13.9712 10.1717 14.0533 9.894 14.1314C9.75465 14.1723 9.61887 14.2034 9.48768 14.2356C9.35598 14.2682 9.22888 14.2994 9.10637 14.3295C8.86084 14.3897 8.63368 14.4454 8.42746 14.4959C7.59949 14.6664 7.10588 14.7685 7.10588 14.7685C7.10588 14.7685 7.43972 14.7292 8.01909 14.6613C8.09157 14.6531 8.16814 14.6439 8.24828 14.6348C8.32843 14.624 8.41214 14.6169 8.49943 14.6016C8.67401 14.5745 8.86237 14.5449 9.06349 14.5133C9.26512 14.4816 9.479 14.4479 9.70462 14.4127C9.92974 14.3759 10.1656 14.3259 10.4116 14.2805C12.3825 13.9125 14.9792 13.2698 17.484 12.525C17.2482 12.6179 17.0113 12.7047 16.776 12.793C16.5412 12.8808 16.3074 12.9686 16.0762 13.0549C15.9603 13.0978 15.8449 13.1411 15.7306 13.1835C15.6157 13.2244 15.5014 13.2652 15.3881 13.3055C15.1609 13.3862 14.9373 13.4658 14.7173 13.5439C14.2788 13.7037 13.8521 13.842 13.4493 13.9773C13.2477 14.0447 13.0522 14.11 12.8633 14.1728C12.674 14.2346 12.4897 14.2892 12.3136 14.3443C11.9614 14.4535 11.6393 14.5526 11.3549 14.6404C11.0675 14.721 10.8184 14.7904 10.6127 14.8481C10.2018 14.963 9.96904 15.0278 9.96904 15.0278C9.96904 15.0278 10.2146 14.9808 10.6464 14.8987C10.8623 14.8563 11.1257 14.8083 11.4269 14.7476C11.7276 14.6817 12.067 14.6072 12.4381 14.5255C12.6229 14.4831 12.8179 14.4454 13.0165 14.3943C13.2161 14.3458 13.4228 14.2953 13.6352 14.2432C13.8475 14.1912 14.066 14.1376 14.2896 14.0829C14.5131 14.0273 14.7403 13.9645 14.972 13.9038C15.4355 13.7797 15.9174 13.6557 16.4039 13.5143C16.8909 13.3739 17.3901 13.2386 17.8857 13.087C17.5187 13.232 17.1537 13.3673 16.799 13.4995C16.6213 13.5664 16.4468 13.6312 16.2747 13.696C16.1032 13.7598 15.9343 13.8241 15.7679 13.8818C15.435 14.0003 15.1165 14.1136 14.8169 14.2197C14.6673 14.2728 14.5228 14.3264 14.382 14.3734C14.2411 14.4204 14.1058 14.4653 13.9761 14.5087C13.7163 14.5954 13.4805 14.6741 13.2722 14.7435C13.1686 14.7787 13.0716 14.8109 12.9818 14.841C12.8919 14.8691 12.8092 14.8946 12.7347 14.9175C12.4366 15.0089 12.2697 15.061 12.2697 15.061C12.2697 15.061 12.3478 15.0436 12.4927 15.0115C12.6372 14.9788 12.8506 14.9364 13.116 14.8716C13.3815 14.8068 13.702 14.7282 14.066 14.6393C14.2477 14.5934 14.4422 14.55 14.6428 14.4954C14.8439 14.4418 15.0547 14.3862 15.2732 14.328C15.4922 14.2698 15.7194 14.2095 15.9526 14.1473C16.1864 14.085 16.4238 14.0151 16.6683 13.9461C17.1563 13.8078 17.6662 13.6654 18.1808 13.5087C18.6964 13.3545 19.2226 13.1988 19.7428 13.034C20.264 12.8711 20.7846 12.7103 21.2885 12.5454C21.0996 12.623 20.9097 12.7016 20.7198 12.7797C20.5294 12.8568 20.3385 12.9334 20.1486 13.0095C19.7683 13.1616 19.3936 13.3162 19.0251 13.4597C18.6565 13.6031 18.2982 13.7425 17.9572 13.8757C17.8715 13.9089 17.7872 13.9415 17.704 13.9742C17.6208 14.0054 17.5381 14.036 17.457 14.0666C17.2946 14.1274 17.1374 14.1861 16.9863 14.2427C16.6836 14.3555 16.4049 14.4597 16.1573 14.5521C15.9077 14.6414 15.6892 14.719 15.5091 14.7828C15.1482 14.9109 14.9399 14.9849 14.9399 14.9849C14.9399 14.9849 15.117 14.9385 15.4284 14.8558C15.7388 14.7721 16.1864 14.6587 16.7178 14.5046C16.9843 14.429 17.2732 14.3474 17.5795 14.2606C17.8868 14.1748 18.2063 14.0748 18.5407 13.9763C18.874 13.8757 19.2216 13.7757 19.5713 13.6654C19.9215 13.5562 20.2783 13.4449 20.6366 13.3331C19.6111 13.7522 18.5458 14.1784 17.5187 14.5709C17.2609 14.6684 17.0067 14.7649 16.7566 14.8594C16.6315 14.9068 16.5075 14.9538 16.3845 15.0002C16.261 15.0447 16.1384 15.0891 16.017 15.133C15.7745 15.2202 15.5376 15.3055 15.3074 15.3882C15.0767 15.4704 14.8552 15.5541 14.6372 15.6256C14.2023 15.7726 13.8005 15.9083 13.4427 16.0293C13.3539 16.0605 13.2661 16.0885 13.1814 16.1146C13.0966 16.1406 13.0144 16.1666 12.9358 16.1911C12.7781 16.2407 12.6326 16.2861 12.5009 16.3269C12.238 16.4091 12.0298 16.4744 11.8873 16.5189C11.8169 16.5418 11.7608 16.5561 11.7235 16.5673C11.6857 16.5781 11.6663 16.5837 11.6663 16.5837C11.6663 16.5837 11.6837 16.5796 11.7174 16.5735C11.7505 16.5663 11.8016 16.5571 11.8654 16.5423C11.994 16.5127 12.1834 16.4699 12.4249 16.4147C12.6668 16.3591 12.9619 16.2912 13.3008 16.2136C13.6367 16.1289 14.017 16.0329 14.4335 15.9277C14.7852 15.842 15.1584 15.7389 15.5514 15.6312C13.0905 16.5347 10.7521 17.3274 8.94455 17.9088C8.68115 17.9936 8.42899 18.0747 8.18958 18.1518C7.95018 18.2289 7.72353 18.3019 7.51016 18.3667C7.08342 18.4979 6.71334 18.6122 6.4091 18.7062C6.10436 18.7996 5.86699 18.8751 5.70416 18.9221C5.54132 18.9706 5.45505 18.9956 5.45505 18.9956C5.45505 18.9956 5.56633 18.9721 5.77307 18.9292C5.97879 18.8848 6.27945 18.8185 6.65872 18.7353C7.03748 18.651 7.49587 18.553 8.01501 18.4341C8.53363 18.3131 9.11453 18.1778 9.74087 18.0313C10.3657 17.8782 11.0364 17.7133 11.7362 17.5413C12.4346 17.3611 13.1625 17.1748 13.9026 16.9793C14.2717 16.8787 14.6443 16.7777 15.018 16.6756C15.3922 16.5745 15.7679 16.4734 16.1405 16.3652C16.8863 16.1508 17.632 15.9441 18.3523 15.7241C16.505 16.4433 14.4626 17.2121 12.4238 17.9216C11.9164 18.1043 11.406 18.2738 10.9016 18.4469C10.649 18.5336 10.3978 18.6194 10.1482 18.7041C9.89911 18.7894 9.64949 18.869 9.40243 18.9507C8.90882 19.112 8.42388 19.2743 7.94813 19.4269C7.47188 19.5775 7.00736 19.7245 6.55713 19.8664C6.10793 20.0114 5.66996 20.1401 5.25138 20.2677C4.8328 20.3943 4.43261 20.5178 4.05282 20.6301C3.29173 20.8501 2.61792 21.0492 2.05591 21.2084C0.929837 21.5224 0.259094 21.7092 0.259094 21.7092C0.259094 21.7092 0.714934 21.6224 1.50666 21.4723C1.70471 21.4346 1.9237 21.3932 2.16208 21.3478C2.39996 21.3024 2.65672 21.2488 2.93084 21.1936C3.20495 21.1385 3.49642 21.0798 3.80321 21.0175C3.95635 20.9864 4.11357 20.9547 4.27487 20.9221C4.43516 20.8874 4.59901 20.8527 4.76645 20.8169C7.4484 20.2518 10.9808 19.4223 14.3973 18.4887C11.8133 19.4254 9.26308 20.2702 7.35549 20.87C6.40298 21.1758 5.6087 21.4101 5.05537 21.579C4.7787 21.6627 4.56226 21.7286 4.41423 21.773C4.2662 21.8164 4.18707 21.8389 4.18707 21.8389C4.18707 21.8389 4.27028 21.8225 4.42648 21.7909C4.58217 21.7577 4.81085 21.7092 5.10233 21.6469C5.68527 21.5214 6.52089 21.3468 7.52394 21.1145C9.53158 20.6607 12.2156 20.0068 14.9261 19.261C14.8005 19.307 14.6755 19.3529 14.5509 19.3984C14.4259 19.4433 14.3013 19.4872 14.1778 19.5316C13.9302 19.6189 13.6852 19.7057 13.4437 19.7914C12.9603 19.9629 12.4907 20.1304 12.0379 20.2825C11.5857 20.4371 11.1533 20.5847 10.7465 20.724C10.3391 20.8608 9.95526 20.9849 9.60457 21.1007C9.25338 21.2161 8.93434 21.3213 8.65257 21.4136C8.37028 21.503 8.12577 21.5806 7.92516 21.6439C7.52445 21.7705 7.29934 21.8414 7.29934 21.8414C7.29934 21.8414 7.72098 21.746 8.44022 21.5831C8.80009 21.503 9.23194 21.3948 9.72453 21.2784C10.2171 21.161 10.7689 21.0303 11.3616 20.8782C11.6581 20.8036 11.966 20.7261 12.2824 20.6459C12.4407 20.6056 12.601 20.5648 12.7638 20.5234C12.9256 20.481 13.09 20.4376 13.2559 20.3937C13.9185 20.2156 14.6127 20.039 15.3141 19.8399C16.0164 19.6444 16.7331 19.4494 17.4437 19.2386C17.799 19.135 18.1542 19.0318 18.5065 18.9292C18.8592 18.8261 19.2073 18.7174 19.5524 18.6138C17.4855 19.4239 15.3273 20.2263 13.6785 20.8026C12.8562 21.0982 12.1594 21.331 11.6709 21.4989C11.1824 21.6658 10.9001 21.7623 10.9001 21.7623C10.9001 21.7623 11.14 21.7021 11.5607 21.5959C11.7715 21.5433 12.0272 21.479 12.3212 21.405C12.6153 21.3304 12.9476 21.2477 13.3095 21.1508C14.0323 20.9578 14.8812 20.7398 15.7893 20.4836C16.0164 20.4198 16.2477 20.356 16.4825 20.2906C16.7168 20.2258 16.9547 20.1605 17.1936 20.09C17.6719 19.9507 18.1588 19.8093 18.6479 19.6669C17.2446 20.209 15.7893 20.7582 14.3896 21.261C13.6898 21.5111 13.0068 21.7597 12.3493 21.9828C11.6929 22.2095 11.0681 22.4295 10.4831 22.6209C9.89911 22.8143 9.36057 22.9981 8.8787 23.1528C8.39581 23.3074 7.97264 23.4432 7.62297 23.5555C7.44789 23.6117 7.29066 23.6617 7.15437 23.7056C7.01706 23.748 6.90016 23.7842 6.80522 23.8133C6.61533 23.8725 6.51324 23.9037 6.51324 23.9037C6.51324 23.9037 6.60461 23.8832 6.77612 23.845C6.94815 23.8072 7.20082 23.751 7.52241 23.674C8.16559 23.5203 9.09207 23.3105 10.2079 23.0282C12.4437 22.4759 15.4524 21.6745 18.5519 20.7414C19.3288 20.5142 20.1062 20.2646 20.8842 20.0242C21.2732 19.9052 21.6585 19.7766 22.0429 19.6526C22.4278 19.528 22.8096 19.404 23.1889 19.2809C23.9439 19.0262 24.6866 18.7781 25.4043 18.5311C25.7621 18.4055 26.1138 18.282 26.4589 18.161C26.804 18.0385 27.1429 17.9236 27.4706 17.8021C27.612 17.7506 27.7514 17.6995 27.8897 17.6495C27.9249 17.7021 27.9607 17.7531 27.9969 17.7996C28.5446 18.4969 32.3088 18.6939 33.8748 18.6015C35.5614 18.502 44.0202 16.5122 44.0202 16.5122C44.0202 16.5122 45.2361 16.6567 45.7522 16.698C45.8681 16.7077 45.9799 16.6567 46.0503 16.5638L46.1963 16.3693C46.1963 16.3693 46.7471 16.502 46.5148 17.2478C46.5148 17.2478 47.3142 16.6363 47.1733 16.088C47.208 16.1044 47.2438 16.1222 47.281 16.1437C47.9783 16.5561 47.3168 17.1998 47.3168 17.1998C47.3168 17.1998 48.3877 16.7812 48.1692 15.7659Z" stroke="white" stroke-width="2" mask="url(#path-1-inside-1_65_89)"/>
<path d="M36.3042 20.4936L36.5534 19.877L36.5534 19.877L36.5531 19.8769L36.5522 19.8765L36.5486 19.8751L36.5342 19.8692L36.4777 19.8464L36.2613 19.759C36.0735 19.6832 35.8023 19.5738 35.4685 19.4392C35.4304 19.4239 35.3915 19.4082 35.3519 19.3922C35.6559 19.3587 35.9655 19.3244 36.2749 19.29C36.4027 19.3506 36.5296 19.4096 36.6547 19.4657M36.6547 19.4657C36.6546 19.4656 36.6545 19.4656 36.6543 19.4655L36.9274 18.8591L36.6552 19.4659C36.655 19.4658 36.6549 19.4658 36.6547 19.4657Z" fill="#210C0C" stroke="white" stroke-width="1.33013"/>
</svg>
