<svg xmlns="http://www.w3.org/2000/svg" width="49" height="24" viewBox="0 0 49 24" fill="none">

<path d="M48.1694 15.7659C47.9433 14.7169 46.1648 14.6215 46.1648 14.6215C45.1791 14.8308 44.488 14.4979 43.6319 14.623C37.6422 15.4984 34.5738 14.9997 34.5738 14.9997C35.2987 13.2366 36.8357 9.41888 37.9189 9.29893C39.1251 9.1657 40.3451 11.9155 41.1547 11.9354C41.3951 11.9416 41.7463 11.4132 41.7463 11.4132C42.5416 11.2198 42.6692 10.6486 42.6692 10.6486C41.8132 11.1932 40.3716 9.13047 40.8811 8.56029C41.3946 7.98552 42.9464 8.60981 43.6294 9.27596C44.3757 10.0049 43.781 10.8431 43.781 10.8431C43.781 10.8431 44.4803 10.6164 44.7059 10.012C44.7366 9.92985 44.7733 9.85379 44.8116 9.7859C44.9214 9.59295 45.0893 9.44236 45.2853 9.33772C45.5222 9.21215 45.6728 8.95232 45.3512 8.53987C44.9224 7.99164 44.1873 6.91406 43.8555 6.13306C43.5033 6.16267 42.9132 6.1254 42.681 5.59555C42.5942 5.39953 42.4262 4.77779 42.4262 4.77779L43.7407 5.82066C43.7213 5.75532 43.708 5.69407 43.6968 5.6374C43.4257 4.30409 41.9724 3.50573 41.9724 3.50573C40.7647 2.61855 39.5702 1.41591 38.829 0.578247C38.829 0.578247 37.1466 3.40415 39.6447 4.80536C38.3763 4.15299 37.924 3.41487 37.8612 2.74055C30.8485 1.35568 26.4034 6.02842 25.0819 6.99267C23.4617 8.1749 21.3417 9.19224 19.205 10.0406C18.6705 10.2514 18.1417 10.4633 17.623 10.6583C17.3642 10.7578 17.108 10.8553 16.8558 10.9518C16.6042 11.0488 16.3551 11.1371 16.1111 11.2274C15.8676 11.3168 15.6282 11.4046 15.3949 11.4903C15.1616 11.5776 14.9329 11.6527 14.7114 11.7313C14.4898 11.8083 14.2749 11.8834 14.0677 11.9559C13.9636 11.9916 13.862 12.0273 13.7619 12.062C13.6619 12.0947 13.5639 12.1269 13.4679 12.158C13.0835 12.2841 12.7334 12.3984 12.4235 12.4995C12.1137 12.5975 11.8447 12.6756 11.6231 12.7435C11.1811 12.8772 10.9309 12.9528 10.9309 12.9528C10.9309 12.9528 11.2535 12.8839 11.8048 12.767C11.9427 12.7374 12.0953 12.7052 12.2602 12.67C12.425 12.6363 12.6027 12.5904 12.7921 12.5465C12.9809 12.5015 13.1815 12.4541 13.3919 12.4035C13.6022 12.353 13.8232 12.304 14.0514 12.2427C14.5077 12.1233 14.9988 12.0003 15.5103 11.8619C15.766 11.791 16.0268 11.7185 16.2918 11.645C16.5567 11.5705 16.8262 11.499 17.0968 11.4184C17.3683 11.3382 17.6414 11.2586 17.9155 11.1779C18.1902 11.0978 18.4658 11.0171 18.7399 10.9319C19.014 10.8477 19.2882 10.7634 19.5597 10.6802C19.696 10.6384 19.8313 10.5965 19.966 10.5552C20.1008 10.5128 20.2346 10.4699 20.3673 10.4276C17.6526 11.5449 14.3724 12.8012 11.7298 13.6001C11.5649 13.6511 11.4026 13.7011 11.2433 13.7501C11.1637 13.7757 11.0846 13.7986 11.006 13.8195C10.9279 13.842 10.8503 13.8634 10.7732 13.8849C10.4659 13.9712 10.1719 14.0533 9.89419 14.1314C9.75483 14.1723 9.61905 14.2034 9.48786 14.2356C9.35616 14.2682 9.22906 14.2994 9.10655 14.3295C8.86102 14.3897 8.63386 14.4454 8.42764 14.4959C7.59967 14.6664 7.10606 14.7685 7.10606 14.7685C7.10606 14.7685 7.4399 14.7292 8.01927 14.6613C8.09176 14.6531 8.16833 14.6439 8.24847 14.6348C8.32861 14.624 8.41232 14.6169 8.49961 14.6016C8.67419 14.5745 8.86255 14.5449 9.06367 14.5133C9.2653 14.4816 9.47918 14.4479 9.70481 14.4127C9.92992 14.3759 10.1658 14.3259 10.4118 14.2805C12.3827 13.9125 14.9794 13.2698 17.4842 12.525C17.2484 12.6179 17.0115 12.7047 16.7762 12.793C16.5414 12.8808 16.3076 12.9686 16.0764 13.0549C15.9605 13.0978 15.8451 13.1411 15.7308 13.1835C15.6159 13.2244 15.5016 13.2652 15.3883 13.3055C15.1611 13.3862 14.9375 13.4658 14.7175 13.5439C14.279 13.7037 13.8523 13.842 13.4495 13.9773C13.2479 14.0447 13.0524 14.11 12.8635 14.1728C12.6741 14.2346 12.4899 14.2892 12.3138 14.3443C11.9615 14.4535 11.6394 14.5526 11.3551 14.6404C11.0677 14.721 10.8186 14.7904 10.6129 14.8481C10.202 14.963 9.96922 15.0278 9.96922 15.0278C9.96922 15.0278 10.2148 14.9808 10.6466 14.8987C10.8625 14.8563 11.1259 14.8083 11.4271 14.7476C11.7278 14.6817 12.0672 14.6072 12.4383 14.5255C12.6231 14.4831 12.8181 14.4454 13.0167 14.3943C13.2163 14.3458 13.423 14.2953 13.6353 14.2432C13.8477 14.1912 14.0662 14.1376 14.2897 14.0829C14.5133 14.0273 14.7405 13.9645 14.9722 13.9038C15.4357 13.7797 15.9176 13.6557 16.4041 13.5143C16.891 13.3739 17.3903 13.2386 17.8859 13.087C17.5189 13.232 17.1539 13.3673 16.7992 13.4995C16.6215 13.5664 16.4469 13.6312 16.2749 13.696C16.1034 13.7598 15.9344 13.8241 15.768 13.8818C15.4352 14.0003 15.1167 14.1136 14.8171 14.2197C14.6675 14.2728 14.523 14.3264 14.3821 14.3734C14.2413 14.4204 14.106 14.4653 13.9763 14.5087C13.7165 14.5954 13.4807 14.6741 13.2724 14.7435C13.1688 14.7787 13.0718 14.8109 12.982 14.841C12.8921 14.8691 12.8094 14.8946 12.7349 14.9175C12.4368 15.0089 12.2699 15.061 12.2699 15.061C12.2699 15.061 12.348 15.0436 12.4929 15.0115C12.6374 14.9788 12.8508 14.9364 13.1162 14.8716C13.3816 14.8068 13.7022 14.7282 14.0662 14.6393C14.2479 14.5934 14.4424 14.55 14.643 14.4954C14.8441 14.4418 15.0549 14.3862 15.2734 14.328C15.4924 14.2698 15.7195 14.2095 15.9528 14.1473C16.1866 14.085 16.424 14.0151 16.6685 13.9461C17.1565 13.8078 17.6664 13.6654 18.181 13.5087C18.6965 13.3545 19.2228 13.1988 19.743 13.034C20.2642 12.8711 20.7848 12.7103 21.2886 12.5454C21.0998 12.623 20.9099 12.7016 20.72 12.7797C20.5296 12.8568 20.3387 12.9334 20.1488 13.0095C19.7685 13.1616 19.3938 13.3162 19.0253 13.4597C18.6567 13.6031 18.2984 13.7425 17.9574 13.8757C17.8716 13.9089 17.7874 13.9415 17.7042 13.9742C17.621 14.0054 17.5383 14.036 17.4571 14.0666C17.2948 14.1274 17.1376 14.1861 16.9865 14.2427C16.6838 14.3555 16.4051 14.4597 16.1575 14.5521C15.9079 14.6414 15.6894 14.719 15.5092 14.7828C15.1483 14.9109 14.9401 14.9849 14.9401 14.9849C14.9401 14.9849 15.1172 14.9385 15.4286 14.8558C15.7389 14.7721 16.1866 14.6587 16.718 14.5046C16.9845 14.429 17.2734 14.3474 17.5797 14.2606C17.8869 14.1748 18.2065 14.0748 18.5408 13.9763C18.8742 13.8757 19.2218 13.7757 19.5715 13.6654C19.9216 13.5562 20.2785 13.4449 20.6368 13.3331C19.6113 13.7522 18.546 14.1784 17.5189 14.5709C17.2611 14.6684 17.0069 14.7649 16.7568 14.8594C16.6317 14.9068 16.5077 14.9538 16.3847 15.0002C16.2611 15.0447 16.1386 15.0891 16.0171 15.133C15.7747 15.2202 15.5378 15.3055 15.3076 15.3882C15.0769 15.4704 14.8553 15.5541 14.6374 15.6256C14.2025 15.7726 13.8007 15.9083 13.4429 16.0293C13.3541 16.0605 13.2663 16.0885 13.1815 16.1146C13.0968 16.1406 13.0146 16.1666 12.936 16.1911C12.7783 16.2407 12.6328 16.2861 12.5011 16.3269C12.2382 16.4091 12.0299 16.4744 11.8875 16.5189C11.8171 16.5418 11.7609 16.5561 11.7237 16.5673C11.6859 16.5781 11.6665 16.5837 11.6665 16.5837C11.6665 16.5837 11.6839 16.5796 11.7175 16.5735C11.7507 16.5663 11.8018 16.5571 11.8656 16.5423C11.9942 16.5127 12.1836 16.4699 12.425 16.4147C12.667 16.3591 12.962 16.2912 13.301 16.2136C13.6369 16.1289 14.0172 16.0329 14.4337 15.9277C14.7854 15.842 15.1585 15.7389 15.5516 15.6312C13.0907 16.5347 10.7523 17.3274 8.94473 17.9088C8.68134 17.9936 8.42917 18.0747 8.18976 18.1518C7.95036 18.2289 7.72372 18.3019 7.51034 18.3667C7.0836 18.4979 6.71352 18.6122 6.40928 18.7062C6.10454 18.7996 5.86718 18.8751 5.70434 18.9221C5.5415 18.9706 5.45524 18.9956 5.45524 18.9956C5.45524 18.9956 5.56652 18.9721 5.77325 18.9292C5.97897 18.8848 6.27963 18.8185 6.6589 18.7353C7.03766 18.651 7.49605 18.553 8.01519 18.4341C8.53381 18.3131 9.11472 18.1778 9.74105 18.0313C10.3659 17.8782 11.0366 17.7133 11.7364 17.5413C12.4347 17.3611 13.1627 17.1748 13.9028 16.9793C14.2719 16.8787 14.6445 16.7777 15.0182 16.6756C15.3923 16.5745 15.768 16.4734 16.1407 16.3652C16.8865 16.1508 17.6322 15.9441 18.3525 15.7241C16.5051 16.4433 14.4628 17.2121 12.424 17.9216C11.9166 18.1043 11.4062 18.2738 10.9018 18.4469C10.6492 18.5336 10.398 18.6194 10.1484 18.7041C9.89929 18.7894 9.64968 18.869 9.40261 18.9507C8.909 19.112 8.42407 19.2743 7.94832 19.4269C7.47206 19.5775 7.00754 19.7245 6.55732 19.8664C6.10811 20.0114 5.67014 20.1401 5.25156 20.2677C4.83299 20.3943 4.43279 20.5178 4.05301 20.6301C3.29191 20.8501 2.61811 21.0492 2.05609 21.2084C0.93002 21.5224 0.259277 21.7092 0.259277 21.7092C0.259277 21.7092 0.715117 21.6224 1.50684 21.4723C1.7049 21.4346 1.92388 21.3932 2.16227 21.3478C2.40014 21.3024 2.6569 21.2488 2.93102 21.1936C3.20513 21.1385 3.49661 21.0798 3.80339 21.0175C3.95653 20.9864 4.11375 20.9547 4.27506 20.9221C4.43534 20.8874 4.5992 20.8527 4.76663 20.8169C7.44858 20.2518 10.981 19.4223 14.3975 18.4887C11.8135 19.4254 9.26326 20.2702 7.35568 20.87C6.40316 21.1758 5.60889 21.4101 5.05555 21.579C4.77888 21.6627 4.56244 21.7286 4.41441 21.773C4.26638 21.8164 4.18726 21.8389 4.18726 21.8389C4.18726 21.8389 4.27046 21.8225 4.42666 21.7909C4.58235 21.7577 4.81104 21.7092 5.10251 21.6469C5.68545 21.5214 6.52108 21.3468 7.52413 21.1145C9.53176 20.6607 12.2158 20.0068 14.9263 19.261C14.8007 19.307 14.6757 19.3529 14.5511 19.3984C14.426 19.4433 14.3015 19.4872 14.178 19.5316C13.9304 19.6189 13.6854 19.7057 13.4439 19.7914C12.9605 19.9629 12.4909 20.1304 12.0381 20.2825C11.5858 20.4371 11.1535 20.5847 10.7467 20.724C10.3393 20.8608 9.95544 20.9849 9.60476 21.1007C9.25356 21.2161 8.93452 21.3213 8.65275 21.4136C8.37047 21.503 8.12596 21.5806 7.92535 21.6439C7.52464 21.7705 7.29952 21.8414 7.29952 21.8414C7.29952 21.8414 7.72116 21.746 8.4404 21.5831C8.80027 21.503 9.23212 21.3948 9.72471 21.2784C10.2173 21.161 10.7691 21.0303 11.3618 20.8782C11.6583 20.8036 11.9661 20.7261 12.2826 20.6459C12.4409 20.6056 12.6011 20.5648 12.764 20.5234C12.9258 20.481 13.0902 20.4376 13.2561 20.3937C13.9186 20.2156 14.6129 20.039 15.3142 19.8399C16.0166 19.6444 16.7333 19.4494 17.4439 19.2386C17.7992 19.135 18.1544 19.0318 18.5066 18.9292C18.8594 18.8261 19.2075 18.7174 19.5526 18.6138C17.4857 19.4239 15.3275 20.2263 13.6787 20.8026C12.8564 21.0982 12.1596 21.331 11.6711 21.4989C11.1826 21.6658 10.9003 21.7623 10.9003 21.7623C10.9003 21.7623 11.1402 21.7021 11.5608 21.5959C11.7717 21.5433 12.0274 21.479 12.3214 21.405C12.6154 21.3304 12.9478 21.2477 13.3097 21.1508C14.0325 20.9578 14.8814 20.7398 15.7895 20.4836C16.0166 20.4198 16.2479 20.356 16.4827 20.2906C16.717 20.2258 16.9549 20.1605 17.1937 20.09C17.672 19.9507 18.159 19.8093 18.648 19.6669C17.2448 20.209 15.7895 20.7582 14.3898 21.261C13.69 21.5111 13.007 21.7597 12.3495 21.9828C11.693 22.2095 11.0682 22.4295 10.4833 22.6209C9.89929 22.8143 9.36076 22.9981 8.87888 23.1528C8.39599 23.3074 7.97282 23.4432 7.62316 23.5555C7.44807 23.6117 7.29085 23.6617 7.15455 23.7056C7.01724 23.748 6.90035 23.7842 6.8054 23.8133C6.61551 23.8725 6.51342 23.9037 6.51342 23.9037C6.51342 23.9037 6.60479 23.8832 6.7763 23.845C6.94833 23.8072 7.20101 23.751 7.5226 23.674C8.16577 23.5203 9.09226 23.3105 10.2081 23.0282C12.4439 22.4759 15.4526 21.6745 18.5521 20.7414C19.329 20.5142 20.1064 20.2646 20.8844 20.0242C21.2733 19.9052 21.6587 19.7766 22.0431 19.6526C22.428 19.528 22.8098 19.404 23.1891 19.2809C23.9441 19.0262 24.6868 18.7781 25.4045 18.5311C25.7623 18.4055 26.114 18.282 26.4591 18.161C26.8042 18.0385 27.1431 17.9236 27.4708 17.8021C27.6122 17.7506 27.7516 17.6995 27.8899 17.6495C27.9251 17.7021 27.9609 17.7531 27.9971 17.7996C28.5448 18.4969 32.3089 18.6939 33.875 18.6015C35.5616 18.502 44.0204 16.5122 44.0204 16.5122C44.0204 16.5122 45.2363 16.6567 45.7524 16.698C45.8683 16.7077 45.98 16.6567 46.0505 16.5638L46.1965 16.3693C46.1965 16.3693 46.7473 16.502 46.515 17.2478C46.515 17.2478 47.3144 16.6363 47.1735 16.088C47.2082 16.1044 47.2439 16.1222 47.2812 16.1437C47.9785 16.5561 47.3169 17.1998 47.3169 17.1998C47.3169 17.1998 48.3879 16.7812 48.1694 15.7659Z" stroke="white" stroke-width="1"/>
<path d="M36.3045 20.4935L36.5538 19.877L36.5537 19.8769L36.5535 19.8768L36.5526 19.8765L36.5489 19.875L36.5345 19.8692L36.4781 19.8464L36.2616 19.7589C36.0739 19.6831 35.8027 19.5737 35.4688 19.4392C35.4308 19.4238 35.3919 19.4082 35.3522 19.3922C35.6563 19.3586 35.9658 19.3243 36.2753 19.2899C36.403 19.3505 36.53 19.4095 36.6551 19.4656M36.6551 19.4656C36.655 19.4656 36.6548 19.4655 36.6547 19.4655L36.9278 18.8591L36.6555 19.4658C36.6554 19.4658 36.6552 19.4657 36.6551 19.4656Z" fill="white" stroke="white" stroke-width="1.33013"/>
</svg>