<svg width="15" height="15" viewBox="0 0 15 15" fill="none" xmlns="http://www.w3.org/2000/svg">
<path d="M7.43626 0C5.44996 0 3.58255 0.773492 2.17801 2.17803C0.773472 3.58257 -2.05282e-05 5.44998 4.0859e-10 7.43626C2.05291e-05 9.42253 0.773472 11.2899 2.17801 12.6945C3.58255 14.099 5.44996 14.8725 7.43626 14.8725C9.42249 14.8725 11.2899 14.099 12.6945 12.6945C14.099 11.2899 14.8725 9.42253 14.8725 7.43626C14.8725 5.45 14.099 3.58257 12.6945 2.17803C11.2899 0.773492 9.42251 0 7.43626 0ZM2.86386 12.0086C1.64254 10.7873 0.969916 9.16348 0.969916 7.43628C0.969916 5.70907 1.64254 4.08525 2.86386 2.86392C3.07472 2.65306 3.29783 2.459 3.53114 2.28147C4.46552 3.73802 4.97607 5.54903 4.97607 7.43628C4.97605 9.32351 4.46553 11.1345 3.53114 12.5911C3.29783 12.4136 3.07473 12.2195 2.86386 12.0086ZM7.43624 13.9026C6.33838 13.9026 5.28246 13.6304 4.34493 13.1187C5.38031 11.5059 5.94604 9.50954 5.946 7.43624C5.94602 5.36292 5.38031 3.36656 4.34493 1.75376C5.28246 1.24207 6.33838 0.969916 7.43624 0.969916C8.5341 0.969916 9.59003 1.24205 10.5275 1.75376C9.49216 3.36656 8.92643 5.36294 8.92647 7.43624C8.92645 9.50956 9.49216 11.5059 10.5275 13.1187C9.59001 13.6304 8.53412 13.9026 7.43624 13.9026ZM13.9025 7.43626C13.9026 9.16344 13.2299 10.7873 12.0086 12.0086C11.7977 12.2195 11.5746 12.4135 11.3413 12.5911C10.4069 11.1345 9.89639 9.32351 9.89639 7.43626C9.89641 5.54903 10.4069 3.738 11.3413 2.28145C11.5746 2.45898 11.7977 2.65304 12.0086 2.8639C13.2299 4.08521 13.9026 5.70905 13.9025 7.43626Z" fill="black"/>
</svg>
