<svg width="10" height="14" viewBox="0 0 10 14" fill="none" xmlns="http://www.w3.org/2000/svg">
<path d="M3.47841 14C2.7185 14 2.10048 13.3822 2.10048 12.6223C2.10048 12.5711 2.10351 12.5198 2.10931 12.4681C2.10023 12.4226 2.09922 12.3765 2.10906 12.3315C2.37238 11.1245 1.82378 9.75367 1.47336 9.04427C1.44307 8.98318 1.41353 8.9236 1.38526 8.86982C1.33224 8.80848 1.26054 8.76707 1.17975 8.75193H1.07599C1.0611 8.75193 1.03762 8.75041 1.01944 8.74814C0.444332 8.71557 0 8.24853 0 7.6757V1.07597C0 0.482698 0.482706 0 1.07599 0H8.51729C8.55011 0 8.58167 0.00403931 8.61146 0.0118655C9.3085 0.0853304 9.84372 0.672041 9.84372 1.37816C9.84372 1.75786 9.68922 2.10246 9.43802 2.35189C9.71875 2.60435 9.89573 2.97016 9.89573 3.37661C9.89573 3.76969 9.73037 4.12464 9.46553 4.37609C9.73037 4.62703 9.89573 4.98249 9.89573 5.37557C9.89573 5.76864 9.73037 6.1236 9.46553 6.37454C9.73037 6.62599 9.89573 6.98094 9.89573 7.37402C9.89573 8.13391 9.2777 8.75218 8.51779 8.75218L5.33501 8.75167C6.22494 11.5189 4.64428 13.3744 4.57233 13.4567C4.57081 13.4582 4.5693 13.4597 4.56829 13.462C4.3075 13.7993 3.90305 14 3.47841 14ZM2.87326 12.3729C2.87983 12.4133 2.87983 12.4542 2.8715 12.4946C2.86241 12.537 2.85761 12.5799 2.85761 12.6223C2.85761 12.9644 3.13633 13.2426 3.47841 13.2426C3.6776 13.2426 3.86013 13.1485 3.9793 12.9844C3.99116 12.968 4.00454 12.9523 4.01868 12.9379C4.19414 12.7221 5.48902 11.0076 4.4413 8.51992C4.39207 8.40303 4.40444 8.26948 4.47488 8.16395C4.54481 8.05792 4.66321 7.9943 4.79045 7.9943H8.51729C8.6829 7.9943 8.83867 7.93018 8.95607 7.81279C9.07296 7.69539 9.13759 7.53963 9.13759 7.37402C9.13759 7.03194 8.85912 6.75322 8.51729 6.75322C8.30825 6.75322 8.1386 6.58357 8.1386 6.37454C8.1386 6.1655 8.30825 5.99585 8.51729 5.99585C8.85912 5.99585 9.13759 5.71765 9.13759 5.37557C9.13759 5.03349 8.85912 4.75477 8.51729 4.75477C8.30825 4.75477 8.1386 4.58512 8.1386 4.37609C8.1386 4.16705 8.30825 3.9974 8.51729 3.9974C8.85912 3.9974 9.13759 3.71869 9.13759 3.37661C9.13759 3.03453 8.85912 2.75633 8.51729 2.75633C8.30825 2.75633 8.1386 2.58667 8.1386 2.37764C8.1386 2.17593 8.29639 2.00476 8.4976 1.99391C8.82756 1.97674 9.08609 1.70585 9.08609 1.37816C9.08609 1.04972 8.82756 0.779587 8.4976 0.76242C8.4822 0.76141 8.46781 0.759895 8.45317 0.757371H1.07599C0.90053 0.757371 0.757384 0.900262 0.757384 1.07597V7.67595C0.757384 7.84687 0.891946 7.98597 1.06387 7.99228C1.07145 7.99279 1.08331 7.9938 1.09467 7.99481H1.20803C1.22393 7.99481 1.24009 7.99582 1.25574 7.99784C1.55895 8.03671 1.82631 8.19248 2.00833 8.43711C2.01969 8.45302 2.03004 8.46917 2.03913 8.48634C2.07523 8.5545 2.11335 8.62948 2.15223 8.70926C2.62004 9.65547 3.11613 11.048 2.87326 12.3729Z" fill="black"/>
</svg>
