<svg width="189" height="80" viewBox="0 0 189 80" fill="none" xmlns="http://www.w3.org/2000/svg">
<g filter="url(#filter0_b_12_159)">
<path d="M121.483 61.5691H115.781L115.437 57.6949H110.93L109.201 61.5691H106.838L114.024 46.0997H119.803L121.483 61.5691ZM111.738 55.9161H115.268L114.706 49.2918L111.738 55.9161Z" fill="white"/>
<path d="M136.805 47.9495H132.882L129.984 61.5691H124.724L127.622 47.9495H123.747L124.184 46.0997H137.22L136.805 47.9495Z" fill="white"/>
<path d="M142.627 54.8957C143.114 54.8957 143.524 54.6924 143.855 54.2846C144.189 53.878 144.466 53.3829 144.685 52.8004C144.906 52.2152 145.064 51.6054 145.159 50.9724C145.257 50.3395 145.307 49.787 145.307 49.3136C145.307 48.8771 145.233 48.5088 145.088 48.206C144.942 47.9045 144.626 47.7531 144.139 47.7531H143.042L141.509 54.8957H142.627ZM141.165 56.4508L140.068 61.5691H134.808L138.098 46.0997H143.724C144.652 46.0997 145.495 46.1488 146.256 46.2471C147.02 46.3425 147.677 46.5363 148.231 46.8309C148.784 47.1228 149.215 47.5403 149.524 48.0859C149.833 48.6288 149.988 49.3546 149.988 50.2631C149.988 51.1075 149.853 51.9082 149.585 52.664C149.314 53.4211 148.883 54.0799 148.291 54.6392C147.698 55.1999 146.93 55.6419 145.989 55.9652C145.046 56.2898 143.902 56.4508 142.556 56.4508H141.165Z" fill="white"/>
<path d="M154.054 56.6746C153.991 57.032 153.947 57.3717 153.923 57.695C153.897 58.0197 153.884 58.3116 153.884 58.5735C153.884 58.7195 153.891 58.8818 153.906 59.0591C153.924 59.2378 153.961 59.4056 154.015 59.5611C154.073 59.7139 154.155 59.8435 154.261 59.9486C154.366 60.055 154.517 60.1068 154.714 60.1068C154.858 60.1068 155.025 60.0604 155.21 59.9649C155.399 59.8667 155.587 59.7289 155.772 59.5502C155.958 59.3688 156.135 59.1492 156.307 58.89C156.478 58.6281 156.613 58.3361 156.711 58.0115H160.705L160.072 60.6197C159.747 60.8312 159.375 61.0099 158.954 61.1545C158.531 61.3004 158.083 61.4191 157.611 61.5091C157.142 61.5964 156.663 61.6592 156.176 61.7001C155.688 61.7438 155.224 61.7656 154.785 61.7656C153.973 61.7656 153.219 61.6919 152.52 61.5473C151.822 61.3986 151.212 61.1463 150.692 60.7889C150.171 60.4328 149.761 59.9581 149.459 59.3647C149.16 58.7727 149.012 58.0374 149.012 57.1603C149.012 56.3636 149.137 55.5833 149.388 54.8194C149.642 54.0555 150.065 53.3775 150.654 52.7841C151.246 52.1921 152.043 51.7173 153.044 51.3599C154.044 51.0039 155.289 50.8252 156.782 50.8252C158.408 50.8252 159.63 51.0789 160.449 51.5837C161.27 52.0857 161.682 52.8714 161.682 53.9409C161.682 54.3815 161.616 54.8576 161.485 55.3705C161.354 55.8807 161.159 56.3145 160.902 56.6746H154.054ZM157.295 53.7717C157.295 53.2697 157.213 52.9301 157.049 52.7514C156.888 52.574 156.695 52.484 156.465 52.484C156.206 52.484 155.966 52.5699 155.745 52.7404C155.527 52.9082 155.328 53.136 155.15 53.4225C154.972 53.7063 154.809 54.0323 154.665 54.3992C154.519 54.7635 154.397 55.1468 154.299 55.5506H157.077C157.109 55.3582 157.142 55.1563 157.175 54.9449C157.207 54.7635 157.235 54.567 157.257 54.3556C157.281 54.1455 157.295 53.9504 157.295 53.7717Z" fill="white"/>
<path d="M167.92 52.6531C168.259 52.3298 168.638 52.0297 169.061 51.7528C169.435 51.5236 169.874 51.3136 170.376 51.1198C170.881 50.9234 171.443 50.8252 172.062 50.8252C172.905 50.8252 173.602 51.0421 174.152 51.4745C174.704 51.9042 174.981 52.4922 174.981 53.237C174.981 53.4484 174.957 53.7049 174.91 54.0064C174.863 54.3051 174.807 54.6175 174.741 54.9449C174.676 55.2696 174.606 55.5983 174.534 55.9325C174.46 56.264 174.399 56.5587 174.348 56.8165L173.328 61.5691H168.379L169.721 55.2123C169.754 55.0022 169.793 54.7867 169.841 54.5684C169.892 54.3474 169.918 54.1469 169.918 53.9682C169.918 53.7254 169.855 53.5262 169.732 53.3734C169.612 53.2179 169.429 53.1388 169.186 53.1388C168.892 53.1388 168.609 53.2452 168.341 53.4553C168.075 53.6667 167.869 53.8454 167.724 53.99L166.114 61.5691H161.143L163.364 51.0926H167.331L167.773 52.6531H167.92Z" fill="white"/>
<path d="M181.516 52.6531C181.854 52.3298 182.233 52.0297 182.656 51.7528C183.03 51.5236 183.469 51.3136 183.971 51.1198C184.476 50.9234 185.038 50.8252 185.657 50.8252C186.5 50.8252 187.197 51.0421 187.747 51.4745C188.3 51.9042 188.576 52.4922 188.576 53.237C188.576 53.4484 188.552 53.7049 188.506 54.0064C188.458 54.3051 188.402 54.6175 188.336 54.9449C188.271 55.2696 188.201 55.5983 188.129 55.9325C188.055 56.264 187.994 56.5587 187.944 56.8165L186.923 61.5691H181.974L183.316 55.2123C183.349 55.0022 183.389 54.7867 183.436 54.5684C183.487 54.3474 183.513 54.1469 183.513 53.9682C183.513 53.7254 183.45 53.5262 183.327 53.3734C183.207 53.2179 183.024 53.1388 182.782 53.1388C182.487 53.1388 182.205 53.2452 181.936 53.4553C181.67 53.6667 181.464 53.8454 181.319 53.99L179.71 61.5691H174.739L176.959 51.0926H180.926L181.368 52.6531H181.516Z" fill="white"/>
<path d="M155.217 69.7376C155.157 70.7689 154.793 71.496 154.086 72.0416C153.722 72.3254 153.217 72.4673 152.59 72.4673C152.53 72.4673 152.468 72.4673 152.408 72.4673C152.347 72.4673 152.266 72.4673 152.206 72.4468C152.023 72.6078 151.923 72.7701 151.923 72.9515C151.923 73.1943 152.124 73.3362 152.429 73.4167C152.731 73.5176 153.096 73.579 153.479 73.639C154.126 73.7195 154.813 73.8819 155.379 74.2652C155.925 74.6499 156.31 75.2365 156.31 76.2064C156.31 77.2772 155.844 78.0043 155.198 78.4299C154.531 78.8542 153.641 79.0356 152.812 79.0356C151.842 79.0151 151.014 78.8746 150.448 78.5499C149.861 78.2266 149.538 77.7015 149.538 76.8939C149.538 76.5092 149.74 76.1859 150.043 75.9022C150.347 75.6198 150.751 75.3974 151.134 75.216C150.467 75.0332 149.902 74.609 149.902 73.74C149.902 73.4167 150.084 73.0934 150.326 72.7906C150.569 72.4864 150.872 72.2449 151.175 72.0826C150.588 71.6992 150.306 71.0922 150.164 70.5875C150.084 70.2833 150.024 69.9804 150.003 69.6776V66.6656C150.084 65.6356 150.407 64.8867 151.115 64.3015C151.459 63.9973 151.963 63.8568 152.59 63.8568C153.621 63.8568 154.247 64.3206 154.632 64.8663C154.772 64.7258 155.015 64.483 155.338 64.2606C155.643 64.0382 155.985 63.8568 156.31 63.8568V65.6752C155.763 65.6752 155.359 65.7762 155.116 65.918C155.136 66.019 155.157 66.1199 155.177 66.1813C155.177 66.2618 155.177 66.3423 155.198 66.4037C155.217 66.4637 155.217 66.5442 155.217 66.6056V69.7376ZM153.217 66.7461C153.217 66.3627 153.135 66.1199 152.974 65.8976C152.892 65.7966 152.772 65.7366 152.59 65.7366C152.266 65.7366 152.105 65.9985 152.044 66.2413C152.004 66.3832 151.984 66.5646 152.004 66.7461V69.7785C151.984 70.1632 152.044 70.4047 152.227 70.6066C152.307 70.7089 152.429 70.7689 152.59 70.7689C152.933 70.7689 153.075 70.5261 153.156 70.2833C153.197 70.1428 153.217 69.96 153.217 69.7785V66.7461ZM152.266 75.5789C151.842 75.8217 151.519 76.1245 151.519 76.5501C151.519 76.9744 151.902 77.3181 152.853 77.3181C153.197 77.3181 153.58 77.2567 153.884 77.1353C154.187 77.0139 154.409 76.8325 154.409 76.5692C154.409 76.3878 154.389 76.2459 154.247 76.1054C154.086 75.9635 153.823 75.8626 153.318 75.7821L152.266 75.5789Z" fill="white"/>
<path d="M162.737 66.1199C162.554 66.0599 162.352 66.0394 162.17 66.0394C161.847 66.0394 161.463 66.079 161.139 66.3832C160.756 66.7065 160.694 67.0503 160.694 67.394V75.0741H158.654V64.0178H160.694V65.251C160.715 65.1091 160.857 64.7653 161.18 64.442C161.503 64.1392 161.988 63.8568 162.737 63.8568V66.1199Z" fill="white"/>
<path d="M170.194 72.3854C170.133 73.4576 169.81 74.2052 169.103 74.7917C168.739 75.0946 168.234 75.2365 167.567 75.2365C166.253 75.2365 165.605 74.508 165.282 73.7809C165.101 73.3567 164.979 72.871 164.959 72.3254V66.7665C165.02 65.6957 165.343 64.9072 166.05 64.3015C166.394 63.9973 166.9 63.8568 167.567 63.8568C168.881 63.8568 169.548 64.5839 169.871 65.2919C170.052 65.7161 170.174 66.1813 170.194 66.7065V72.3854ZM168.274 66.7665C168.294 66.3423 168.214 66.0394 168.012 65.7966C167.911 65.6957 167.748 65.6356 167.567 65.6356C167.182 65.6356 167.021 65.8976 166.939 66.2004C166.879 66.3627 166.859 66.5442 166.879 66.7665V72.3254C166.859 72.7496 166.96 73.0525 167.143 73.2748C167.244 73.3758 167.384 73.4372 167.567 73.4372C167.95 73.4372 168.133 73.1943 168.214 72.8915C168.274 72.7292 168.294 72.5477 168.274 72.3254V66.7665Z" fill="white"/>
<path d="M176.298 64.0178H178.34V75.0742H176.298V74.1438C176.257 74.1643 176.176 74.2461 176.075 74.3471C175.833 74.5885 175.55 74.8723 175.186 75.0742C175.004 75.1751 174.822 75.2365 174.64 75.2365C174.095 75.2365 173.711 74.9118 173.468 74.4876C173.226 74.0838 173.104 73.5381 173.104 73.073V64.0178H175.146V72.7701C175.146 73.1944 175.388 73.2544 175.631 73.2544C175.853 73.2544 175.974 73.1344 176.116 72.9925C176.176 72.9311 176.238 72.8302 176.298 72.7292V64.0178Z" fill="white"/>
<path d="M181.472 64.0178H183.513V64.7462C183.857 64.4229 184.16 64.1801 184.565 63.9973C184.746 63.8964 184.948 63.8568 185.131 63.8568C185.696 63.8568 186.08 64.1801 186.344 64.5839C186.585 65.0081 186.706 65.5538 186.706 66.019V73.0729C186.706 73.5381 186.585 74.0838 186.344 74.4875C186.08 74.9118 185.696 75.2365 185.131 75.2365C184.746 75.2365 184.342 75.0141 184.038 74.7917C183.857 74.6499 183.696 74.508 183.513 74.347V78.8746H181.472V64.0178ZM183.513 72.6487C183.513 72.972 183.816 73.3157 184.12 73.3157C184.423 73.3157 184.666 73.032 184.666 72.6487V66.4432C184.666 66.0599 184.423 65.7762 184.12 65.7762C183.816 65.7762 183.513 66.0599 183.513 66.4432V72.6487Z" fill="white"/>
<mask id="mask0_12_159" style="mask-type:luminance" maskUnits="userSpaceOnUse" x="0" y="0" width="129" height="63">
<path d="M0 0H128.513V62.3357H0V0Z" fill="white"/>
</mask>
<g mask="url(#mask0_12_159)">
<path d="M128.153 40.5872C127.548 37.7839 122.796 37.5288 122.796 37.5288C120.162 38.0881 118.315 37.1987 116.027 37.5329C100.02 39.8724 91.8203 38.5396 91.8203 38.5396C93.7574 33.8279 97.8648 23.6255 100.759 23.3049C103.983 22.9489 107.243 30.2975 109.407 30.3507C110.049 30.3671 110.988 28.9552 110.988 28.9552C113.113 28.4382 113.454 26.9117 113.454 26.9117C111.167 28.3673 107.314 22.8548 108.676 21.331C110.048 19.795 114.195 21.4634 116.02 23.2436C118.014 25.1915 116.425 27.4315 116.425 27.4315C116.425 27.4315 118.294 26.8258 118.897 25.2106C118.979 24.991 119.077 24.7878 119.179 24.6063C119.473 24.0907 119.922 23.6883 120.445 23.4086C121.078 23.073 121.481 22.3787 120.621 21.2765C119.475 19.8114 117.511 16.9317 116.624 14.8446C115.683 14.9237 114.106 14.8241 113.486 13.4081C113.254 12.8843 112.805 11.2228 112.805 11.2228L116.317 14.0097C116.266 13.8351 116.23 13.6714 116.2 13.52C115.476 9.95685 111.592 7.82334 111.592 7.82334C108.365 5.45246 105.172 2.23855 103.192 0C103.192 0 98.6955 7.55187 105.372 11.2964C101.982 9.55306 100.773 7.58052 100.605 5.77849C81.8648 2.07758 69.9859 14.5649 66.4541 17.1418C62.1244 20.3011 56.4591 23.0198 50.7488 25.287C49.3206 25.8504 47.9073 26.4165 46.5213 26.9376C45.8297 27.2037 45.1449 27.4642 44.471 27.722C43.7985 27.9812 43.1328 28.2172 42.4808 28.4587C41.8301 28.6974 41.1903 28.932 40.5669 29.1612C39.9435 29.3945 39.3323 29.595 38.7403 29.8051C38.1483 30.0111 37.574 30.2116 37.0201 30.4053C36.7418 30.5008 36.4704 30.5963 36.203 30.689C35.9356 30.7763 35.6737 30.8623 35.4173 30.9455C34.3901 31.2824 33.4543 31.588 32.6262 31.8581C31.7982 32.12 31.0793 32.3287 30.4873 32.5102C29.3059 32.8676 28.6375 33.0694 28.6375 33.0694C28.6375 33.0694 29.4996 32.8853 30.9729 32.5729C31.3412 32.4938 31.7491 32.4078 32.1897 32.3137C32.6303 32.2237 33.105 32.1009 33.6111 31.9836C34.1159 31.8636 34.652 31.7367 35.214 31.6016C35.776 31.4666 36.3667 31.3356 36.9765 31.1719C38.196 30.8527 39.5083 30.524 40.8752 30.1543C41.5586 29.9647 42.2557 29.771 42.9637 29.5745C43.6717 29.3754 44.3919 29.1844 45.1149 28.9688C45.8406 28.7547 46.5705 28.5419 47.303 28.3263C48.0369 28.1122 48.7735 27.8966 49.5061 27.6688C50.2386 27.4437 50.9712 27.2187 51.6969 26.9963C52.0611 26.8844 52.4226 26.7726 52.7827 26.6621C53.1429 26.5489 53.5003 26.4343 53.855 26.3211C46.6005 29.3072 37.8345 32.6643 30.7724 34.7992C30.3317 34.9356 29.8979 35.0693 29.4723 35.2002C29.2595 35.2684 29.0481 35.3298 28.838 35.3858C28.6293 35.4458 28.422 35.5031 28.216 35.5604C27.3948 35.7909 26.609 36.0105 25.8669 36.2192C25.4945 36.3284 25.1316 36.4116 24.7811 36.4975C24.4291 36.5848 24.0894 36.668 23.7621 36.7485C23.1059 36.9095 22.4989 37.0582 21.9478 37.1932C19.7351 37.6489 18.416 37.9217 18.416 37.9217C18.416 37.9217 19.3081 37.8167 20.8564 37.6352C21.0501 37.6134 21.2548 37.5888 21.4689 37.5643C21.6831 37.5356 21.9068 37.5165 22.1401 37.4756C22.6066 37.4033 23.11 37.3242 23.6475 37.2396C24.1863 37.155 24.7579 37.065 25.3608 36.9709C25.9624 36.8727 26.5926 36.739 27.2502 36.6176C32.5171 35.634 39.4565 33.9166 46.1503 31.9263C45.5201 32.1746 44.8871 32.4065 44.2582 32.6425C43.6307 32.8771 43.006 33.1117 42.388 33.3423C42.0783 33.4569 41.77 33.5728 41.4645 33.686C41.1575 33.7952 40.852 33.9043 40.5491 34.0121C39.9421 34.2276 39.3446 34.4404 38.7567 34.6491C37.5849 35.0761 36.4445 35.4458 35.3681 35.8073C34.8293 35.9873 34.3068 36.162 33.8021 36.3297C33.296 36.4948 32.8036 36.6408 32.3329 36.7881C31.3917 37.08 30.5309 37.3447 29.7711 37.5793C29.0031 37.7948 28.3374 37.9803 27.7876 38.1345C26.6895 38.4414 26.0674 38.6147 26.0674 38.6147C26.0674 38.6147 26.7236 38.4892 27.8777 38.2695C28.4547 38.1563 29.1586 38.0281 29.9634 37.8658C30.7669 37.6898 31.6741 37.4906 32.6658 37.2724C33.1596 37.1591 33.6807 37.0582 34.2114 36.9218C34.7447 36.7922 35.2972 36.6571 35.8647 36.518C36.4322 36.3789 37.016 36.2356 37.6135 36.0897C38.211 35.941 38.8181 35.7732 39.4374 35.6108C40.676 35.2794 41.9638 34.9479 43.2638 34.57C44.5652 34.1949 45.8993 33.8334 47.2239 33.4282C46.2431 33.8156 45.2677 34.1771 44.3196 34.5304C43.8449 34.7091 43.3784 34.8824 42.9187 35.0556C42.4603 35.2262 42.0088 35.398 41.5641 35.5522C40.6746 35.8687 39.8234 36.1715 39.0227 36.4552C38.623 36.5971 38.2369 36.7403 37.8604 36.8658C37.4839 36.9913 37.1224 37.1114 36.7759 37.2273C36.0816 37.4592 35.4514 37.6693 34.8948 37.8548C34.6179 37.949 34.3587 38.0349 34.1186 38.1154C33.8785 38.1904 33.6575 38.2586 33.4584 38.32C32.6617 38.5642 32.2156 38.7033 32.2156 38.7033C32.2156 38.7033 32.4243 38.657 32.8117 38.571C33.1978 38.4837 33.768 38.3705 34.4774 38.1972C35.1867 38.024 36.0434 37.8139 37.016 37.5766C37.5017 37.4538 38.0214 37.3378 38.5575 37.1919C39.095 37.0486 39.6584 36.9 40.2422 36.7444C40.8274 36.5889 41.4345 36.428 42.0579 36.2615C42.6827 36.0951 43.317 35.9082 43.9704 35.7241C45.2745 35.3544 46.6373 34.9738 48.0123 34.555C49.3901 34.143 50.7966 33.727 52.1866 33.2863C53.5794 32.8512 54.9708 32.4215 56.3172 31.9809C55.8125 32.1882 55.305 32.3983 54.7976 32.607C54.2887 32.813 53.7786 33.0176 53.2711 33.2209C52.2548 33.6274 51.2535 34.0407 50.2686 34.424C49.2837 34.8074 48.3261 35.1798 47.4149 35.5358C47.1857 35.6245 46.9606 35.7118 46.7382 35.7991C46.5159 35.8823 46.2949 35.9642 46.078 36.046C45.6442 36.2083 45.224 36.3652 44.8203 36.5166C44.0113 36.8181 43.2665 37.0964 42.6049 37.3433C41.9378 37.582 41.354 37.7894 40.8724 37.9599C39.908 38.3023 39.3514 38.5001 39.3514 38.5001C39.3514 38.5001 39.8248 38.3759 40.6569 38.155C41.4863 37.9312 42.6827 37.6284 44.1027 37.2164C44.8148 37.0145 45.5869 36.7963 46.4054 36.5644C47.2266 36.3352 48.0806 36.0678 48.9741 35.8045C49.8648 35.5358 50.7938 35.2684 51.7283 34.9738C52.6641 34.6819 53.6176 34.3845 54.5752 34.0857C51.8347 35.2057 48.9877 36.3447 46.2431 37.3938C45.5542 37.6543 44.8748 37.9121 44.2064 38.1645C43.8722 38.2914 43.5407 38.4169 43.2119 38.541C42.8818 38.6597 42.5544 38.7784 42.2298 38.8957C41.5818 39.129 40.9488 39.3568 40.3336 39.5778C39.717 39.7974 39.125 40.0211 38.5425 40.2121C37.3802 40.605 36.3067 40.9678 35.3504 41.2911C35.1131 41.3743 34.8784 41.4494 34.652 41.5189C34.4255 41.5885 34.2059 41.6581 33.9958 41.7235C33.5743 41.8559 33.1855 41.9773 32.8336 42.0864C32.131 42.306 31.5745 42.4806 31.1939 42.5993C31.0056 42.6607 30.8556 42.6989 30.756 42.7289C30.655 42.7576 30.6032 42.7726 30.6032 42.7726C30.6032 42.7726 30.6496 42.7617 30.7396 42.7453C30.8283 42.7262 30.9647 42.7016 31.1352 42.6621C31.479 42.583 31.9851 42.4684 32.6303 42.321C33.2769 42.1723 34.0654 41.9909 34.9712 41.7836C35.8688 41.5571 36.8851 41.3007 37.9982 41.0196C38.9381 40.7905 39.9353 40.5149 40.9857 40.2271C34.4092 42.6416 28.16 44.7601 23.3296 46.3139C22.6257 46.5403 21.9518 46.7572 21.3121 46.9632C20.6723 47.1692 20.0666 47.3643 19.4964 47.5375C18.356 47.8881 17.367 48.1937 16.5539 48.4447C15.7396 48.6943 15.1052 48.8962 14.6701 49.0217C14.2349 49.1513 14.0044 49.2181 14.0044 49.2181C14.0044 49.2181 14.3018 49.1554 14.8542 49.0408C15.404 48.9221 16.2075 48.7448 17.221 48.5224C18.2332 48.2973 19.4582 48.0354 20.8455 47.7176C22.2315 47.3943 23.7839 47.0328 25.4577 46.6413C27.1274 46.232 28.9199 45.7914 30.7901 45.3317C32.6562 44.8502 34.6015 44.3522 36.5795 43.8298C37.5658 43.561 38.5616 43.2909 39.5601 43.0181C40.5601 42.748 41.5641 42.4779 42.5599 42.1887C44.5529 41.6158 46.5459 41.0633 48.4707 40.4754C43.5339 42.3974 38.076 44.4518 32.6276 46.348C31.2716 46.8363 29.9075 47.2892 28.5597 47.7517C27.8845 47.9836 27.2133 48.2128 26.5463 48.4392C25.8806 48.667 25.2135 48.8798 24.5533 49.0981C23.2341 49.5291 21.9382 49.9629 20.6668 50.3708C19.3941 50.7732 18.1527 51.1661 16.9495 51.5453C15.7491 51.9328 14.5787 52.2765 13.4601 52.6176C12.3415 52.9559 11.272 53.286 10.2571 53.5861C8.22315 54.174 6.42249 54.7061 4.92057 55.1317C1.91128 55.9706 0.118805 56.4699 0.118805 56.4699C0.118805 56.4699 1.33698 56.238 3.45276 55.8369C3.98205 55.736 4.56726 55.6255 5.20431 55.5041C5.84 55.3827 6.52616 55.2394 7.25871 55.0921C7.99125 54.9448 8.77017 54.7879 9.59002 54.6215C9.99926 54.5383 10.4194 54.4537 10.8505 54.3664C11.2788 54.2736 11.7167 54.1809 12.1641 54.0854C19.3313 52.5753 28.7712 50.3585 37.9014 47.8635C30.9961 50.3667 24.1808 52.6244 19.0831 54.2272C16.5376 55.0444 14.415 55.6705 12.9363 56.122C12.1969 56.3457 11.6185 56.5217 11.2229 56.6404C10.8273 56.7564 10.6159 56.8164 10.6159 56.8164C10.6159 56.8164 10.8382 56.7727 11.2556 56.6881C11.6717 56.5995 12.2828 56.4699 13.0618 56.3035C14.6196 55.9679 16.8527 55.5013 19.5332 54.8807C24.8984 53.6679 32.071 51.9205 39.3146 49.9275C38.979 50.0502 38.6448 50.173 38.312 50.2944C37.9777 50.4145 37.6449 50.5318 37.3148 50.6505C36.6532 50.8837 35.9984 51.1156 35.3531 51.3448C34.0613 51.8032 32.8063 52.2506 31.5963 52.6571C30.3877 53.0705 29.2322 53.4647 28.145 53.8371C27.0564 54.2027 26.0306 54.5342 25.0935 54.8438C24.1549 55.1521 23.3023 55.4331 22.5493 55.68C21.795 55.9188 21.1415 56.1261 20.6054 56.2953C19.5346 56.6336 18.933 56.8232 18.933 56.8232C18.933 56.8232 20.0598 56.5681 21.9819 56.1329C22.9436 55.9188 24.0976 55.6296 25.414 55.3186C26.7304 55.0048 28.2051 54.6556 29.7888 54.2491C30.5814 54.0499 31.404 53.8426 32.2497 53.6284C32.6726 53.5206 33.1009 53.4115 33.5361 53.301C33.9685 53.1878 34.4078 53.0718 34.8511 52.9545C36.6218 52.4784 38.477 52.0064 40.3513 51.4744C42.2284 50.9519 44.1436 50.4308 46.0425 49.8675C46.992 49.5905 47.9414 49.315 48.8827 49.0408C49.8253 48.7652 50.7556 48.4747 51.6778 48.1977C46.1544 50.3626 40.3868 52.5071 35.9806 54.0472C33.783 54.837 31.921 55.4591 30.6155 55.9079C29.31 56.3539 28.5556 56.6118 28.5556 56.6118C28.5556 56.6118 29.1968 56.4508 30.3208 56.167C30.8842 56.0265 31.5677 55.8547 32.3534 55.6569C33.1391 55.4577 34.0272 55.2367 34.9944 54.9775C36.926 54.4619 39.1946 53.8794 41.6214 53.1946C42.2284 53.0241 42.8464 52.8536 43.4739 52.6789C44.1 52.5057 44.7357 52.3311 45.3741 52.1428C46.6523 51.7704 47.9537 51.3926 49.2605 51.012C45.5105 52.4607 41.6214 53.9285 37.8809 55.2722C36.0107 55.9406 34.1854 56.6049 32.4284 57.2011C30.6741 57.8067 29.0044 58.3947 27.4411 58.9062C25.8806 59.4232 24.4414 59.9143 23.1536 60.3277C21.8632 60.741 20.7323 61.1039 19.7979 61.404C19.33 61.554 18.9098 61.6877 18.5456 61.805C18.1786 61.9183 17.8662 62.0151 17.6125 62.0929C17.1051 62.2511 16.8322 62.3343 16.8322 62.3343C16.8322 62.3343 17.0764 62.2798 17.5348 62.1774C17.9945 62.0765 18.6697 61.9264 19.5291 61.7205C21.2479 61.3098 23.7239 60.7492 26.7059 59.9948C32.6808 58.5188 40.721 56.3771 49.0041 53.8835C51.0803 53.2764 53.1579 52.6094 55.2368 51.9669C56.2763 51.649 57.3062 51.3053 58.3334 50.9738C59.362 50.6409 60.3824 50.3094 61.3959 49.9807C63.4135 49.3 65.3983 48.637 67.3163 47.9768C68.2725 47.6412 69.2124 47.3111 70.1346 46.9878C71.0567 46.6604 71.9625 46.3534 72.8383 46.0288C73.2162 45.891 73.5886 45.7546 73.9583 45.6209C74.0524 45.7614 74.1479 45.8978 74.2447 46.0219C75.7085 47.8854 85.7676 48.4119 89.9528 48.165C94.4599 47.899 117.065 42.5816 117.065 42.5816C117.065 42.5816 120.314 42.9676 121.694 43.0781C122.003 43.1041 122.302 42.9676 122.49 42.7194L122.88 42.1996C122.88 42.1996 124.352 42.5543 123.732 44.5473C123.732 44.5473 125.868 42.9131 125.491 41.448C125.584 41.4916 125.68 41.5394 125.779 41.5967C127.643 42.6989 125.875 44.4191 125.875 44.4191C125.875 44.4191 128.737 43.3005 128.153 40.5872Z" fill="white"/>
</g>
<path d="M103.288 52.151C101.002 51.2957 100.023 49.7147 98.1115 48.8539C97.6463 48.6452 97.1662 48.4187 96.6764 48.1827C93.9045 48.491 91.1012 48.8007 88.8163 49.0449C87.9528 49.1363 87.2352 49.2127 86.635 49.2741C91.9893 51.4198 96.4459 53.2219 96.4459 53.2219C96.4459 53.2219 98.7431 55.0989 99.7417 55.8574C99.9667 56.0279 100.261 56.0702 100.525 55.972L101.079 55.7646C101.079 55.7646 102.031 56.7523 100.583 57.9732C100.583 57.9732 103.014 57.7658 103.44 56.4617C103.492 56.5395 103.539 56.624 103.587 56.7168C104.477 58.467 102.284 58.9199 102.284 58.9199C102.284 58.9199 105.02 59.4614 105.894 57.1001C106.798 54.6638 103.288 52.151 103.288 52.151Z" fill="white"/>
</g>
<defs>
<filter id="filter0_b_12_159" x="-4" y="-4" width="196.576" height="87.0356" filterUnits="userSpaceOnUse" color-interpolation-filters="sRGB">
<feFlood flood-opacity="0" result="BackgroundImageFix"/>
<feGaussianBlur in="BackgroundImageFix" stdDeviation="2"/>
<feComposite in2="SourceAlpha" operator="in" result="effect1_backgroundBlur_12_159"/>
<feBlend mode="normal" in="SourceGraphic" in2="effect1_backgroundBlur_12_159" result="shape"/>
</filter>
</defs>
</svg>
