<svg width="14" height="24" viewBox="0 0 14 24" fill="none" xmlns="http://www.w3.org/2000/svg">
<path d="M12.9423 12.7148L12.8432 12.6184L12.9423 12.7148C13.1285 12.5235 13.2326 12.267 13.2326 12.0001C13.2326 11.7331 13.1285 11.4766 12.9423 11.2853L12.8432 11.3817L12.9423 11.2853L2.44342 0.494775C2.44323 0.494573 2.44304 0.494372 2.44285 0.49417C2.3495 0.396308 2.2377 0.317886 2.1139 0.263426C1.98984 0.208853 1.85619 0.179426 1.72068 0.176846C1.58518 0.174266 1.4505 0.198585 1.32446 0.248396C1.19841 0.298206 1.0835 0.37252 0.986364 0.467035C0.889229 0.56155 0.811801 0.67439 0.758562 0.799027C0.705324 0.923663 0.677333 1.05762 0.676207 1.19315C0.675081 1.32867 0.700844 1.46307 0.752004 1.58858C0.803059 1.71382 0.878397 1.82773 0.973672 1.92372C0.973867 1.92392 0.974062 1.92411 0.974257 1.92431L10.7787 12.0001L0.974257 22.0758C0.974056 22.076 0.973855 22.0762 0.973654 22.0764C0.878387 22.1724 0.803056 22.2863 0.752004 22.4115C0.700844 22.537 0.675081 22.6714 0.676207 22.807C0.677333 22.9425 0.705324 23.0764 0.758562 23.2011C0.811801 23.3257 0.889228 23.4386 0.986364 23.5331C1.0835 23.6276 1.19841 23.7019 1.32446 23.7517C1.45051 23.8015 1.58518 23.8258 1.72068 23.8233C1.85619 23.8207 1.98984 23.7913 2.1139 23.7367C2.23771 23.6822 2.34953 23.6038 2.44289 23.5059C2.44307 23.5057 2.44325 23.5055 2.44342 23.5053L12.9423 12.7148Z" fill="white" stroke="white" stroke-width="0.3"/>
</svg>
