<svg width="26" height="26" viewBox="0 0 26 26" fill="none" xmlns="http://www.w3.org/2000/svg">
<circle cx="13" cy="13" r="12.75" fill="white" stroke="#210C0C" stroke-width="0.5"/>
<path d="M6.0055 13.6128H4.47621L4.38401 12.446H3.17521L2.71131 13.6128H2.07764L4.00498 8.95361H5.55476L6.0055 13.6128ZM3.3918 11.9102H4.33865L4.18791 9.91504L3.3918 11.9102Z" fill="black"/>
<path d="M10.115 9.51075H9.06277L8.28569 13.6128H6.87493L7.65202 9.51075H6.61298L6.73005 8.95361H10.2262L10.115 9.51075Z" fill="black"/>
<path d="M11.6762 11.6029C11.8068 11.6029 11.9166 11.5417 12.0055 11.4188C12.0951 11.2964 12.1694 11.1472 12.228 10.9718C12.2872 10.7955 12.3297 10.6119 12.3553 10.4212C12.3816 10.2306 12.3948 10.0642 12.3948 9.92161C12.3948 9.79013 12.375 9.6792 12.3362 9.58799C12.2971 9.49719 12.2122 9.45158 12.0816 9.45158H11.7875L11.3762 11.6029H11.6762ZM11.284 12.0713L10.9899 13.6128H9.57913L10.4616 8.95361H11.9704C12.2192 8.95361 12.4453 8.9684 12.6494 8.99799C12.8543 9.02675 13.0306 9.08509 13.1792 9.17384C13.3274 9.26176 13.443 9.38749 13.526 9.55183C13.6087 9.71536 13.6504 9.93394 13.6504 10.2076C13.6504 10.4619 13.6142 10.7031 13.5421 10.9307C13.4697 11.1587 13.3541 11.3572 13.1953 11.5256C13.0361 11.6945 12.8302 11.8276 12.5777 11.925C12.3249 12.0228 12.018 12.0713 11.6572 12.0713H11.284Z" fill="black"/>
<path d="M14.7409 12.1385C14.7241 12.2461 14.7124 12.3485 14.7058 12.4458C14.6988 12.5436 14.6955 12.6315 14.6955 12.7104C14.6955 12.7544 14.6974 12.8033 14.7014 12.8567C14.7061 12.9105 14.716 12.9611 14.7306 13.0079C14.746 13.0539 14.768 13.0929 14.7965 13.1246C14.8247 13.1566 14.8653 13.1722 14.918 13.1722C14.9567 13.1722 15.0014 13.1583 15.0511 13.1295C15.1016 13.0999 15.1521 13.0584 15.2019 13.0046C15.2516 12.95 15.2992 12.8838 15.3453 12.8057C15.391 12.7269 15.4272 12.6389 15.4536 12.5411H16.5248L16.3551 13.3267C16.268 13.3904 16.1681 13.4442 16.0551 13.4878C15.9416 13.5317 15.8216 13.5675 15.695 13.5946C15.5692 13.6209 15.4408 13.6398 15.3102 13.6521C15.1792 13.6653 15.0548 13.6718 14.937 13.6718C14.7193 13.6718 14.517 13.6497 14.3297 13.6061C14.1423 13.5613 13.9788 13.4853 13.8394 13.3777C13.6997 13.2704 13.5895 13.1275 13.5087 12.9487C13.4286 12.7704 13.3887 12.549 13.3887 12.2848C13.3887 12.0448 13.4223 11.8098 13.4896 11.5797C13.5577 11.3496 13.6711 11.1454 13.8292 10.9667C13.9879 10.7884 14.2016 10.6454 14.4702 10.5378C14.7383 10.4305 15.0724 10.3767 15.4726 10.3767C15.9087 10.3767 16.2365 10.4531 16.456 10.6051C16.6763 10.7563 16.7868 10.993 16.7868 11.3151C16.7868 11.4478 16.7692 11.5912 16.7341 11.7457C16.699 11.8994 16.6466 12.03 16.5775 12.1385H14.7409ZM15.6102 11.2642C15.6102 11.113 15.5882 11.0107 15.5443 10.9569C15.5011 10.9034 15.4492 10.8763 15.3877 10.8763C15.3182 10.8763 15.2538 10.9022 15.1946 10.9536C15.136 11.0041 15.0826 11.0727 15.035 11.159C14.9871 11.2445 14.9436 11.3427 14.9048 11.4532C14.8656 11.5629 14.8331 11.6783 14.8067 11.7999H15.5516C15.5604 11.742 15.5692 11.6812 15.578 11.6175C15.5868 11.5629 15.5941 11.5037 15.5999 11.44C15.6065 11.3768 15.6102 11.318 15.6102 11.2642Z" fill="black"/>
<path d="M18.4599 10.9273C18.5507 10.8299 18.6524 10.7395 18.7658 10.6561C18.866 10.5871 18.9838 10.5238 19.1185 10.4655C19.2538 10.4063 19.4046 10.3767 19.5707 10.3767C19.7968 10.3767 19.9837 10.442 20.1312 10.5723C20.2793 10.7017 20.3536 10.8788 20.3536 11.1031C20.3536 11.1668 20.347 11.244 20.3346 11.3348C20.3218 11.4248 20.3068 11.5189 20.2892 11.6175C20.2717 11.7153 20.253 11.8143 20.2336 11.915C20.2139 12.0148 20.1974 12.1036 20.1839 12.1812L19.9102 13.6127H18.5829L18.9429 11.6981C18.9516 11.6348 18.9622 11.5699 18.9751 11.5041C18.9886 11.4376 18.9955 11.3772 18.9955 11.3233C18.9955 11.2502 18.9787 11.1902 18.9458 11.1442C18.9136 11.0974 18.8646 11.0735 18.7994 11.0735C18.7204 11.0735 18.6447 11.1056 18.5726 11.1689C18.5013 11.2325 18.446 11.2864 18.4072 11.3299L17.9755 13.6127H16.6423L17.238 10.4572H18.3019L18.4204 10.9273H18.4599Z" fill="black"/>
<path d="M22.1064 10.9273C22.1971 10.8299 22.2988 10.7395 22.4123 10.6561C22.5125 10.5871 22.6303 10.5238 22.765 10.4655C22.9003 10.4063 23.0511 10.3767 23.2172 10.3767C23.4433 10.3767 23.6302 10.442 23.7777 10.5723C23.9258 10.7017 24.0001 10.8788 24.0001 11.1031C24.0001 11.1668 23.9935 11.244 23.9811 11.3348C23.9683 11.4248 23.9533 11.5189 23.9357 11.6175C23.9181 11.7153 23.8995 11.8143 23.8801 11.915C23.8603 12.0148 23.8439 12.1036 23.8303 12.1812L23.5567 13.6127H22.2293L22.5893 11.6981C22.5981 11.6348 22.6087 11.5699 22.6215 11.5041C22.6351 11.4376 22.642 11.3772 22.642 11.3233C22.642 11.2502 22.6252 11.1902 22.5923 11.1442C22.5601 11.0974 22.511 11.0735 22.4459 11.0735C22.3669 11.0735 22.2912 11.1056 22.2191 11.1689C22.1478 11.2325 22.0925 11.2864 22.0537 11.3299L21.622 13.6127H20.2888L20.8844 10.4572H21.9484L22.0669 10.9273H22.1064Z" fill="black"/>
<path d="M14.7357 16.0732C14.7196 16.3839 14.6219 16.6028 14.4324 16.7672C14.3347 16.8527 14.1994 16.8954 14.0311 16.8954C14.015 16.8954 13.9985 16.8954 13.9824 16.8954C13.966 16.8954 13.9444 16.8954 13.9283 16.8892C13.8792 16.9377 13.8522 16.9866 13.8522 17.0412C13.8522 17.1144 13.9063 17.1571 13.9879 17.1813C14.0691 17.2117 14.1668 17.2302 14.2696 17.2483C14.443 17.2726 14.6274 17.3214 14.7793 17.4369C14.9256 17.5528 15.0288 17.7294 15.0288 18.0216C15.0288 18.3441 14.904 18.5631 14.7306 18.6913C14.5517 18.8191 14.3132 18.8737 14.0907 18.8737C13.8306 18.8675 13.6085 18.8252 13.4567 18.7274C13.2994 18.6301 13.2126 18.4719 13.2126 18.2286C13.2126 18.1128 13.2668 18.0154 13.348 17.9299C13.4296 17.8449 13.5379 17.7779 13.6407 17.7233C13.4618 17.6682 13.3103 17.5404 13.3103 17.2787C13.3103 17.1813 13.359 17.084 13.4241 16.9928C13.4892 16.9011 13.5705 16.8284 13.6517 16.7795C13.4944 16.6641 13.4186 16.4812 13.3806 16.3292C13.359 16.2376 13.3429 16.1464 13.3374 16.0552V15.148C13.359 14.8378 13.4457 14.6122 13.6356 14.4359C13.7278 14.3443 13.8631 14.302 14.0311 14.302C14.3077 14.302 14.4756 14.4417 14.5788 14.606C14.6164 14.5637 14.6816 14.4906 14.7683 14.4236C14.8499 14.3566 14.9417 14.302 15.0288 14.302V14.8497C14.8821 14.8497 14.7738 14.8801 14.7086 14.9228C14.7141 14.9532 14.7196 14.9836 14.7251 15.0021C14.7251 15.0264 14.7251 15.0506 14.7306 15.0691C14.7357 15.0872 14.7357 15.1114 14.7357 15.1299V16.0732ZM14.1994 15.1722C14.1994 15.0568 14.1774 14.9836 14.1342 14.9167C14.1123 14.8863 14.0801 14.8682 14.0311 14.8682C13.9444 14.8682 13.9012 14.9471 13.8847 15.0202C13.8741 15.0629 13.8686 15.1176 13.8741 15.1722V16.0856C13.8686 16.2014 13.8847 16.2742 13.9338 16.335C13.9553 16.3658 13.9879 16.3839 14.0311 16.3839C14.1233 16.3839 14.1613 16.3107 14.1829 16.2376C14.1939 16.1953 14.1994 16.1402 14.1994 16.0856V15.1722ZM13.9444 17.8326C13.8306 17.9057 13.7439 17.9969 13.7439 18.1251C13.7439 18.2529 13.8467 18.3564 14.1017 18.3564C14.1939 18.3564 14.2967 18.3379 14.3783 18.3014C14.4595 18.2648 14.5191 18.2102 14.5191 18.1309C14.5191 18.0762 14.5136 18.0335 14.4756 17.9912C14.4324 17.9484 14.3618 17.918 14.2264 17.8938L13.9444 17.8326Z" fill="black"/>
<path d="M16.7525 14.9836C16.7035 14.9655 16.6493 14.9594 16.6007 14.9594C16.5139 14.9594 16.4108 14.9713 16.3241 15.0629C16.2213 15.1603 16.2048 15.2638 16.2048 15.3674V17.6805H15.6575V14.3505H16.2048V14.7219C16.2103 14.6792 16.2483 14.5756 16.335 14.4783C16.4218 14.3871 16.5516 14.302 16.7525 14.302V14.9836Z" fill="black"/>
<path d="M18.7528 16.8707C18.7363 17.1937 18.6496 17.4188 18.4601 17.5955C18.3624 17.6867 18.2271 17.7294 18.0482 17.7294C17.6958 17.7294 17.5221 17.51 17.4353 17.291C17.3867 17.1633 17.3541 17.017 17.3486 16.8527V15.1784C17.3651 14.8558 17.4518 14.6184 17.6413 14.4359C17.7335 14.3443 17.8693 14.302 18.0482 14.302C18.4005 14.302 18.5794 14.521 18.6661 14.7342C18.7148 14.862 18.7473 15.0021 18.7528 15.1603V16.8707ZM18.2377 15.1784C18.2432 15.0506 18.2216 14.9594 18.1674 14.8863C18.1404 14.8558 18.0968 14.8378 18.0482 14.8378C17.945 14.8378 17.9018 14.9167 17.8799 15.0079C17.8638 15.0568 17.8583 15.1114 17.8638 15.1784V16.8527C17.8583 16.9804 17.8853 17.0716 17.9344 17.1386C17.9614 17.169 17.9991 17.1875 18.0482 17.1875C18.151 17.1875 18.2 17.1144 18.2216 17.0232C18.2377 16.9743 18.2432 16.9196 18.2377 16.8527V15.1784Z" fill="black"/>
<path d="M20.3894 14.3503H20.9371V17.6804H20.3894V17.4002C20.3785 17.4064 20.3569 17.431 20.3298 17.4614C20.2647 17.5341 20.1889 17.6196 20.0913 17.6804C20.0426 17.7108 19.9936 17.7293 19.9449 17.7293C19.7986 17.7293 19.6958 17.6315 19.6306 17.5037C19.5655 17.3821 19.533 17.2178 19.533 17.0777V14.3503H20.0807V16.9865C20.0807 17.1142 20.1454 17.1323 20.2105 17.1323C20.2702 17.1323 20.3027 17.0962 20.3408 17.0534C20.3569 17.0349 20.3733 17.0045 20.3894 16.9741V14.3503Z" fill="black"/>
<path d="M21.7771 14.3505H22.3244V14.5699C22.4166 14.4725 22.4978 14.3994 22.6065 14.3443C22.6552 14.3139 22.7093 14.302 22.7583 14.302C22.9098 14.302 23.013 14.3994 23.0836 14.521C23.1483 14.6488 23.1809 14.8131 23.1809 14.9532V17.0778C23.1809 17.2179 23.1483 17.3823 23.0836 17.5039C23.013 17.6317 22.9098 17.7294 22.7583 17.7294C22.6552 17.7294 22.5469 17.6625 22.4653 17.5955C22.4166 17.5528 22.3735 17.51 22.3244 17.4616V18.8252H21.7771V14.3505ZM22.3244 16.95C22.3244 17.0474 22.4056 17.1509 22.4872 17.1509C22.5685 17.1509 22.6336 17.0655 22.6336 16.95V15.081C22.6336 14.9655 22.5685 14.8801 22.4872 14.8801C22.4056 14.8801 22.3244 14.9655 22.3244 15.081V16.95Z" fill="black"/>
</svg>
