<svg width="17" height="17" viewBox="0 0 17 17" fill="none" xmlns="http://www.w3.org/2000/svg">
<path d="M8.5 16C9.98336 16 11.4334 15.5601 12.6668 14.736C13.9001 13.9119 14.8614 12.7406 15.4291 11.3701C15.9967 9.99968 16.1453 8.49168 15.8559 7.03682C15.5665 5.58197 14.8522 4.2456 13.8033 3.1967C12.7544 2.14781 11.418 1.4335 9.96317 1.14411C8.50832 0.854725 7.00032 1.00325 5.62987 1.57091C4.25943 2.13856 3.08809 3.09986 2.26398 4.33323C1.43987 5.56659 1 7.01664 1 8.5C1 9.74 1.3 10.9083 1.83333 11.9392L1 16L5.06083 15.1667C6.09083 15.6992 7.26083 16 8.5 16Z" stroke="white" stroke-linecap="round" stroke-linejoin="round"/>
</svg>
