<svg width="39" height="15" viewBox="0 0 39 15" fill="none" xmlns="http://www.w3.org/2000/svg">
<path d="M1.42435 13.6952C1.3 13.6952 1.20391 13.6557 1.13609 13.5765C1.06826 13.5087 1.03435 13.4183 1.03435 13.3052V12.6609C1.03435 12.5478 1.06826 12.4574 1.13609 12.3896C1.20391 12.3104 1.3 12.2709 1.42435 12.2709H11.2591C11.3722 12.2709 11.4626 12.3104 11.5304 12.3896C11.6096 12.4574 11.6491 12.5478 11.6491 12.6609V13.3052C11.6491 13.4183 11.6096 13.5087 11.5304 13.5765C11.4626 13.6557 11.3722 13.6952 11.2591 13.6952H1.42435ZM16.6182 8.62522C16.5051 8.62522 16.4091 8.5913 16.3299 8.52348C16.2621 8.44435 16.2282 8.34826 16.2282 8.23522V7.59087C16.2282 7.47783 16.2621 7.38739 16.3299 7.31956C16.4091 7.24043 16.5051 7.20087 16.6182 7.20087H21.7051C21.8182 7.20087 21.9086 7.24043 21.9764 7.31956C22.0556 7.38739 22.0951 7.47783 22.0951 7.59087V8.23522C22.0951 8.34826 22.0556 8.44435 21.9764 8.52348C21.9086 8.5913 21.8182 8.62522 21.7051 8.62522H16.6182ZM27.0698 13.6952C26.9454 13.6952 26.8493 13.6557 26.7815 13.5765C26.7137 13.5087 26.6798 13.4183 26.6798 13.3052V12.6609C26.6798 12.5478 26.7137 12.4574 26.7815 12.3896C26.8493 12.3104 26.9454 12.2709 27.0698 12.2709H36.9045C37.0176 12.2709 37.108 12.3104 37.1758 12.3896C37.255 12.4574 37.2945 12.5478 37.2945 12.6609V13.3052C37.2945 13.4183 37.255 13.5087 37.1758 13.5765C37.108 13.6557 37.0176 13.6952 36.9045 13.6952H27.0698Z" fill="black"/>
</svg>
