<svg width="48" height="20" viewBox="0 0 48 20" fill="none" xmlns="http://www.w3.org/2000/svg">
                    <path d="M24 6.33936C23.6117 6.33936 23.2969 6.65407 23.2969 7.04248V13.1798C23.2969 13.5222 23.5435 13.8149 23.881 13.8728C23.9315 13.8814 23.9723 13.8885 24.6498 13.8885C24.9778 13.8885 25.4551 13.8868 26.1548 13.8829C26.5432 13.8808 26.8562 13.5642 26.854 13.1759C26.8519 12.7889 26.5375 12.4767 26.151 12.4767C26.1497 12.4767 26.1483 12.4767 26.147 12.4767C25.6472 12.4795 25.1104 12.4815 24.7031 12.4819V7.04248C24.7031 6.65417 24.3883 6.33936 24 6.33936Z" fill="white" />
                    <path d="M29.6235 13.185V7.04248C29.6235 6.65407 29.3087 6.33936 28.9204 6.33936C28.5321 6.33936 28.2173 6.65407 28.2173 7.04248V13.185C28.2173 13.5734 28.5321 13.8881 28.9204 13.8881C29.3087 13.8881 29.6235 13.5733 29.6235 13.185Z" fill="white" />
                    <path d="M41.1534 7.77356C41.5417 7.77356 41.8565 7.45875 41.8565 7.07043C41.8565 6.68212 41.5417 6.36731 41.1534 6.36731H38.5889C38.2006 6.36731 37.8857 6.68212 37.8857 7.07043V13.1569C37.8857 13.5452 38.2006 13.86 38.5889 13.86H41.1534C41.5417 13.86 41.8565 13.5452 41.8565 13.1569C41.8565 12.7686 41.5417 12.4537 41.1534 12.4537H39.292V10.8168H40.9643C41.3526 10.8168 41.6674 10.502 41.6674 10.1137C41.6674 9.72534 41.3526 9.41053 40.9643 9.41053H39.292V7.77356H41.1534Z" fill="white" />
                    <path d="M33.9043 13.8881H33.91C34.2679 13.8856 34.5858 13.6563 34.7028 13.3126L36.7084 7.2754C36.8309 6.90687 36.6314 6.5089 36.2628 6.38656C35.8942 6.26403 35.4963 6.46362 35.3739 6.83215L33.8926 11.2912L32.3378 6.8119C32.2104 6.44497 31.8097 6.25081 31.443 6.37822C31.0761 6.50553 30.882 6.90612 31.0093 7.27297L33.1111 13.3282C33.2304 13.6637 33.5486 13.8881 33.9043 13.8881Z" fill="white" />
                    <path d="M39.7818 1.89546H20.2424C19.8541 1.89546 19.5393 2.21017 19.5393 2.59858C19.5393 2.98689 19.8541 3.30171 20.2424 3.30171H39.7817C43.5379 3.30171 46.5938 6.35758 46.5938 10.1137C46.5938 13.8698 43.5379 16.9256 39.7818 16.9256H16.6494C18.3757 15.1702 19.4426 12.7644 19.4426 10.1137C19.4426 4.75333 15.0817 0.392456 9.72131 0.392456C4.36097 0.392456 0 4.75333 0 10.1137C0 15.474 4.36097 19.8349 9.72122 19.8349C11.627 19.8349 13.4061 19.2833 14.9081 18.3319H39.7818C44.3133 18.3319 48 14.6453 48 10.1137C48 5.58208 44.3133 1.89546 39.7818 1.89546ZM1.40625 10.1137C1.40625 5.52874 5.13638 1.79871 9.72122 1.79871C14.3061 1.79871 18.0363 5.52883 18.0363 10.1137C18.0363 14.6985 14.3062 18.4286 9.72122 18.4286C5.13628 18.4286 1.40625 14.6986 1.40625 10.1137Z" fill="white" />
                    <path d="M14.1194 8.97386L8.14371 5.98595C7.68377 5.75598 7.14808 5.78008 6.71074 6.05045C6.2733 6.32073 6.01221 6.78911 6.01221 7.30323V13.2789C6.01221 13.7931 6.2733 14.2615 6.71074 14.5318C7.14893 14.8027 7.6848 14.8258 8.1438 14.5963L8.92661 14.2049C9.27396 14.0313 9.41468 13.6089 9.24105 13.2616C9.06743 12.9143 8.64527 12.7734 8.29774 12.9472L7.51502 13.3386C7.50508 13.3435 7.48193 13.3552 7.45024 13.3357C7.41874 13.3162 7.41874 13.2902 7.41874 13.279V7.30333C7.41874 7.29226 7.41874 7.2662 7.45033 7.2467C7.48183 7.2272 7.50508 7.23882 7.51511 7.24379L13.4908 10.2317C13.5037 10.2382 13.5277 10.2501 13.5277 10.2912C13.5277 10.3324 13.5038 10.3443 13.4908 10.3508L10.9585 11.617C10.6111 11.7907 10.4703 12.213 10.644 12.5603C10.8177 12.9076 11.2399 13.0484 11.5873 12.8747L14.1197 11.6084C14.6219 11.3574 14.9339 10.8526 14.9339 10.2911C14.9339 9.72967 14.6216 9.22501 14.1194 8.97386Z" fill="white" />
                  </svg>