<svg width="23" height="27" viewBox="0 0 23 27" fill="none" xmlns="http://www.w3.org/2000/svg">
<path d="M5.63077 14.5622C5.42436 14.5622 5.21487 14.534 5.00676 14.4749C4.61008 14.3622 4.38002 13.9497 4.49288 13.5536C4.60574 13.1574 5.01906 12.9278 5.4155 13.0404C5.83444 13.1594 6.2718 12.916 6.39094 12.4979C6.51007 12.0798 6.26638 11.6429 5.84768 11.5239C4.37912 11.112 3.0514 10.0931 2.11151 8.65551C1.16634 7.20985 0.666748 5.46717 0.666748 3.61591V3.61014C0.669337 2.88228 0.954556 2.20147 1.46988 1.69047C1.98287 1.18177 2.66283 0.901978 3.38536 0.901978C3.3887 0.901978 3.39188 0.902027 3.39522 0.902027C4.89445 0.907354 6.10985 2.12963 6.10457 3.62667C6.10313 4.03759 5.76902 4.36976 5.35785 4.36976C5.35695 4.36976 5.35606 4.36976 5.35516 4.36976C4.94274 4.36832 4.60958 4.03326 4.61102 3.62144C4.61341 2.9467 4.06563 2.39583 3.38994 2.39344C3.06181 2.39125 2.75449 2.51845 2.52224 2.74876C2.28999 2.97906 2.16145 3.28589 2.16025 3.61273V3.61591C2.16025 5.15457 2.58706 6.6548 3.36211 7.84018C4.10421 8.97523 5.13123 9.77378 6.25398 10.0887C7.46724 10.4335 8.17195 11.697 7.82744 12.9061C7.54217 13.9074 6.62513 14.5621 5.63077 14.5622Z" fill="#FBAC5B"/>
<path d="M17.3886 14.5623C16.394 14.5624 15.4772 13.9076 15.1919 12.9062C14.8473 11.6972 15.5521 10.4336 16.7629 10.0895C17.8881 9.77385 18.9151 8.97535 19.6572 7.8403C20.4322 6.65487 20.8591 5.15464 20.8591 3.61603V3.61026C20.8579 3.28606 20.7294 2.97923 20.4971 2.74888C20.2659 2.51962 19.9594 2.39356 19.6338 2.39356C19.6323 2.39356 19.6309 2.39356 19.6294 2.39356C18.9537 2.39595 18.4059 2.94682 18.4083 3.62156C18.4098 4.03338 18.0766 4.36844 17.6642 4.36988C17.6633 4.36988 17.6624 4.36988 17.6615 4.36988C17.2503 4.36988 16.9162 4.03776 16.9148 3.62679C16.9095 2.12975 18.1249 0.907476 19.6241 0.902149C19.6274 0.902149 19.6307 0.9021 19.6339 0.9021C20.3566 0.9021 21.0364 1.18189 21.5495 1.6906C22.0648 2.20159 22.35 2.8824 22.3526 3.60762V3.61603C22.3526 5.46729 21.853 7.20997 20.9078 8.65563C19.968 10.0932 18.6402 11.1121 17.1692 11.5247C16.7529 11.643 16.5092 12.08 16.6284 12.498C16.7476 12.9161 17.1851 13.1595 17.6038 13.0406C18.0002 12.9278 18.4136 13.1575 18.5264 13.5537C18.6393 13.9499 18.4092 14.3623 18.0125 14.4751C17.8046 14.5341 17.5948 14.5623 17.3886 14.5623Z" fill="#FD8F32"/>
<path d="M15.281 21.9444H7.73821C7.32579 21.9444 6.99143 21.6106 6.99143 21.1987C6.99143 19.5656 7.87083 18.077 9.2693 17.2802V14.1619C8.94644 14.0247 8.63703 13.8582 8.34499 13.6643C6.74778 12.6037 5.7943 10.8271 5.7943 8.91177V1.64783C5.7943 1.23601 6.12865 0.9021 6.54107 0.9021H16.4783C16.8907 0.9021 17.2251 1.23596 17.2251 1.64783V8.91177C17.2251 10.8271 16.2715 12.6037 14.6744 13.6643C14.3823 13.8582 14.0729 14.0247 13.7501 14.1619V17.2802C15.1485 18.077 16.0279 19.5656 16.0279 21.1987C16.0278 21.6106 15.6935 21.9444 15.281 21.9444Z" fill="#FDDB8D"/>
<path d="M14.6742 13.6644C16.2714 12.6038 17.2249 10.8272 17.2249 8.91187V1.64792C17.2249 1.2361 16.8906 0.902191 16.4782 0.902191H11.5096V21.9445H15.281C15.6934 21.9445 16.0278 21.6106 16.0278 21.1987C16.0278 19.5656 15.1484 18.077 13.7499 17.2802V14.162C14.0728 14.0248 14.3822 13.8583 14.6742 13.6644Z" fill="#FBAC5B"/>
<path d="M13.501 16.4038H9.51815C9.10573 16.4038 8.77138 16.0699 8.77138 15.6581C8.77138 15.2462 9.10573 14.9123 9.51815 14.9123H13.501C13.9134 14.9123 14.2477 15.2462 14.2477 15.6581C14.2477 16.0699 13.9134 16.4038 13.501 16.4038Z" fill="#FBAC5B"/>
<path d="M13.5009 14.9124H11.5095V16.4038H13.5009C13.9133 16.4038 14.2477 16.0699 14.2477 15.658C14.2477 15.2462 13.9133 14.9124 13.5009 14.9124Z" fill="#FD8F32"/>
<path d="M11.5095 10.8763C11.0971 10.8763 10.7627 10.5425 10.7627 10.1306V6.22047H10.513C10.1005 6.22047 9.76619 5.88661 9.76619 5.47473C9.76619 5.06286 10.1005 4.729 10.513 4.729H11.5095C11.9219 4.729 12.2563 5.06286 12.2563 5.47473V10.1306C12.2563 10.5425 11.9219 10.8763 11.5095 10.8763Z" fill="#FBAC5B"/>
<path d="M11.5095 4.72913V10.8764C11.9219 10.8764 12.2563 10.5425 12.2563 10.1307V5.47486C12.2563 5.06298 11.9219 4.72913 11.5095 4.72913Z" fill="#FD8F32"/>
<path d="M18.4612 26.392H4.55807C4.14565 26.392 3.81129 26.0581 3.81129 25.6463V21.1986C3.81129 20.7868 4.14565 20.4529 4.55807 20.4529H18.4612C18.8736 20.4529 19.208 20.7867 19.208 21.1986V25.6463C19.2079 26.0581 18.8736 26.392 18.4612 26.392Z" fill="#BA602B"/>
<path d="M18.4612 20.4531H11.5096V26.3921H18.4612C18.8736 26.3921 19.2079 26.0583 19.2079 25.6464V21.1987C19.2079 20.7869 18.8736 20.4531 18.4612 20.4531Z" fill="#964C22"/>
<path d="M19.4569 26.392H3.56242C3.15 26.392 2.81564 26.0581 2.81564 25.6462C2.81564 25.2344 3.15 24.9005 3.56242 24.9005H19.457C19.8694 24.9005 20.2037 25.2344 20.2037 25.6462C20.2037 26.0581 19.8693 26.392 19.4569 26.392Z" fill="#964C22"/>
<path d="M19.4569 24.9007H11.5097V26.3921H19.4569C19.8693 26.3921 20.2037 26.0582 20.2037 25.6464C20.2037 25.2345 19.8693 24.9007 19.4569 24.9007Z" fill="#6F3716"/>
</svg>
