<svg width="22" height="22" viewBox="0 0 22 22" fill="none" xmlns="http://www.w3.org/2000/svg">
<path d="M11.4898 9.83525C10.9736 9.70621 10.4574 9.44812 10.0703 9.06099C9.68318 8.93195 9.55414 8.54482 9.55414 8.28673C9.55414 8.02865 9.68318 7.64152 9.94126 7.51248C10.3284 7.25439 10.7155 6.99631 11.1027 7.12535C11.8769 7.12535 12.5221 7.51248 12.9093 8.02865L14.0706 6.48013C13.6835 6.09301 13.2964 5.83492 12.9093 5.57683C12.5221 5.31875 12.006 5.1897 11.4898 5.1897V3.3831H9.94126V5.1897C9.29605 5.31875 8.65084 5.70588 8.13466 6.22205C7.61849 6.86726 7.23136 7.64152 7.36041 8.41578C7.36041 9.19003 7.61849 9.96429 8.13466 10.4805C8.77988 11.1257 9.68318 11.5128 10.4574 11.8999C10.8446 12.029 11.3607 12.2871 11.7479 12.5452C12.006 12.8032 12.135 13.1904 12.135 13.5775C12.135 13.9646 12.006 14.3518 11.7479 14.7389C11.3607 15.126 10.8446 15.2551 10.4574 15.2551C9.94126 15.2551 9.29605 15.126 8.90892 14.7389C8.52179 14.4808 8.13466 14.0937 7.87658 13.7065L6.58615 15.126C6.97328 15.6422 7.36041 16.0293 7.87658 16.4164C8.52179 16.8036 9.29605 17.1907 10.0703 17.1907V18.8683H11.4898V16.9326C12.264 16.8036 12.9093 16.4164 13.4254 15.9003C14.0706 15.2551 14.4578 14.2227 14.4578 13.3194C14.4578 12.5451 14.1997 11.6418 13.5545 11.1257C12.9093 10.4805 12.264 10.0933 11.4898 9.83525ZM10.7155 0.802246C5.03763 0.802246 0.39209 5.44779 0.39209 11.1257C0.39209 16.8036 5.03763 21.4491 10.7155 21.4491C16.3934 21.4491 21.039 16.8036 21.039 11.1257C21.039 5.44779 16.3934 0.802246 10.7155 0.802246ZM10.7155 20.0296C5.81189 20.0296 1.81156 16.0293 1.81156 11.1257C1.81156 6.22205 5.81189 2.22172 10.7155 2.22172C15.6192 2.22172 19.6195 6.22205 19.6195 11.1257C19.6195 16.0293 15.6192 20.0296 10.7155 20.0296Z" fill="white"/>
</svg>
