<svg width="19" height="20" viewBox="0 0 19 20" fill="none" xmlns="http://www.w3.org/2000/svg">
<path d="M9.41192 0.716064C9.19795 0.716064 8.99274 0.801065 8.84144 0.952367C8.69013 1.10367 8.60513 1.30888 8.60513 1.52285C8.60513 1.73683 8.69013 1.94204 8.84144 2.09334C8.99274 2.24464 9.19795 2.32964 9.41192 2.32964C11.4803 2.32964 13.464 3.15132 14.9266 4.61391C16.3892 6.0765 17.2109 8.06019 17.2109 10.1286C17.2109 12.197 16.3892 14.1807 14.9266 15.6433C13.464 17.1059 11.4803 17.9276 9.41192 17.9276C9.19795 17.9276 8.99274 18.0126 8.84144 18.1639C8.69013 18.3152 8.60513 18.5204 8.60513 18.7344C8.60513 18.9483 8.69013 19.1535 8.84144 19.3048C8.99274 19.4561 9.19795 19.5411 9.41192 19.5411C11.9083 19.5411 14.3024 18.5495 16.0676 16.7843C17.8328 15.0191 18.8245 12.625 18.8245 10.1286C18.8245 7.63224 17.8328 5.23813 16.0676 3.47293C14.3024 1.70774 11.9083 0.716064 9.41192 0.716064Z" fill="white"/>
<path d="M4.60367 7.47191C4.74618 7.31897 4.82377 7.11668 4.82008 6.90767C4.81639 6.69866 4.73172 6.49923 4.5839 6.35142C4.43608 6.2036 4.23666 6.11893 4.02765 6.11524C3.81863 6.11155 3.61635 6.18914 3.46341 6.33165L0.23625 9.5588C0.0851651 9.71008 0.000302753 9.91513 0.000302753 10.1289C0.000302753 10.3427 0.0851651 10.5478 0.23625 10.6991L3.46341 13.9262C3.53727 14.0055 3.62634 14.0691 3.7253 14.1132C3.82427 14.1573 3.9311 14.181 4.03943 14.1829C4.14776 14.1848 4.25536 14.1649 4.35582 14.1243C4.45628 14.0837 4.54754 14.0233 4.62415 13.9467C4.70076 13.8701 4.76116 13.7788 4.80173 13.6784C4.84231 13.5779 4.86224 13.4703 4.86033 13.362C4.85842 13.2537 4.83471 13.1468 4.79061 13.0479C4.74651 12.9489 4.68294 12.8598 4.60367 12.786L2.75343 10.9357H11.5636C11.7775 10.9357 11.9828 10.8507 12.1341 10.6994C12.2854 10.5481 12.3704 10.3429 12.3704 10.1289C12.3704 9.91496 12.2854 9.70975 12.1341 9.55845C11.9828 9.40715 11.7775 9.32215 11.5636 9.32215H2.75343L4.60367 7.47191Z" fill="white"/>
</svg>
