<svg width="24" height="20" viewBox="0 0 24 20" fill="none" xmlns="http://www.w3.org/2000/svg">
<path d="M2.56922 16.1552V16.3052H2.71922H9.92914C10.159 17.0111 10.4817 17.6826 10.8829 18.2914H0.541846V15.4122C0.541846 14.2839 1.11055 13.2154 2.08467 12.6499L2.08514 12.6497C4.30884 11.3481 6.91273 10.5898 9.70134 10.5898C9.89 10.5898 10.0726 10.5956 10.2536 10.6071C9.97752 11.223 9.77987 11.8864 9.66755 12.576C7.36039 12.5819 5.10062 13.1945 3.12039 14.357L3.12017 14.3571C2.77497 14.5605 2.56922 14.9811 2.56922 15.4122V16.1552ZM22.0427 13.0358L21.9809 13.0895L21.9927 13.1705L21.9966 13.1972C22.0303 13.4289 22.061 13.6392 22.061 13.869C22.061 14.0989 22.0303 14.3092 21.9966 14.5409L21.9927 14.5676L21.9809 14.6486L22.0427 14.7023L23.2753 15.775L22.2363 17.5407L20.664 17.0188L20.585 16.9925L20.521 17.0456C20.162 17.3431 19.758 17.5748 19.3081 17.7405L19.2298 17.7694L19.213 17.8511L18.8885 19.4344H16.8058L16.4813 17.8511L16.4645 17.7694L16.3862 17.7405C15.9363 17.5748 15.5322 17.3431 15.1733 17.0456L15.1093 16.9925L15.0303 17.0188L13.458 17.5407L12.419 15.775L13.6516 14.7023L13.7134 14.6486L13.7016 14.5676L13.6977 14.5409C13.6639 14.3092 13.6333 14.0989 13.6333 13.869C13.6333 13.6392 13.6639 13.4289 13.6977 13.1972L13.7016 13.1705L13.7134 13.0895L13.6516 13.0358L12.419 11.9631L13.458 10.1974L15.0303 10.7193L15.1093 10.7455L15.1733 10.6925C15.5322 10.395 15.9363 10.1633 16.3862 9.99759L16.4645 9.96874L16.4813 9.88696L16.8058 8.30365H18.8885L19.213 9.88696L19.2298 9.96874L19.3081 9.99759C19.758 10.1633 20.162 10.395 20.521 10.6925L20.585 10.7455L20.664 10.7193L22.2363 10.1974L23.2753 11.9631L22.0427 13.0358ZM14.2061 4.72442C14.2061 7.16526 12.1928 9.14673 9.70134 9.14673C7.2099 9.14673 5.19659 7.16526 5.19659 4.72442C5.19659 2.28357 7.2099 0.3021 9.70134 0.3021C12.1928 0.3021 14.2061 2.28357 14.2061 4.72442ZM12.1787 4.72442C12.1787 3.38167 11.0617 2.28826 9.70134 2.28826C8.34098 2.28826 7.22397 3.38167 7.22397 4.72442C7.22397 6.06716 8.34098 7.16057 9.70134 7.16057C11.0617 7.16057 12.1787 6.06716 12.1787 4.72442ZM15.3698 13.869C15.3698 15.2118 16.4868 16.3052 17.8471 16.3052C19.2075 16.3052 20.3245 15.2118 20.3245 13.869C20.3245 12.5263 19.2075 11.4329 17.8471 11.4329C16.4868 11.4329 15.3698 12.5263 15.3698 13.869Z" fill="white" stroke="#145E94" stroke-width="0.3"/>
</svg>
