<svg width="19" height="20" viewBox="0 0 19 20" fill="none" xmlns="http://www.w3.org/2000/svg">
<path d="M16.5224 20C16.4255 20 16.3287 19.9751 16.2407 19.9267L11.1998 17.1468C10.5182 17.2986 9.83903 17.3771 9.17749 17.3771C4.21466 17.3771 0.17749 13.4782 0.17749 8.68791C0.17749 3.89765 4.21466 0 9.17749 0C14.1403 0 18.1775 3.89765 18.1775 8.68791C18.1775 11.0556 17.16 13.3329 15.3791 14.9715C15.2949 16.4099 16.496 18.4517 16.9877 19.144C17.1361 19.3548 17.116 19.6361 16.9362 19.8246C16.828 19.9385 16.6746 20 16.5224 20ZM11.2854 16.0173C11.3822 16.0173 11.4791 16.0435 11.5658 16.0906L15.0383 18.0054C14.5579 17.0015 14.1215 15.7293 14.2787 14.6378C14.2975 14.5108 14.3592 14.3943 14.4585 14.308C16.1048 12.867 17.0481 10.8187 17.0481 8.68922C17.0481 4.50101 13.5178 1.09286 9.17875 1.09286C4.83973 1.09286 1.30941 4.50101 1.30941 8.68922C1.30941 12.8774 4.83847 16.2856 9.17749 16.2856C9.81765 16.2856 10.4792 16.2031 11.1433 16.0369C11.1898 16.0238 11.2376 16.0173 11.2854 16.0173Z" fill="white"/>
</svg>
