<svg width="19" height="20" viewBox="0 0 19 20" fill="none" xmlns="http://www.w3.org/2000/svg">
<path d="M15.7877 6.9794H17.8119C18.0803 6.9794 18.3378 7.07689 18.5276 7.25043C18.7174 7.42397 18.824 7.65933 18.824 7.90475V19.0089C18.824 19.2544 18.7174 19.4897 18.5276 19.6633C18.3378 19.8368 18.0803 19.9343 17.8119 19.9343H1.6183C1.34988 19.9343 1.09244 19.8368 0.902639 19.6633C0.712833 19.4897 0.606201 19.2544 0.606201 19.0089V7.90475C0.606201 7.65933 0.712833 7.42397 0.902639 7.25043C1.09244 7.07689 1.34988 6.9794 1.6183 6.9794H3.6425V6.05405C3.6425 4.58154 4.2823 3.16935 5.42113 2.12812C6.55997 1.0869 8.10456 0.501953 9.71511 0.501953C11.3257 0.501953 12.8703 1.0869 14.0091 2.12812C15.1479 3.16935 15.7877 4.58154 15.7877 6.05405V6.9794ZM2.6304 8.8301V18.0836H16.7998V8.8301H2.6304ZM8.70301 12.5315H10.7272V14.3822H8.70301V12.5315ZM4.65461 12.5315H6.67881V14.3822H4.65461V12.5315ZM12.7514 12.5315H14.7756V14.3822H12.7514V12.5315ZM13.7635 6.9794V6.05405C13.7635 5.07238 13.337 4.13091 12.5778 3.43677C11.8185 2.74262 10.7888 2.35265 9.71511 2.35265C8.64141 2.35265 7.61168 2.74262 6.85246 3.43677C6.09323 4.13091 5.66671 5.07238 5.66671 6.05405V6.9794H13.7635Z" fill="white"/>
</svg>
