<svg width="18" height="17" viewBox="0 0 18 17" fill="none" xmlns="http://www.w3.org/2000/svg">
<path d="M15.9663 9.71617H9.89366V15.7888C9.89366 16.1109 9.7657 16.4198 9.53794 16.6476C9.31017 16.8753 9.00125 17.0033 8.67914 17.0033C8.35703 17.0033 8.04811 16.8753 7.82034 16.6476C7.59258 16.4198 7.46462 16.1109 7.46462 15.7888V9.71617H1.39201C1.0699 9.71617 0.760982 9.58821 0.533216 9.36045C0.305449 9.13268 0.17749 8.82376 0.17749 8.50165C0.17749 8.17954 0.305449 7.87062 0.533216 7.64285C0.760982 7.41509 1.0699 7.28713 1.39201 7.28713H7.46462V1.21452C7.46462 0.89241 7.59258 0.583492 7.82034 0.355725C8.04811 0.127958 8.35703 0 8.67914 0C9.00125 0 9.31017 0.127958 9.53794 0.355725C9.7657 0.583492 9.89366 0.89241 9.89366 1.21452V7.28713H15.9663C16.2884 7.28713 16.5973 7.41509 16.8251 7.64285C17.0528 7.87062 17.1808 8.17954 17.1808 8.50165C17.1808 8.82376 17.0528 9.13268 16.8251 9.36045C16.5973 9.58821 16.2884 9.71617 15.9663 9.71617Z" fill="white"/>
</svg>
