<svg width="15" height="13" viewBox="0 0 15 13" fill="none" xmlns="http://www.w3.org/2000/svg">
<path d="M13.2692 1.67702H11.2702L10.2873 0.248758C10.2346 0.17228 10.1633 0.109567 10.0796 0.0661763C9.99598 0.0227852 9.90258 5.52053e-05 9.80769 0H5.19231C5.09742 5.52053e-05 5.00402 0.0227852 4.92037 0.0661763C4.83672 0.109567 4.7654 0.17228 4.71274 0.248758L3.72909 1.67702H1.73077C1.27174 1.67702 0.831513 1.8537 0.506931 2.16821C0.182348 2.48271 0 2.90926 0 3.35404V11.1801C0 11.6249 0.182348 12.0515 0.506931 12.366C0.831513 12.6805 1.27174 12.8571 1.73077 12.8571H13.2692C13.7283 12.8571 14.1685 12.6805 14.4931 12.366C14.8177 12.0515 15 11.6249 15 11.1801V3.35404C15 2.90926 14.8177 2.48271 14.4931 2.16821C14.1685 1.8537 13.7283 1.67702 13.2692 1.67702ZM13.8462 11.1801C13.8462 11.3284 13.7854 11.4706 13.6772 11.5754C13.569 11.6802 13.4222 11.7391 13.2692 11.7391H1.73077C1.57776 11.7391 1.43102 11.6802 1.32282 11.5754C1.21463 11.4706 1.15385 11.3284 1.15385 11.1801V3.35404C1.15385 3.20578 1.21463 3.06359 1.32282 2.95876C1.43102 2.85393 1.57776 2.79503 1.73077 2.79503H4.03846C4.13347 2.79509 4.22702 2.77242 4.31081 2.72902C4.39459 2.68562 4.46602 2.62285 4.51875 2.54627L5.50096 1.11801H9.49832L10.4812 2.54627C10.534 2.62285 10.6054 2.68562 10.6892 2.72902C10.773 2.77242 10.8665 2.79509 10.9615 2.79503H13.2692C13.4222 2.79503 13.569 2.85393 13.6772 2.95876C13.7854 3.06359 13.8462 3.20578 13.8462 3.35404V11.1801ZM7.5 3.91304C6.87242 3.91304 6.25894 4.09336 5.73713 4.4312C5.21532 4.76903 4.80862 5.24921 4.56846 5.811C4.3283 6.3728 4.26546 6.99099 4.38789 7.58739C4.51033 8.18379 4.81253 8.73162 5.2563 9.1616C5.70006 9.59158 6.26545 9.8844 6.88096 10.003C7.49648 10.1217 8.13448 10.0608 8.71428 9.82808C9.29409 9.59537 9.78965 9.2013 10.1383 8.6957C10.487 8.19009 10.6731 7.59566 10.6731 6.98758C10.6721 6.17244 10.3375 5.39096 9.74265 4.81457C9.14779 4.23819 8.34126 3.91397 7.5 3.91304ZM7.5 8.9441C7.10063 8.9441 6.71024 8.82935 6.37818 8.61437C6.04611 8.39938 5.7873 8.09381 5.63447 7.73631C5.48164 7.3788 5.44166 6.98541 5.51957 6.60588C5.59748 6.22635 5.78979 5.87773 6.07219 5.60411C6.35458 5.33048 6.71437 5.14414 7.10607 5.06865C7.49776 4.99316 7.90376 5.0319 8.27273 5.17999C8.64169 5.32807 8.95705 5.57884 9.17893 5.90059C9.4008 6.22234 9.51923 6.60061 9.51923 6.98758C9.51923 7.50648 9.30649 8.00413 8.92781 8.37105C8.54913 8.73797 8.03553 8.9441 7.5 8.9441Z" fill="black"/>
</svg>
