<svg width="10" height="10" viewBox="0 0 10 10" fill="none" xmlns="http://www.w3.org/2000/svg">
<path d="M3.50467 8.46901C3.45438 8.66461 3.38814 8.85316 3.30628 9.03261C3.28809 9.02723 3.26991 9.02186 3.25192 9.01629C3.10073 8.96953 2.95179 8.91531 2.80591 8.85348C2.78082 8.84284 2.46071 8.69898 2.4634 8.69116C2.50904 8.55903 2.54912 8.42245 2.58216 8.28271C2.88207 8.37586 3.19125 8.43839 3.50467 8.46901Z" fill="#D3DCE2"/>
<path d="M4.61065 9.22131C7.15705 9.22131 9.22131 7.15705 9.22131 4.61065C9.22131 2.06426 7.15705 0 4.61065 0C2.06426 0 0 2.06426 0 4.61065C0 7.15705 2.06426 9.22131 4.61065 9.22131Z" fill="#94E061"/>
<path d="M3.30665 9.03291C3.01567 8.94736 2.73321 8.83304 2.46376 8.69146C2.7785 7.78102 2.82379 6.66497 2.21713 5.69162C1.69493 4.85392 0.842024 4.3603 0.0234375 4.14372C0.0527641 3.85943 0.108247 3.57883 0.188967 3.30566C1.31986 3.47119 2.42849 4.24096 3.08338 5.44721C3.73644 6.65012 3.77949 7.99534 3.30665 9.03291Z" fill="white"/>
<path d="M6.81028 8.66278C4.75317 9.77957 2.22173 9.16902 0.882812 7.32478C2.29337 8.58001 4.39372 8.88435 6.1487 7.93161C8.38657 6.71665 9.21571 3.91762 8.00075 1.67975C7.90259 1.499 7.7942 1.32753 7.67637 1.16553C8.06441 1.51069 8.4003 1.92806 8.66252 2.41094C9.87749 4.64878 9.04815 7.44782 6.81028 8.66278Z" fill="#70CF3D"/>
<path d="M9.20048 5.04925C9.17375 5.32818 9.12162 5.60358 9.04497 5.87191C7.93967 5.68448 6.86426 4.92213 6.22347 3.7417C5.58101 2.55828 5.52868 1.23735 5.97758 0.207031C6.24871 0.291282 6.51204 0.400212 6.76405 0.533083C6.49979 1.33013 6.4456 2.30199 6.85109 3.19015C7.32468 4.22807 8.27242 4.80634 9.20048 5.04925Z" fill="white"/>
<path d="M9.20058 5.04938C9.19024 5.15728 9.17633 5.26056 9.159 5.36727C9.15248 5.40742 9.05299 5.87339 9.04506 5.87204C8.76522 5.82454 8.48723 5.74028 8.21777 5.6215C8.328 5.35093 8.41245 5.07053 8.46997 4.78418C8.7088 4.89758 8.95542 4.98516 9.20058 5.04938Z" fill="#D3DCE2"/>
<path d="M9.20059 5.04934C9.19724 5.08424 9.19353 5.11893 9.18946 5.15364C9.18742 5.17108 9.18519 5.18836 9.18296 5.20579C9.18054 5.22305 9.17831 5.24049 9.17572 5.25775C9.17368 5.27259 9.17145 5.28743 9.16923 5.30229C9.16608 5.324 9.16255 5.34553 9.15902 5.36725C9.15531 5.3886 9.15159 5.41013 9.1477 5.43145C9.14659 5.43758 9.14547 5.4437 9.14435 5.44983C9.14026 5.47191 9.13601 5.494 9.13155 5.51608C9.13155 5.51626 9.13155 5.51646 9.13137 5.51664C9.12674 5.54002 9.12191 5.56323 9.1167 5.58643C9.11373 5.60089 9.1104 5.61538 9.10705 5.62986C9.10407 5.64303 9.1011 5.65621 9.09795 5.66938C9.09406 5.68646 9.08979 5.70354 9.08552 5.72042C9.08125 5.73731 9.07698 5.75419 9.07253 5.77109C9.06381 5.80486 9.05472 5.83846 9.04506 5.87204C8.76522 5.82454 8.48723 5.74028 8.21777 5.6215C8.328 5.35093 8.41245 5.07053 8.46997 4.78418C8.70881 4.89754 8.95544 4.98512 9.20059 5.04934Z" fill="#D3DCE2"/>
</svg>
