<svg width="28" height="28" viewBox="0 0 28 28" fill="none" xmlns="http://www.w3.org/2000/svg">
<circle cx="14" cy="14" r="14" fill="url(#paint0_linear_666_25)"/>
<mask id="mask0_666_25" style="mask-type:alpha" maskUnits="userSpaceOnUse" x="0" y="0" width="28" height="28">
<circle cx="14" cy="14" r="14" fill="#E3CC57"/>
</mask>
<g mask="url(#mask0_666_25)">
<mask id="path-3-inside-1_666_25" fill="white">
<path d="M28.3882 4.74826C27.5818 7.83743 25.7438 10.5582 23.1789 12.4594C20.614 14.3606 17.4763 15.328 14.2862 15.2012C11.096 15.0745 8.04501 13.8611 5.63907 11.7624C3.23314 9.66364 1.61681 6.80562 1.05811 3.6622L4.00146 3.13906C4.44086 5.61124 5.71205 7.85898 7.60423 9.50956C9.49642 11.1601 11.8959 12.1144 14.4049 12.2141C16.9138 12.3138 19.3815 11.553 21.3987 10.0577C23.4159 8.56251 24.8614 6.42273 25.4956 3.99321L28.3882 4.74826Z"/>
</mask>
<path d="M28.3882 4.74826L31.2909 5.50598L32.0486 2.60324L29.1459 1.84553L28.3882 4.74826ZM1.05811 3.6622L0.53312 0.708494L-2.42059 1.23348L-1.8956 4.18719L1.05811 3.6622ZM4.00146 3.13906L6.95517 2.61407L6.43018 -0.339637L3.47648 0.185349L4.00146 3.13906ZM25.4956 3.99321L26.2533 1.09047L23.3506 0.332758L22.5929 3.23549L25.4956 3.99321ZM25.4854 3.99055C24.8519 6.41775 23.4077 8.55549 21.3924 10.0493L24.9653 14.8695C28.0799 12.5609 30.3117 9.25711 31.2909 5.50598L25.4854 3.99055ZM21.3924 10.0493C19.3772 11.5431 16.9118 12.3032 14.4053 12.2036L14.1671 18.1989C18.0408 18.3528 21.8508 17.1781 24.9653 14.8695L21.3924 10.0493ZM14.4053 12.2036C11.8987 12.104 9.50152 11.1506 7.61114 9.50164L3.667 14.0231C6.58849 16.5716 10.2933 18.0449 14.1671 18.1989L14.4053 12.2036ZM7.61114 9.50164C5.72077 7.85264 4.45079 5.60704 4.01181 3.13722L-1.8956 4.18719C-1.21718 8.00419 0.745506 11.4747 3.667 14.0231L7.61114 9.50164ZM1.58309 6.61591L4.52645 6.09276L3.47648 0.185349L0.53312 0.708494L1.58309 6.61591ZM1.04775 3.66404C1.60687 6.80982 3.22442 9.66999 5.63216 11.7703L9.5763 7.24883C8.19968 6.04798 7.27485 4.41267 6.95517 2.61407L1.04775 3.66404ZM5.63216 11.7703C8.0399 13.8706 11.0932 15.0849 14.2858 15.2117L14.524 9.21647C12.6987 9.14393 10.9529 8.44968 9.5763 7.24883L5.63216 11.7703ZM14.2858 15.2117C17.4783 15.3386 20.6183 14.3705 23.1851 12.4678L19.6122 7.64764C18.1447 8.73547 16.3493 9.28901 14.524 9.21647L14.2858 15.2117ZM23.1851 12.4678C25.752 10.5652 27.5914 7.84241 28.3983 4.75092L22.5929 3.23549C22.1315 5.00305 21.0798 6.55981 19.6122 7.64764L23.1851 12.4678ZM24.7379 6.89594L27.6305 7.651L29.1459 1.84553L26.2533 1.09047L24.7379 6.89594Z" fill="white" mask="url(#path-3-inside-1_666_25)"/>
</g>
<mask id="mask1_666_25" style="mask-type:alpha" maskUnits="userSpaceOnUse" x="0" y="0" width="28" height="28">
<circle cx="14" cy="14" r="14" fill="black"/>
</mask>
<g mask="url(#mask1_666_25)">
<mask id="path-6-inside-2_666_25" fill="white">
<path d="M1.25894 29.3698C2.16335 26.3079 4.08714 23.6471 6.71131 21.8286C9.33548 20.0101 12.5024 19.1432 15.6869 19.3716C18.8714 19.5999 21.8822 20.9099 24.22 23.0842C26.5578 25.2585 28.0823 28.1666 28.5405 31.3262L25.582 31.7553C25.2216 29.2704 24.0227 26.9833 22.1841 25.2733C20.3454 23.5632 17.9775 22.533 15.473 22.3534C12.9685 22.1738 10.4779 22.8556 8.41407 24.2858C6.35025 25.716 4.83726 27.8086 4.12597 30.2167L1.25894 29.3698Z"/>
</mask>
<path d="M1.25894 29.3698C2.16335 26.3079 4.08714 23.6471 6.71131 21.8286C9.33548 20.0101 12.5024 19.1432 15.6869 19.3716C18.8714 19.5999 21.8822 20.9099 24.22 23.0842C26.5578 25.2585 28.0823 28.1666 28.5405 31.3262L25.582 31.7553C25.2216 29.2704 24.0227 26.9833 22.1841 25.2733C20.3454 23.5632 17.9775 22.533 15.473 22.3534C12.9685 22.1738 10.4779 22.8556 8.41407 24.2858C6.35025 25.716 4.83726 27.8086 4.12597 30.2167L1.25894 29.3698Z" fill="black"/>
<path d="M1.25894 29.3698L-1.61817 28.52L-2.468 31.3971L0.409116 32.2469L1.25894 29.3698ZM28.5405 31.3262L28.9711 34.2952L31.9401 33.8646L31.5095 30.8957L28.5405 31.3262ZM25.582 31.7553L22.6131 32.1859L23.0436 35.1549L26.0126 34.7243L25.582 31.7553ZM4.12597 30.2167L3.27615 33.0938L6.15326 33.9436L7.00309 31.0665L4.12597 30.2167ZM4.13606 30.2197C4.84667 27.8139 6.35821 25.7232 8.42006 24.2944L5.00256 19.3628C1.81607 21.571 -0.519961 24.802 -1.61817 28.52L4.13606 30.2197ZM8.42006 24.2944C10.4819 22.8656 12.9702 22.1844 15.4723 22.3639L15.9015 16.3792C12.0346 16.1019 8.18905 17.1546 5.00256 19.3628L8.42006 24.2944ZM15.4723 22.3639C17.9744 22.5433 20.34 23.5726 22.1769 25.281L26.2631 20.8875C23.4243 18.2472 19.7684 16.6565 15.9015 16.3792L15.4723 22.3639ZM22.1769 25.281C24.0138 26.9894 25.2115 29.2743 25.5716 31.7568L31.5095 30.8957C30.953 27.059 29.1019 23.5277 26.2631 20.8875L22.1769 25.281ZM28.1099 28.3573L25.1514 28.7864L26.0126 34.7243L28.9711 34.2952L28.1099 28.3573ZM28.5509 31.3247C28.0923 28.1627 26.5668 25.2525 24.2272 23.0765L20.1409 27.47C21.4786 28.7141 22.3509 30.3781 22.6131 32.1859L28.5509 31.3247ZM24.2272 23.0765C21.8876 20.9005 18.8745 19.5896 15.6876 19.3611L15.2585 25.3457C17.0806 25.4764 18.8033 26.2259 20.1409 27.47L24.2272 23.0765ZM15.6876 19.3611C12.5007 19.1325 9.33146 20.0001 6.70532 21.82L10.1228 26.7516C11.6243 25.7111 13.4364 25.215 15.2585 25.3457L15.6876 19.3611ZM6.70532 21.82C4.07918 23.6398 2.15395 26.3026 1.24886 29.3669L7.00309 31.0665C7.52057 29.3145 8.62133 27.7921 10.1228 26.7516L6.70532 21.82ZM4.9758 27.3396L2.10877 26.4927L0.409116 32.2469L3.27615 33.0938L4.9758 27.3396Z" fill="white" mask="url(#path-6-inside-2_666_25)"/>
</g>
<defs>
<linearGradient id="paint0_linear_666_25" x1="5" y1="3.5" x2="22.5" y2="24.5" gradientUnits="userSpaceOnUse">
<stop stop-color="#E3CC57"/>
<stop offset="0.707486" stop-color="#DEC858"/>
<stop offset="1" stop-color="#C3BD5C"/>
</linearGradient>
</defs>
</svg>
