<svg width="10" height="12" viewBox="0 0 10 12" fill="none" xmlns="http://www.w3.org/2000/svg">
<path d="M2.1638 5.95444C2.07383 5.95444 1.98251 5.94216 1.8918 5.9164C1.71889 5.86727 1.61861 5.68747 1.6678 5.5148C1.717 5.34212 1.89716 5.24201 2.06997 5.2911C2.25258 5.34297 2.44323 5.23689 2.49516 5.05464C2.54709 4.87237 2.44086 4.68192 2.25836 4.63006C1.61821 4.4505 1.03947 4.00637 0.629769 3.37974C0.217771 2.74959 0 1.98996 0 1.183V1.18048C0.00112846 0.863209 0.125455 0.566445 0.350084 0.343704C0.573693 0.121961 0.870088 0 1.18504 0C1.18649 0 1.18788 2.17012e-05 1.18933 2.17012e-05C1.84284 0.00234373 2.37264 0.53513 2.37033 1.18768C2.36971 1.36681 2.22407 1.5116 2.04484 1.5116C2.04445 1.5116 2.04406 1.5116 2.04367 1.5116C1.86389 1.51097 1.71867 1.36492 1.7193 1.18541C1.72034 0.89129 1.48156 0.651166 1.18703 0.650124C1.044 0.64917 0.91004 0.704616 0.808804 0.805006C0.707567 0.905396 0.651535 1.03914 0.651014 1.18161V1.183C0.651014 1.85369 0.837059 2.50764 1.1749 3.02434C1.49838 3.51911 1.94605 3.8672 2.43546 4.00448C2.96432 4.15476 3.2715 4.70554 3.12133 5.23257C2.99698 5.66903 2.59724 5.9544 2.1638 5.95444Z" fill="#FBAC5B"/>
<path d="M7.28911 5.95444C6.85559 5.95448 6.45596 5.66907 6.33157 5.23255C6.18137 4.70554 6.48858 4.15474 7.01637 4.00476C7.50684 3.86718 7.95451 3.51911 8.27799 3.02434C8.61583 2.50762 8.80188 1.85367 8.80188 1.183V1.18048C8.80138 1.03916 8.74535 0.905417 8.64409 0.805006C8.54331 0.705072 8.40974 0.650124 8.26779 0.650124C8.26714 0.650124 8.26651 0.650124 8.26586 0.650124C7.97133 0.651166 7.73257 0.89129 7.73362 1.18541C7.73425 1.36492 7.58902 1.51097 7.40925 1.5116C7.40886 1.5116 7.40847 1.5116 7.40808 1.5116C7.22882 1.5116 7.08321 1.36683 7.08258 1.18768C7.08028 0.53513 7.61007 0.00234373 8.26356 2.17012e-05C8.26499 2.17012e-05 8.26642 0 8.26786 0C8.58285 0 8.8792 0.121961 9.10283 0.343704C9.32748 0.566445 9.45179 0.863209 9.45292 1.17933V1.183C9.45292 1.98996 9.23514 2.74959 8.82312 3.37974C8.41345 4.00637 7.8347 4.4505 7.19347 4.63036C7.01203 4.68193 6.9058 4.8724 6.95773 5.05464C7.00969 5.23689 7.2004 5.34297 7.38292 5.29112C7.55573 5.24199 7.7359 5.34212 7.78509 5.51482C7.83429 5.68749 7.73401 5.86729 7.56109 5.91642C7.47047 5.94216 7.37902 5.95444 7.28911 5.95444Z" fill="#FD8F32"/>
<path d="M6.37011 9.17229H3.08221C2.90244 9.17229 2.75669 9.02676 2.75669 8.84723C2.75669 8.13537 3.14002 7.48648 3.74961 7.13915V5.7799C3.60887 5.72011 3.474 5.64752 3.3467 5.56299C2.65048 5.10069 2.23486 4.32626 2.23486 3.4914V0.325062C2.23486 0.14555 2.38061 0 2.56038 0H6.89198C7.07176 0 7.2175 0.145528 7.2175 0.325062V3.4914C7.2175 4.32629 6.80186 5.10071 6.10566 5.56299C5.97834 5.64752 5.84347 5.72011 5.70276 5.7799V7.13915C6.31234 7.48648 6.69567 8.13537 6.69567 8.84723C6.69563 9.02676 6.54991 9.17229 6.37011 9.17229Z" fill="#FDDB8D"/>
<path d="M6.10553 5.56299C6.80173 5.10071 7.21737 4.32629 7.21737 3.4914V0.325062C7.21737 0.14555 7.07163 0 6.89185 0H4.72607V9.17227H6.37003C6.5498 9.17227 6.69554 9.02674 6.69554 8.84721C6.69554 8.13534 6.31221 7.48646 5.70263 7.13913V5.7799C5.84336 5.72011 5.97823 5.64752 6.10553 5.56299Z" fill="#FBAC5B"/>
<path d="M5.59384 6.75706H3.85774C3.67797 6.75706 3.53223 6.61153 3.53223 6.432C3.53223 6.25246 3.67797 6.10693 3.85774 6.10693H5.59384C5.77361 6.10693 5.91936 6.25246 5.91936 6.432C5.91936 6.61153 5.77361 6.75706 5.59384 6.75706Z" fill="#FBAC5B"/>
<path d="M5.59363 6.10693H4.72559V6.75704H5.59363C5.77341 6.75704 5.91915 6.61151 5.91915 6.43197C5.91915 6.25244 5.77341 6.10693 5.59363 6.10693Z" fill="#FD8F32"/>
<path d="M4.72573 4.34757C4.54596 4.34757 4.40021 4.20204 4.40021 4.02251V2.31809H4.29134C4.11157 2.31809 3.96582 2.17256 3.96582 1.99303C3.96582 1.8135 4.11157 1.66797 4.29134 1.66797H4.72573C4.9055 1.66797 5.05125 1.8135 5.05125 1.99303V4.02251C5.05125 4.20204 4.9055 4.34757 4.72573 4.34757Z" fill="#FBAC5B"/>
<path d="M4.72559 1.66797V4.34755C4.90536 4.34755 5.0511 4.20202 5.0511 4.02248V1.99303C5.0511 1.8135 4.90536 1.66797 4.72559 1.66797Z" fill="#FD8F32"/>
<path d="M7.75644 11.1108H1.69612C1.51635 11.1108 1.37061 10.9653 1.37061 10.7858V8.84703C1.37061 8.66752 1.51635 8.52197 1.69612 8.52197H7.75647C7.93624 8.52197 8.08198 8.6675 8.08198 8.84703V10.7858C8.08196 10.9653 7.93622 11.1108 7.75644 11.1108Z" fill="#BA602B"/>
<path d="M7.75623 8.52246H4.72607V11.1113H7.75623C7.93601 11.1113 8.08175 10.9658 8.08175 10.7862V8.8475C8.08175 8.66799 7.93601 8.52246 7.75623 8.52246Z" fill="#964C22"/>
<path d="M8.19041 11.1106H1.26204C1.08227 11.1106 0.936523 10.965 0.936523 10.7855C0.936523 10.606 1.08227 10.4604 1.26204 10.4604H8.19043C8.3702 10.4604 8.51595 10.606 8.51595 10.7855C8.51595 10.965 8.37018 11.1106 8.19041 11.1106Z" fill="#964C22"/>
<path d="M8.19075 10.4609H4.72656V11.111H8.19075C8.37052 11.111 8.51626 10.9655 8.51626 10.786C8.51626 10.6064 8.37052 10.4609 8.19075 10.4609Z" fill="#6F3716"/>
</svg>
