<svg width="30" height="30" viewBox="0 0 30 30" fill="none" xmlns="http://www.w3.org/2000/svg">
<circle cx="15" cy="15" r="14.65" fill="white" stroke="black" stroke-width="0.7"/>
<path d="M20.7692 10.2483H18.7702L17.7873 8.82005C17.7346 8.74357 17.6633 8.68086 17.5796 8.63747C17.496 8.59407 17.4026 8.57134 17.3077 8.57129H12.6923C12.5974 8.57134 12.504 8.59407 12.4204 8.63747C12.3367 8.68086 12.2654 8.74357 12.2127 8.82005L11.2291 10.2483H9.23077C8.77174 10.2483 8.33151 10.425 8.00693 10.7395C7.68235 11.054 7.5 11.4806 7.5 11.9253V19.7514C7.5 20.1962 7.68235 20.6227 8.00693 20.9372C8.33151 21.2517 8.77174 21.4284 9.23077 21.4284H20.7692C21.2283 21.4284 21.6685 21.2517 21.9931 20.9372C22.3177 20.6227 22.5 20.1962 22.5 19.7514V11.9253C22.5 11.4806 22.3177 11.054 21.9931 10.7395C21.6685 10.425 21.2283 10.2483 20.7692 10.2483ZM21.3462 19.7514C21.3462 19.8997 21.2854 20.0419 21.1772 20.1467C21.069 20.2515 20.9222 20.3104 20.7692 20.3104H9.23077C9.07776 20.3104 8.93102 20.2515 8.82282 20.1467C8.71463 20.0419 8.65385 19.8997 8.65385 19.7514V11.9253C8.65385 11.7771 8.71463 11.6349 8.82282 11.53C8.93102 11.4252 9.07776 11.3663 9.23077 11.3663H11.5385C11.6335 11.3664 11.727 11.3437 11.8108 11.3003C11.8946 11.2569 11.966 11.1941 12.0188 11.1176L13.001 9.6893H16.9983L17.9812 11.1176C18.034 11.1941 18.1054 11.2569 18.1892 11.3003C18.273 11.3437 18.3665 11.3664 18.4615 11.3663H20.7692C20.9222 11.3663 21.069 11.4252 21.1772 11.53C21.2854 11.6349 21.3462 11.7771 21.3462 11.9253V19.7514ZM15 12.4843C14.3724 12.4843 13.7589 12.6647 13.2371 13.0025C12.7153 13.3403 12.3086 13.8205 12.0685 14.3823C11.8283 14.9441 11.7655 15.5623 11.8879 16.1587C12.0103 16.7551 12.3125 17.3029 12.7563 17.7329C13.2001 18.1629 13.7654 18.4557 14.381 18.5743C14.9965 18.693 15.6345 18.6321 16.2143 18.3994C16.7941 18.1667 17.2897 17.7726 17.6383 17.267C17.987 16.7614 18.1731 16.167 18.1731 15.5589C18.1721 14.7437 17.8375 13.9623 17.2427 13.3859C16.6478 12.8095 15.8413 12.4853 15 12.4843ZM15 17.5154C14.6006 17.5154 14.2102 17.4006 13.8782 17.1857C13.5461 16.9707 13.2873 16.6651 13.1345 16.3076C12.9816 15.9501 12.9417 15.5567 13.0196 15.1772C13.0975 14.7976 13.2898 14.449 13.5722 14.1754C13.8546 13.9018 14.2144 13.7154 14.6061 13.6399C14.9978 13.5644 15.4038 13.6032 15.7727 13.7513C16.1417 13.8994 16.4571 14.1501 16.6789 14.4719C16.9008 14.7936 17.0192 15.1719 17.0192 15.5589C17.0192 16.0778 16.8065 16.5754 16.4278 16.9423C16.0491 17.3093 15.5355 17.5154 15 17.5154Z" fill="black"/>
</svg>
