<svg width="24" height="13" viewBox="0 0 24 13" fill="none" xmlns="http://www.w3.org/2000/svg">
<path d="M11.6733 10.1618L21.8548 0.254463C21.9368 0.172894 22.0342 0.108408 22.1414 0.0647346C22.2485 0.0210613 22.3633 -0.000930969 22.4789 3.01573e-05C22.5946 0.000991283 22.709 0.0248861 22.8154 0.0703333C22.9218 0.11578 23.0181 0.181877 23.0988 0.264798C23.1795 0.347719 23.2429 0.445817 23.2854 0.553416C23.328 0.661016 23.3487 0.77598 23.3465 0.891656C23.3443 1.00733 23.3192 1.12142 23.2726 1.22732C23.226 1.33323 23.1589 1.42884 23.0751 1.50863L12.2835 12.0086C12.1201 12.1676 11.9012 12.2565 11.6733 12.2565C11.4454 12.2565 11.2265 12.1676 11.0631 12.0086L0.27145 1.50863C0.187669 1.42884 0.120544 1.33323 0.0739582 1.22732C0.0273721 1.12142 0.0022514 1.00733 4.90757e-05 0.891655C-0.00215325 0.775979 0.0186062 0.661015 0.0611275 0.553415C0.103649 0.445816 0.167086 0.347718 0.247769 0.264797C0.328453 0.181876 0.424782 0.115779 0.531178 0.0703323C0.637575 0.0248852 0.751929 0.000990329 0.867621 2.92126e-05C0.983314 -0.000931904 1.09805 0.0210604 1.20519 0.0647337C1.31232 0.108407 1.40974 0.172893 1.49179 0.254462L11.6733 10.1618Z" fill="#210C0C"/>
</svg>
