<svg width="9" height="14" viewBox="0 0 9 14" fill="none" xmlns="http://www.w3.org/2000/svg">
<path d="M3.98624 13.8164L0.211352 10.5403C-0.0713859 10.2949 -0.0703337 9.89798 0.21382 9.65372C0.497937 9.40949 0.957481 9.41043 1.24026 9.65582L3.77419 11.855L3.77419 0.626878C3.77419 0.280654 4.09914 3.00733e-07 4.5 3.18255e-07C4.90086 3.35778e-07 5.22581 0.280654 5.22581 0.626878L5.22581 11.855L7.75974 9.65585C8.04252 9.41046 8.50206 9.40952 8.78618 9.65375C9.07037 9.89802 9.07135 10.295 8.78865 10.5403L5.01445 13.8159C4.73073 14.0614 4.26901 14.0612 3.98624 13.8164Z" fill="#E44C4C"/>
</svg>
