<svg width="13" height="24" viewBox="0 0 13 24" fill="none" xmlns="http://www.w3.org/2000/svg">
<path d="M10.1618 11.6734L0.254463 1.4919C0.172894 1.40984 0.108408 1.31243 0.0647346 1.2053C0.0210614 1.09816 -0.000930926 0.983424 3.01952e-05 0.867731C0.000991316 0.752038 0.0248862 0.637685 0.0703333 0.531288C0.11578 0.424892 0.181877 0.328564 0.264798 0.247881C0.347719 0.167197 0.445817 0.103759 0.553416 0.0612376C0.661016 0.0187164 0.77598 -0.00204378 0.891656 0.000158552C1.00733 0.00236088 1.12142 0.027482 1.22732 0.0740681C1.33323 0.120654 1.42884 0.18778 1.50863 0.271562L12.0086 11.0632C12.1676 11.2266 12.2565 11.4455 12.2565 11.6734C12.2565 11.9013 12.1676 12.1202 12.0086 12.2836L1.50863 23.0752C1.42884 23.159 1.33323 23.2261 1.22732 23.2727C1.12142 23.3193 1.00733 23.3444 0.891656 23.3466C0.77598 23.3488 0.661016 23.3281 0.553416 23.2856C0.445817 23.243 0.347719 23.1796 0.264798 23.0989C0.181877 23.0182 0.11578 22.9219 0.0703333 22.8155C0.0248862 22.7091 0.000991316 22.5948 3.01952e-05 22.4791C-0.000930926 22.3634 0.0210614 22.2486 0.0647346 22.1415C0.108408 22.0344 0.172894 21.9369 0.254463 21.8549L10.1618 11.6734Z" fill="#145E94"/>
</svg>
