<svg width="79" height="34" viewBox="0 0 79 34" fill="none" xmlns="http://www.w3.org/2000/svg">
<g filter="url(#filter0_b_132_293)">
<path d="M50.8924 25.793H48.5037L48.3597 24.17H46.4715L45.7469 25.793H44.7571L47.7676 19.3125H50.1884L50.8924 25.793ZM46.8098 23.4248H48.2888L48.0534 20.6498L46.8098 23.4248Z" fill="#210C0C"/>
<path d="M57.3115 20.0874H55.6679L54.4541 25.793H52.2505L53.4643 20.0874H51.8413L52.0242 19.3125H57.4852L57.3115 20.0874Z" fill="#210C0C"/>
<path d="M59.7506 22.9974C59.9546 22.9974 60.126 22.9122 60.2649 22.7414C60.4049 22.5711 60.5209 22.3636 60.6123 22.1196C60.7049 21.8744 60.7712 21.619 60.8112 21.3538C60.8524 21.0886 60.8729 20.8572 60.8729 20.6589C60.8729 20.476 60.8421 20.3217 60.7815 20.1949C60.7203 20.0686 60.5878 20.0051 60.3837 20.0051H59.9243L59.2819 22.9974H59.7506ZM59.1379 23.6489L58.6785 25.793H56.4749L57.8533 19.3125H60.21C60.5986 19.3125 60.9518 19.3331 61.2707 19.3742C61.5907 19.4142 61.8662 19.4954 62.0982 19.6188C62.3296 19.7411 62.5102 19.916 62.6399 20.1446C62.7691 20.372 62.8342 20.676 62.8342 21.0566C62.8342 21.4104 62.7777 21.7458 62.6651 22.0624C62.5519 22.3796 62.3713 22.6556 62.1233 22.8899C61.8747 23.1248 61.553 23.31 61.1587 23.4454C60.7638 23.5814 60.2843 23.6489 59.7208 23.6489H59.1379Z" fill="#210C0C"/>
<path d="M64.5375 23.7425C64.5112 23.8922 64.4929 24.0345 64.4826 24.1699C64.4717 24.306 64.4666 24.4283 64.4666 24.538C64.4666 24.5991 64.4695 24.6671 64.4757 24.7414C64.4832 24.8163 64.4986 24.8866 64.5215 24.9517C64.5455 25.0157 64.5798 25.07 64.6243 25.114C64.6683 25.1586 64.7318 25.1803 64.8141 25.1803C64.8746 25.1803 64.9444 25.1609 65.0221 25.1209C65.1009 25.0797 65.1798 25.022 65.2575 24.9472C65.3352 24.8711 65.4095 24.7791 65.4815 24.6706C65.553 24.5608 65.6096 24.4385 65.6507 24.3025H67.324L67.0588 25.3952C66.9228 25.4838 66.7668 25.5586 66.5902 25.6192C66.4131 25.6804 66.2256 25.7301 66.0279 25.7678C65.8313 25.8044 65.6307 25.8307 65.4267 25.8478C65.2221 25.8661 65.0278 25.8752 64.8438 25.8752C64.5038 25.8752 64.1877 25.8444 63.8951 25.7838C63.6025 25.7215 63.3471 25.6158 63.1294 25.4661C62.911 25.3169 62.739 25.118 62.6127 24.8694C62.4876 24.6214 62.4253 24.3134 62.4253 23.9459C62.4253 23.6122 62.4779 23.2853 62.583 22.9653C62.6893 22.6452 62.8665 22.3612 63.1133 22.1126C63.3614 21.8646 63.6951 21.6657 64.1146 21.516C64.5335 21.3669 65.0552 21.292 65.6804 21.292C66.3616 21.292 66.8737 21.3983 67.2165 21.6097C67.5606 21.82 67.7332 22.1492 67.7332 22.5972C67.7332 22.7818 67.7057 22.9813 67.6509 23.1961C67.596 23.4099 67.5143 23.5916 67.4063 23.7425H64.5375ZM65.8953 22.5264C65.8953 22.3161 65.861 22.1738 65.7924 22.0989C65.725 22.0246 65.6438 21.9869 65.5478 21.9869C65.4393 21.9869 65.3387 22.0229 65.2461 22.0943C65.1547 22.1646 65.0712 22.2601 64.9969 22.3801C64.9221 22.4989 64.8541 22.6355 64.7935 22.7893C64.7323 22.9418 64.6815 23.1024 64.6403 23.2716H65.8039C65.8176 23.191 65.8313 23.1064 65.845 23.0178C65.8587 22.9418 65.8701 22.8596 65.8793 22.771C65.8896 22.683 65.8953 22.6012 65.8953 22.5264Z" fill="#210C0C"/>
<path d="M70.3467 22.0578C70.4884 21.9223 70.6473 21.7966 70.8244 21.6806C70.981 21.5846 71.165 21.4966 71.3753 21.4154C71.5868 21.3331 71.8222 21.292 72.0817 21.292C72.4348 21.292 72.7269 21.3829 72.9572 21.564C73.1886 21.744 73.3046 21.9903 73.3046 22.3024C73.3046 22.3909 73.2943 22.4984 73.2749 22.6247C73.2549 22.7498 73.2315 22.8807 73.204 23.0178C73.1766 23.1539 73.1475 23.2916 73.1172 23.4316C73.0863 23.5705 73.0606 23.6939 73.0395 23.8019L72.612 25.7929H70.5387L71.101 23.1299C71.1147 23.0419 71.1313 22.9516 71.1513 22.8601C71.1724 22.7675 71.1833 22.6835 71.1833 22.6087C71.1833 22.5069 71.157 22.4235 71.1056 22.3595C71.0553 22.2944 70.9787 22.2612 70.877 22.2612C70.7536 22.2612 70.6353 22.3058 70.5227 22.3938C70.4112 22.4824 70.3249 22.5572 70.2644 22.6178L69.59 25.7929H67.5076L68.4379 21.404H70.0998L70.2849 22.0578H70.3467Z" fill="#210C0C"/>
<path d="M76.0422 22.0578C76.1839 21.9223 76.3428 21.7966 76.52 21.6806C76.6766 21.5846 76.8606 21.4966 77.0709 21.4154C77.2823 21.3331 77.5178 21.292 77.7772 21.292C78.1304 21.292 78.4224 21.3829 78.6527 21.564C78.8842 21.744 79.0002 21.9903 79.0002 22.3024C79.0002 22.3909 78.9899 22.4984 78.9705 22.6247C78.9505 22.7498 78.927 22.8807 78.8996 23.0178C78.8722 23.1539 78.843 23.2916 78.8127 23.4316C78.7819 23.5705 78.7562 23.6939 78.735 23.8019L78.3075 25.7929H76.2342L76.7966 23.1299C76.8103 23.0419 76.8269 22.9516 76.8469 22.8601C76.868 22.7675 76.8789 22.6835 76.8789 22.6087C76.8789 22.5069 76.8526 22.4235 76.8011 22.3595C76.7508 22.2944 76.6743 22.2612 76.5725 22.2612C76.4491 22.2612 76.3308 22.3058 76.2182 22.3938C76.1068 22.4824 76.0205 22.5572 75.9599 22.6178L75.2856 25.7929H73.2031L74.1335 21.404H75.7953L75.9805 22.0578H76.0422Z" fill="#210C0C"/>
<path d="M65.0248 29.2151C64.9997 29.6471 64.8471 29.9517 64.5511 30.1803C64.3985 30.2992 64.187 30.3586 63.9241 30.3586C63.899 30.3586 63.8733 30.3586 63.8481 30.3586C63.8224 30.3586 63.7887 30.3586 63.7636 30.35C63.687 30.4175 63.6447 30.4855 63.6447 30.5615C63.6447 30.6632 63.7293 30.7227 63.8567 30.7564C63.9836 30.7987 64.1362 30.8244 64.2967 30.8495C64.5676 30.8832 64.8556 30.9512 65.0928 31.1118C65.3214 31.273 65.4826 31.5187 65.4826 31.925C65.4826 32.3736 65.2877 32.6782 65.0168 32.8565C64.7374 33.0343 64.3648 33.1103 64.0173 33.1103C63.611 33.1017 63.2641 33.0428 63.0269 32.9068C62.7812 32.7714 62.6458 32.5514 62.6458 32.2131C62.6458 32.0519 62.7303 31.9165 62.8572 31.7976C62.9846 31.6793 63.1538 31.5861 63.3144 31.5101C63.0349 31.4336 62.7983 31.2558 62.7983 30.8918C62.7983 30.7564 62.8743 30.6209 62.9761 30.4941C63.0778 30.3666 63.2047 30.2655 63.3315 30.1975C63.0858 30.0369 62.9675 29.7826 62.9081 29.5711C62.8743 29.4437 62.8492 29.3168 62.8406 29.19V27.9281C62.8743 27.4967 63.0098 27.1829 63.3064 26.9378C63.4504 26.8103 63.6618 26.7515 63.9241 26.7515C64.3562 26.7515 64.6185 26.9458 64.7796 27.1744C64.8385 27.1155 64.9402 27.0138 65.0757 26.9206C65.2031 26.8275 65.3465 26.7515 65.4826 26.7515V27.5132C65.2534 27.5132 65.0842 27.5555 64.9825 27.615C64.9911 27.6573 64.9997 27.6995 65.0082 27.7253C65.0082 27.759 65.0082 27.7927 65.0168 27.8184C65.0248 27.8436 65.0248 27.8773 65.0248 27.903V29.2151ZM64.187 27.9619C64.187 27.8013 64.1527 27.6995 64.0853 27.6064C64.051 27.5641 64.0007 27.539 63.9241 27.539C63.7887 27.539 63.7213 27.6487 63.6956 27.7504C63.679 27.8098 63.6704 27.8858 63.679 27.9619V29.2322C63.6704 29.3934 63.6956 29.4945 63.7721 29.5791C63.8058 29.622 63.8567 29.6471 63.9241 29.6471C64.0682 29.6471 64.1276 29.5454 64.1613 29.4437C64.1784 29.3848 64.187 29.3082 64.187 29.2322V27.9619ZM63.7887 31.6622C63.611 31.7639 63.4755 31.8907 63.4755 32.069C63.4755 32.2468 63.6361 32.3908 64.0344 32.3908C64.1784 32.3908 64.339 32.3651 64.4665 32.3142C64.5933 32.2633 64.6865 32.1873 64.6865 32.077C64.6865 32.001 64.6779 31.9416 64.6185 31.8827C64.5511 31.8233 64.4408 31.781 64.2293 31.7473L63.7887 31.6622Z" fill="#210C0C"/>
<path d="M68.175 27.6995C68.0984 27.6744 68.0139 27.6658 67.9379 27.6658C67.8024 27.6658 67.6413 27.6824 67.5058 27.8098C67.3452 27.9453 67.3195 28.0893 67.3195 28.2333V31.4507H66.4646V26.8189H67.3195V27.3355C67.3281 27.2761 67.3875 27.1321 67.523 26.9966C67.6584 26.8698 67.8613 26.7515 68.175 26.7515V27.6995Z" fill="#210C0C"/>
<path d="M71.299 30.3243C71.2733 30.7735 71.1379 31.0867 70.8419 31.3324C70.6893 31.4593 70.4778 31.5187 70.1984 31.5187C69.648 31.5187 69.3766 31.2135 69.2412 30.909C69.1651 30.7312 69.1143 30.5278 69.1057 30.2992V27.9704C69.1314 27.5218 69.2669 27.1915 69.5629 26.9378C69.7069 26.8103 69.9189 26.7515 70.1984 26.7515C70.7487 26.7515 71.0282 27.0561 71.1636 27.3527C71.2396 27.5304 71.2905 27.7253 71.299 27.9453V30.3243ZM70.4944 27.9704C70.503 27.7927 70.4693 27.6658 70.3847 27.5641C70.3424 27.5218 70.2744 27.4967 70.1984 27.4967C70.0372 27.4967 69.9698 27.6064 69.9355 27.7333C69.9104 27.8013 69.9018 27.8773 69.9104 27.9704V30.2992C69.9018 30.4769 69.9441 30.6038 70.0206 30.6969C70.0629 30.7392 70.1218 30.7649 70.1984 30.7649C70.359 30.7649 70.4355 30.6632 70.4693 30.5363C70.4944 30.4683 70.503 30.3923 70.4944 30.2992V27.9704Z" fill="#210C0C"/>
<path d="M73.8559 26.8188H74.7114V31.4507H73.8559V31.0609C73.8387 31.0695 73.805 31.1038 73.7627 31.1461C73.661 31.2472 73.5427 31.3661 73.3901 31.4507C73.3141 31.4929 73.2376 31.5187 73.1615 31.5187C72.933 31.5187 72.7724 31.3827 72.6707 31.2049C72.5689 31.0358 72.5181 30.8072 72.5181 30.6123V26.8188H73.3736V30.4854C73.3736 30.6632 73.4747 30.6883 73.5764 30.6883C73.6696 30.6883 73.7205 30.638 73.7799 30.5786C73.805 30.5529 73.8307 30.5106 73.8559 30.4683V26.8188Z" fill="#210C0C"/>
<path d="M76.0237 26.8189H76.8786V27.1241C77.0226 26.9886 77.1495 26.8869 77.3192 26.8103C77.3952 26.768 77.4798 26.7515 77.5564 26.7515C77.793 26.7515 77.9541 26.8869 78.0644 27.0561C78.1656 27.2338 78.2164 27.4624 78.2164 27.6573V30.6124C78.2164 30.8072 78.1656 31.0358 78.0644 31.205C77.9541 31.3827 77.793 31.5187 77.5564 31.5187C77.3952 31.5187 77.2261 31.4256 77.0986 31.3324C77.0226 31.273 76.9552 31.2135 76.8786 31.1461V33.0428H76.0237V26.8189ZM76.8786 30.4346C76.8786 30.5701 77.0055 30.7141 77.1329 30.7141C77.2598 30.7141 77.3615 30.5952 77.3615 30.4346V27.835C77.3615 27.6744 77.2598 27.5555 77.1329 27.5555C77.0055 27.5555 76.8786 27.6744 76.8786 27.835V30.4346Z" fill="#210C0C"/>
<path d="M53.6866 17.0031C53.4334 15.8287 51.4424 15.7219 51.4424 15.7219C50.3389 15.9562 49.5651 15.5836 48.6067 15.7236C41.901 16.7037 38.4659 16.1453 38.4659 16.1453C39.2774 14.1715 40.9981 9.89739 42.2108 9.76309C43.5611 9.61394 44.927 12.6925 45.8333 12.7148C46.1025 12.7216 46.4957 12.1301 46.4957 12.1301C47.386 11.9136 47.5289 11.2741 47.5289 11.2741C46.5705 11.8838 44.9567 9.57451 45.527 8.93617C46.1019 8.29268 47.8392 8.9916 48.6039 9.73738C49.4393 10.5534 48.7736 11.4918 48.7736 11.4918C48.7736 11.4918 49.5565 11.2381 49.8091 10.5614C49.8434 10.4694 49.8845 10.3843 49.9274 10.3083C50.0503 10.0923 50.2383 9.92368 50.4577 9.80652C50.7229 9.66594 50.8915 9.37506 50.5314 8.91331C50.0514 8.29954 49.2285 7.09316 48.857 6.2188C48.4627 6.25194 47.8021 6.21023 47.542 5.61704C47.4449 5.39759 47.2569 4.70153 47.2569 4.70153L48.7284 5.86906C48.7067 5.79591 48.6919 5.72733 48.6793 5.6639C48.3758 4.1712 46.7488 3.27741 46.7488 3.27741C45.3967 2.28419 44.0595 0.937792 43.2297 0C43.2297 0 41.3461 3.16369 44.1429 4.73239C42.7228 4.00204 42.2165 3.17569 42.1462 2.42077C34.2952 0.870358 29.3188 6.10165 27.8393 7.18116C26.0254 8.5047 23.6521 9.64365 21.2599 10.5934C20.6615 10.8295 20.0695 11.0666 19.4889 11.2849C19.1991 11.3964 18.9123 11.5055 18.63 11.6135C18.3482 11.7221 18.0693 11.821 17.7962 11.9221C17.5236 12.0221 17.2556 12.1204 16.9944 12.2164C16.7332 12.3142 16.4772 12.3982 16.2292 12.4862C15.9812 12.5725 15.7406 12.6565 15.5086 12.7376C15.392 12.7776 15.2782 12.8176 15.1662 12.8565C15.0542 12.8931 14.9445 12.9291 14.8371 12.9639C14.4067 13.1051 14.0147 13.2331 13.6678 13.3462C13.3209 13.456 13.0198 13.5434 12.7718 13.6194C12.2769 13.7691 11.9968 13.8537 11.9968 13.8537C11.9968 13.8537 12.358 13.7766 12.9752 13.6457C13.1295 13.6126 13.3004 13.5765 13.485 13.5371C13.6695 13.4994 13.8684 13.448 14.0804 13.3988C14.2919 13.3485 14.5165 13.2954 14.7519 13.2388C14.9874 13.1822 15.2348 13.1274 15.4903 13.0588C16.0012 12.9251 16.5509 12.7873 17.1235 12.6325C17.4098 12.553 17.7019 12.4719 17.9985 12.3896C18.2951 12.3062 18.5968 12.2262 18.8997 12.1359C19.2037 12.0461 19.5095 11.957 19.8163 11.8667C20.1238 11.777 20.4324 11.6867 20.7393 11.5912C21.0461 11.4969 21.353 11.4027 21.6571 11.3095C21.8096 11.2626 21.9611 11.2158 22.112 11.1695C22.2628 11.1221 22.4125 11.0741 22.5611 11.0266C19.522 12.2776 15.8497 13.684 12.8912 14.5783C12.7066 14.6355 12.5249 14.6915 12.3466 14.7464C12.2574 14.7749 12.1688 14.8007 12.0808 14.8241C11.9934 14.8492 11.9065 14.8732 11.8202 14.8972C11.4762 14.9938 11.147 15.0858 10.8362 15.1733C10.6802 15.219 10.5281 15.2538 10.3813 15.2898C10.2338 15.3264 10.0915 15.3613 9.95438 15.395C9.6795 15.4624 9.42519 15.5247 9.19431 15.5813C8.26738 15.7722 7.71476 15.8865 7.71476 15.8865C7.71476 15.8865 8.08851 15.8425 8.73713 15.7664C8.81828 15.7573 8.90401 15.747 8.99373 15.7367C9.08345 15.7247 9.17717 15.7167 9.27489 15.6996C9.47034 15.6693 9.68121 15.6361 9.90637 15.6007C10.1321 15.5653 10.3716 15.5276 10.6241 15.4881C10.8762 15.447 11.1402 15.391 11.4156 15.3401C13.6221 14.9281 16.5292 14.2086 19.3334 13.3748C19.0694 13.4788 18.8043 13.576 18.5408 13.6748C18.2779 13.7731 18.0162 13.8714 17.7573 13.968C17.6276 14.016 17.4984 14.0646 17.3704 14.112C17.2418 14.1577 17.1138 14.2035 16.987 14.2486C16.7327 14.3389 16.4823 14.428 16.236 14.5155C15.7451 14.6944 15.2674 14.8492 14.8165 15.0007C14.5908 15.0761 14.3719 15.1493 14.1604 15.2195C13.9484 15.2887 13.7421 15.3498 13.545 15.4116C13.1506 15.5339 12.79 15.6447 12.4717 15.743C12.15 15.8333 11.8711 15.911 11.6408 15.9756C11.1808 16.1042 10.9202 16.1768 10.9202 16.1768C10.9202 16.1768 11.1951 16.1242 11.6785 16.0322C11.9203 15.9847 12.2151 15.931 12.5523 15.863C12.8889 15.7893 13.2689 15.7059 13.6844 15.6144C13.8913 15.567 14.1096 15.5247 14.3319 15.4676C14.5553 15.4133 14.7868 15.3567 15.0245 15.2984C15.2622 15.2401 15.5068 15.1801 15.7571 15.119C16.0074 15.0567 16.2618 14.9864 16.5212 14.9184C17.0401 14.7795 17.5796 14.6406 18.1242 14.4823C18.6694 14.3252 19.2283 14.1737 19.7832 14.004C19.3723 14.1663 18.9637 14.3178 18.5665 14.4658C18.3676 14.5406 18.1722 14.6132 17.9796 14.6858C17.7876 14.7572 17.5984 14.8292 17.4121 14.8938C17.0395 15.0264 16.6829 15.1533 16.3475 15.2721C16.18 15.3316 16.0183 15.3916 15.8606 15.4441C15.7029 15.4967 15.5514 15.547 15.4063 15.5956C15.1154 15.6927 14.8514 15.7807 14.6182 15.8585C14.5022 15.8979 14.3936 15.9339 14.293 15.9676C14.1924 15.999 14.0999 16.0276 14.0164 16.0533C13.6827 16.1556 13.4958 16.2139 13.4958 16.2139C13.4958 16.2139 13.5832 16.1945 13.7455 16.1585C13.9073 16.1219 14.1462 16.0745 14.4433 16.0019C14.7405 15.9293 15.0994 15.8413 15.5068 15.7419C15.7103 15.6904 15.928 15.6419 16.1526 15.5807C16.3778 15.5207 16.6138 15.4584 16.8584 15.3933C17.1035 15.3281 17.3578 15.2607 17.619 15.191C17.8807 15.1212 18.1465 15.043 18.4202 14.9658C18.9665 14.8109 19.5375 14.6515 20.1135 14.4761C20.6907 14.3035 21.2799 14.1292 21.8622 13.9446C22.4457 13.7623 23.0286 13.5823 23.5926 13.3977C23.3812 13.4845 23.1686 13.5725 22.956 13.66C22.7429 13.7463 22.5291 13.832 22.3165 13.9171C21.8908 14.0874 21.4713 14.2606 21.0587 14.4212C20.6461 14.5818 20.2449 14.7378 19.8632 14.8869C19.7672 14.9241 19.6729 14.9607 19.5797 14.9972C19.4866 15.0321 19.394 15.0664 19.3031 15.1007C19.1214 15.1687 18.9454 15.2344 18.7762 15.2978C18.4374 15.4241 18.1253 15.5407 17.8482 15.6441C17.5687 15.7442 17.3241 15.831 17.1224 15.9025C16.7184 16.0459 16.4852 16.1288 16.4852 16.1288C16.4852 16.1288 16.6835 16.0768 17.0321 15.9842C17.3796 15.8905 17.8807 15.7636 18.4757 15.591C18.774 15.5064 19.0974 15.415 19.4403 15.3178C19.7843 15.2218 20.1421 15.1098 20.5164 14.9995C20.8896 14.8869 21.2787 14.7749 21.6702 14.6515C22.0622 14.5292 22.4617 14.4046 22.8629 14.2795C21.7148 14.7486 20.5221 15.2258 19.3723 15.6653C19.0837 15.7744 18.7991 15.8825 18.5191 15.9882C18.3791 16.0413 18.2402 16.0939 18.1025 16.1459C17.9642 16.1956 17.827 16.2453 17.691 16.2945C17.4196 16.3922 17.1544 16.4876 16.8967 16.5802C16.6384 16.6722 16.3903 16.766 16.1463 16.846C15.6594 17.0105 15.2097 17.1626 14.8091 17.298C14.7096 17.3329 14.6113 17.3643 14.5165 17.3934C14.4216 17.4226 14.3296 17.4517 14.2416 17.4792C14.065 17.5346 13.9021 17.5855 13.7547 17.6312C13.4604 17.7232 13.2272 17.7963 13.0678 17.846C12.9889 17.8718 12.9261 17.8878 12.8843 17.9003C12.842 17.9123 12.8203 17.9186 12.8203 17.9186C12.8203 17.9186 12.8398 17.9141 12.8775 17.9072C12.9146 17.8992 12.9718 17.8889 13.0432 17.8723C13.1872 17.8392 13.3992 17.7912 13.6695 17.7295C13.9404 17.6672 14.2707 17.5912 14.6502 17.5043C15.0262 17.4094 15.452 17.302 15.9183 17.1843C16.312 17.0883 16.7298 16.9728 17.1698 16.8522C14.4147 17.8638 11.7968 18.7513 9.77322 19.4022C9.47834 19.497 9.19603 19.5879 8.92801 19.6742C8.65999 19.7605 8.40625 19.8422 8.16737 19.9148C7.68962 20.0617 7.2753 20.1897 6.9347 20.2948C6.59353 20.3994 6.32779 20.484 6.14549 20.5366C5.96319 20.5908 5.86661 20.6188 5.86661 20.6188C5.86661 20.6188 5.99119 20.5926 6.22264 20.5446C6.45295 20.4948 6.78955 20.4205 7.21415 20.3274C7.63819 20.2331 8.15137 20.1234 8.73256 19.9902C9.31318 19.8548 9.96352 19.7033 10.6647 19.5393C11.3642 19.3679 12.1151 19.1833 12.8986 18.9907C13.6804 18.789 14.4953 18.5804 15.324 18.3615C15.7371 18.2489 16.1543 18.1358 16.5726 18.0215C16.9915 17.9083 17.4121 17.7952 17.8293 17.674C18.6642 17.434 19.4992 17.2026 20.3055 16.9563C18.2373 17.7615 15.9509 18.6221 13.6684 19.4165C13.1004 19.621 12.5289 19.8108 11.9643 20.0045C11.6814 20.1017 11.4002 20.1977 11.1208 20.2925C10.8419 20.388 10.5624 20.4771 10.2858 20.5686C9.73322 20.7491 9.19031 20.9309 8.6577 21.1017C8.12451 21.2703 7.60447 21.4349 7.10043 21.5938C6.59753 21.7561 6.1072 21.9001 5.63859 22.043C5.16998 22.1847 4.72195 22.323 4.29677 22.4487C3.4447 22.695 2.69035 22.9179 2.06116 23.0962C0.800479 23.4477 0.0495605 23.6568 0.0495605 23.6568C0.0495605 23.6568 0.559888 23.5597 1.44625 23.3916C1.66798 23.3494 1.91314 23.3031 2.18002 23.2522C2.44633 23.2013 2.73378 23.1413 3.04066 23.0796C3.34755 23.0179 3.67386 22.9522 4.01732 22.8825C4.18876 22.8476 4.36477 22.8122 4.54536 22.7756C4.7248 22.7367 4.90825 22.6979 5.09569 22.6579C8.09822 22.0252 12.0528 21.0966 15.8777 20.0514C12.9849 21.1 10.1298 22.0458 7.99422 22.7173C6.92784 23.0596 6.03863 23.3219 5.41915 23.5111C5.10941 23.6048 4.8671 23.6785 4.70137 23.7282C4.53564 23.7768 4.44707 23.802 4.44707 23.802C4.44707 23.802 4.54022 23.7837 4.71509 23.7482C4.88939 23.7111 5.14541 23.6568 5.47172 23.5871C6.12435 23.4465 7.05985 23.2511 8.1828 22.991C10.4304 22.483 13.4352 21.7509 16.4698 20.916C16.3292 20.9674 16.1892 21.0189 16.0497 21.0697C15.9097 21.12 15.7703 21.1692 15.632 21.2189C15.3548 21.3166 15.0805 21.4138 14.8102 21.5098C14.269 21.7018 13.7433 21.8892 13.2364 22.0595C12.73 22.2327 12.246 22.3978 11.7905 22.5539C11.3345 22.707 10.9047 22.8459 10.5121 22.9756C10.119 23.1048 9.76179 23.2225 9.44634 23.3259C9.13031 23.4259 8.85657 23.5128 8.63198 23.5837C8.18337 23.7254 7.93135 23.8048 7.93135 23.8048C7.93135 23.8048 8.40339 23.698 9.2086 23.5157C9.61149 23.4259 10.095 23.3048 10.6464 23.1745C11.1979 23.043 11.8157 22.8967 12.4792 22.7264C12.8112 22.643 13.1558 22.5561 13.5101 22.4664C13.6873 22.4213 13.8667 22.3756 14.049 22.3293C14.2302 22.2818 14.4142 22.2333 14.5999 22.1841C15.3417 21.9847 16.1189 21.7869 16.9041 21.5641C17.6904 21.3452 18.4928 21.1269 19.2883 20.8909C19.686 20.7749 20.0838 20.6594 20.4781 20.5446C20.873 20.4291 21.2627 20.3074 21.6491 20.1914C19.3352 21.0983 16.919 21.9967 15.0731 22.6419C14.1524 22.9728 13.3724 23.2333 12.8255 23.4214C12.2786 23.6082 11.9625 23.7162 11.9625 23.7162C11.9625 23.7162 12.2311 23.6488 12.702 23.5299C12.9381 23.4711 13.2244 23.3991 13.5535 23.3162C13.8827 23.2328 14.2547 23.1402 14.6599 23.0316C15.4691 22.8156 16.4195 22.5716 17.4361 22.2847C17.6904 22.2133 17.9493 22.1418 18.2122 22.0687C18.4745 21.9961 18.7408 21.923 19.0083 21.8441C19.5437 21.6881 20.0889 21.5298 20.6364 21.3703C19.0654 21.9772 17.4361 22.5922 15.8692 23.1551C15.0857 23.4351 14.321 23.7134 13.585 23.9631C12.85 24.2169 12.1506 24.4632 11.4956 24.6775C10.8419 24.8941 10.239 25.0998 9.6995 25.2729C9.15888 25.4461 8.68513 25.5981 8.29367 25.7238C8.09765 25.7867 7.92164 25.8427 7.76905 25.8919C7.61533 25.9393 7.48446 25.9799 7.37817 26.0124C7.16558 26.0787 7.05128 26.1136 7.05128 26.1136C7.05128 26.1136 7.15358 26.0907 7.34559 26.0479C7.53818 26.0056 7.82106 25.9427 8.18109 25.8564C8.90115 25.6844 9.93838 25.4495 11.1876 25.1335C13.6907 24.5152 17.059 23.618 20.529 22.5733C21.3988 22.319 22.2691 22.0395 23.14 21.7704C23.5755 21.6372 24.007 21.4932 24.4373 21.3543C24.8682 21.2149 25.2956 21.076 25.7202 20.9383C26.5655 20.6531 27.397 20.3754 28.2005 20.0988C28.6011 19.9582 28.9948 19.8199 29.3811 19.6845C29.7674 19.5473 30.1469 19.4187 30.5138 19.2827C30.6721 19.225 30.8281 19.1679 30.983 19.1119C31.0224 19.1707 31.0624 19.2279 31.103 19.2799C31.7162 20.0605 35.9302 20.2811 37.6835 20.1777C39.5717 20.0662 49.0416 17.8386 49.0416 17.8386C49.0416 17.8386 50.4029 18.0003 50.9806 18.0466C51.1103 18.0575 51.2355 18.0003 51.3144 17.8963L51.4778 17.6786C51.4778 17.6786 52.0944 17.8272 51.8344 18.6621C51.8344 18.6621 52.7293 17.9775 52.5716 17.3637C52.6105 17.382 52.6505 17.402 52.6922 17.426C53.4728 17.8878 52.7322 18.6084 52.7322 18.6084C52.7322 18.6084 53.9311 18.1398 53.6866 17.0031Z" fill="#210C0C"/>
<path d="M43.2703 21.8475C42.3125 21.4892 41.9022 20.8268 41.1015 20.4662C40.9067 20.3788 40.7055 20.2839 40.5003 20.1851C39.3391 20.3142 38.1647 20.4439 37.2075 20.5462C36.8457 20.5845 36.5452 20.6165 36.2937 20.6422C38.5367 21.5412 40.4038 22.2961 40.4038 22.2961C40.4038 22.2961 41.3661 23.0824 41.7844 23.4002C41.8787 23.4716 42.0022 23.4893 42.1125 23.4482L42.3445 23.3613C42.3445 23.3613 42.7434 23.7751 42.137 24.2865C42.137 24.2865 43.1554 24.1997 43.3337 23.6533C43.3554 23.6859 43.3754 23.7214 43.3954 23.7602C43.768 24.4934 42.8497 24.6831 42.8497 24.6831C42.8497 24.6831 43.9955 24.91 44.3618 23.9208C44.7407 22.9001 43.2703 21.8475 43.2703 21.8475Z" fill="#210C0C"/>
</g>
<defs>
<filter id="filter0_b_132_293" x="-4" y="-4" width="87.0002" height="41.1104" filterUnits="userSpaceOnUse" color-interpolation-filters="sRGB">
<feFlood flood-opacity="0" result="BackgroundImageFix"/>
<feGaussianBlur in="BackgroundImageFix" stdDeviation="2"/>
<feComposite in2="SourceAlpha" operator="in" result="effect1_backgroundBlur_132_293"/>
<feBlend mode="normal" in="SourceGraphic" in2="effect1_backgroundBlur_132_293" result="shape"/>
</filter>
</defs>
</svg>
