<svg width="17" height="18" viewBox="0 0 17 18" fill="none" xmlns="http://www.w3.org/2000/svg">
<circle cx="8.5" cy="9.13623" r="8.5" fill="white"/>
<path d="M5.94164 10.035C5.85166 10.035 5.76034 10.0227 5.66963 9.99696C5.49672 9.94783 5.39644 9.76804 5.44563 9.59536C5.49483 9.42269 5.67499 9.32258 5.8478 9.37167C6.03042 9.42353 6.22106 9.31746 6.27299 9.13521C6.32492 8.95294 6.2187 8.76249 6.03619 8.71063C5.39605 8.53107 4.8173 8.08693 4.4076 7.46031C3.9956 6.83015 3.77783 6.07052 3.77783 5.26356V5.26105C3.77896 4.94377 3.90329 4.64701 4.12792 4.42427C4.35152 4.20253 4.64792 4.08057 4.96287 4.08057C4.96432 4.08057 4.96571 4.08059 4.96717 4.08059C5.62068 4.08291 6.15047 4.6157 6.14817 5.26825C6.14754 5.44737 6.0019 5.59216 5.82267 5.59216C5.82228 5.59216 5.82189 5.59216 5.8215 5.59216C5.64173 5.59153 5.4965 5.44548 5.49713 5.26597C5.49817 4.97186 5.25939 4.73173 4.96487 4.73069C4.82183 4.72974 4.68787 4.78518 4.58664 4.88557C4.4854 4.98596 4.42937 5.11971 4.42885 5.26217V5.26356C4.42885 5.93426 4.61489 6.58821 4.95273 7.10491C5.27621 7.59968 5.72389 7.94776 6.21329 8.08505C6.74215 8.23533 7.04933 8.7861 6.89916 9.31314C6.77481 9.74959 6.37507 10.035 5.94164 10.035Z" fill="#FBAC5B"/>
<path d="M11.0667 10.035C10.6332 10.035 10.2335 9.74964 10.1092 9.31312C9.95896 8.7861 10.2662 8.2353 10.794 8.08533C11.2844 7.94774 11.7321 7.59968 12.0556 7.10491C12.3934 6.58818 12.5795 5.93424 12.5795 5.26356V5.26105C12.579 5.11973 12.5229 4.98598 12.4217 4.88557C12.3209 4.78564 12.1873 4.73069 12.0454 4.73069C12.0447 4.73069 12.0441 4.73069 12.0434 4.73069C11.7489 4.73173 11.5102 4.97186 11.5112 5.26597C11.5118 5.44548 11.3666 5.59153 11.1868 5.59216C11.1864 5.59216 11.1861 5.59216 11.1857 5.59216C11.0064 5.59216 10.8608 5.44739 10.8602 5.26825C10.8579 4.6157 11.3877 4.08291 12.0411 4.08059C12.0426 4.08059 12.044 4.08057 12.0454 4.08057C12.3604 4.08057 12.6568 4.20253 12.8804 4.42427C13.1051 4.64701 13.2294 4.94377 13.2305 5.2599V5.26356C13.2305 6.07052 13.0127 6.83015 12.6007 7.46031C12.191 8.08693 11.6123 8.53107 10.9711 8.71093C10.7896 8.76249 10.6834 8.95296 10.7353 9.13521C10.7873 9.31746 10.978 9.42353 11.1605 9.37169C11.3333 9.32256 11.5135 9.42269 11.5627 9.59538C11.6119 9.76806 11.5116 9.94785 11.3387 9.99699C11.2481 10.0227 11.1566 10.035 11.0667 10.035Z" fill="#FD8F32"/>
<path d="M10.1482 13.2529H6.86028C6.68051 13.2529 6.53477 13.1073 6.53477 12.9278C6.53477 12.2159 6.9181 11.567 7.52768 11.2197V9.86046C7.38695 9.80068 7.25208 9.72809 7.12478 9.64356C6.42856 9.18126 6.01294 8.40683 6.01294 7.57196V4.40563C6.01294 4.22612 6.15868 4.08057 6.33846 4.08057H10.6701C10.8498 4.08057 10.9956 4.22609 10.9956 4.40563V7.57196C10.9956 8.40685 10.5799 9.18128 9.88374 9.64356C9.75642 9.72809 9.62154 9.80068 9.48083 9.86046V11.2197C10.0904 11.567 10.4738 12.2159 10.4738 12.9278C10.4737 13.1073 10.328 13.2529 10.1482 13.2529Z" fill="#FDDB8D"/>
<path d="M9.88361 9.64356C10.5798 9.18128 10.9954 8.40685 10.9954 7.57196V4.40563C10.9954 4.22612 10.8497 4.08057 10.6699 4.08057H8.50415V13.2528H10.1481C10.3279 13.2528 10.4736 13.1073 10.4736 12.9278C10.4736 12.2159 10.0903 11.567 9.4807 11.2197V9.86046C9.62144 9.80068 9.75631 9.72809 9.88361 9.64356Z" fill="#FBAC5B"/>
<path d="M9.37216 10.8376H7.63606C7.45629 10.8376 7.31055 10.6921 7.31055 10.5126C7.31055 10.333 7.45629 10.1875 7.63606 10.1875H9.37216C9.55193 10.1875 9.69768 10.333 9.69768 10.5126C9.69768 10.6921 9.55193 10.8376 9.37216 10.8376Z" fill="#FBAC5B"/>
<path d="M9.3722 10.1875H8.50415V10.8376H9.3722C9.55197 10.8376 9.69772 10.6921 9.69772 10.5125C9.69772 10.333 9.55197 10.1875 9.3722 10.1875Z" fill="#FD8F32"/>
<path d="M8.50405 8.42813C8.32428 8.42813 8.17853 8.28261 8.17853 8.10307V6.39866H8.06966C7.88989 6.39866 7.74414 6.25313 7.74414 6.0736C7.74414 5.89406 7.88989 5.74854 8.06966 5.74854H8.50405C8.68382 5.74854 8.82957 5.89406 8.82957 6.0736V8.10307C8.82957 8.28261 8.68382 8.42813 8.50405 8.42813Z" fill="#FBAC5B"/>
<path d="M8.50415 5.74902V8.4286C8.68392 8.4286 8.82967 8.28307 8.82967 8.10354V6.07409C8.82967 5.89455 8.68392 5.74902 8.50415 5.74902Z" fill="#FD8F32"/>
<path d="M11.5343 15.1914H5.47396C5.29418 15.1914 5.14844 15.0459 5.14844 14.8663V12.9276C5.14844 12.7481 5.29418 12.6025 5.47396 12.6025H11.5343C11.7141 12.6025 11.8598 12.7481 11.8598 12.9276V14.8663C11.8598 15.0459 11.714 15.1914 11.5343 15.1914Z" fill="#BA602B"/>
<path d="M11.5343 12.6025H8.50415V15.1914H11.5343C11.7141 15.1914 11.8598 15.0458 11.8598 14.8663V12.9276C11.8598 12.7481 11.7141 12.6025 11.5343 12.6025Z" fill="#964C22"/>
<path d="M11.9682 15.1911H5.03987C4.8601 15.1911 4.71436 15.0456 4.71436 14.8661C4.71436 14.6865 4.8601 14.541 5.03987 14.541H11.9683C12.148 14.541 12.2938 14.6865 12.2938 14.8661C12.2938 15.0456 12.148 15.1911 11.9682 15.1911Z" fill="#964C22"/>
<path d="M11.9683 14.541H8.50415V15.1911H11.9683C12.1481 15.1911 12.2939 15.0456 12.2939 14.8661C12.2939 14.6865 12.1481 14.541 11.9683 14.541Z" fill="#6F3716"/>
</svg>
