<svg width="17" height="18" viewBox="0 0 17 18" fill="none" xmlns="http://www.w3.org/2000/svg">
<circle cx="8.5" cy="9.13623" r="8.5" fill="white"/>
<path d="M7.39383 12.9939C7.34354 13.1895 7.2773 13.3781 7.19544 13.5575C7.17725 13.5521 7.15907 13.5468 7.14108 13.5412C6.98989 13.4944 6.84095 13.4402 6.69507 13.3784C6.66998 13.3677 6.34987 13.2239 6.35256 13.2161C6.3982 13.0839 6.43828 12.9474 6.47132 12.8076C6.77123 12.9008 7.08041 12.9633 7.39383 12.9939Z" fill="#D3DCE2"/>
<path d="M8.49957 13.7462C11.046 13.7462 13.1102 11.682 13.1102 9.13556C13.1102 6.58916 11.046 4.5249 8.49957 4.5249C5.95318 4.5249 3.88892 6.58916 3.88892 9.13556C3.88892 11.682 5.95318 13.7462 8.49957 13.7462Z" fill="#94E061"/>
<path d="M7.19532 13.5578C6.90434 13.4723 6.62188 13.3579 6.35243 13.2164C6.66717 12.3059 6.71246 11.1899 6.1058 10.2165C5.5836 9.37882 4.7307 8.88521 3.91211 8.66863C3.94144 8.38433 3.99692 8.10373 4.07764 7.83057C5.20853 7.9961 6.31716 8.76587 6.97206 9.97211C7.62511 11.175 7.66817 12.5202 7.19532 13.5578Z" fill="white"/>
<path d="M10.6994 13.1877C8.64233 14.3045 6.11089 13.6939 4.77197 11.8497C6.18253 13.1049 8.28288 13.4093 10.0379 12.4565C12.2757 11.2416 13.1049 8.44252 11.8899 6.20465C11.7917 6.0239 11.6834 5.85243 11.5655 5.69043C11.9536 6.03559 12.2895 6.45296 12.5517 6.93584C13.7666 9.17368 12.9373 11.9727 10.6994 13.1877Z" fill="#70CF3D"/>
<path d="M13.0894 9.57416C13.0627 9.85308 13.0105 10.1285 12.9339 10.3968C11.8286 10.2094 10.7532 9.44703 10.1124 8.2666C9.46992 7.08318 9.41759 5.76226 9.8665 4.73193C10.1376 4.81618 10.401 4.92511 10.653 5.05798C10.3887 5.85503 10.3345 6.82689 10.74 7.71505C11.2136 8.75298 12.1613 9.33124 13.0894 9.57416Z" fill="white"/>
<path d="M13.0897 9.57428C13.0794 9.68219 13.0655 9.78546 13.0482 9.89217C13.0416 9.93233 12.9421 10.3983 12.9342 10.3969C12.6544 10.3494 12.3764 10.2652 12.1069 10.1464C12.2172 9.87583 12.3016 9.59543 12.3591 9.30908C12.598 9.42248 12.8446 9.51006 13.0897 9.57428Z" fill="#D3DCE2"/>
<path d="M13.0895 9.57425C13.0862 9.60914 13.0824 9.64383 13.0784 9.67855C13.0763 9.69598 13.0741 9.71326 13.0719 9.7307C13.0695 9.74795 13.0672 9.76539 13.0646 9.78265C13.0626 9.79749 13.0604 9.81234 13.0581 9.8272C13.055 9.8489 13.0515 9.87043 13.0479 9.89216C13.0442 9.9135 13.0405 9.93503 13.0366 9.95636C13.0355 9.96248 13.0344 9.96861 13.0333 9.97473C13.0292 9.99682 13.0249 10.0189 13.0205 10.041C13.0205 10.0412 13.0205 10.0414 13.0203 10.0415C13.0157 10.0649 13.0108 10.0881 13.0056 10.1113C13.0026 10.1258 12.9993 10.1403 12.996 10.1548C12.993 10.1679 12.99 10.1811 12.9869 10.1943C12.983 10.2114 12.9787 10.2284 12.9744 10.2453C12.9702 10.2622 12.9659 10.2791 12.9614 10.296C12.9527 10.3298 12.9436 10.3634 12.934 10.3969C12.6541 10.3494 12.3761 10.2652 12.1067 10.1464C12.2169 9.87583 12.3014 9.59543 12.3589 9.30908C12.5977 9.42244 12.8444 9.51003 13.0895 9.57425Z" fill="#D3DCE2"/>
</svg>
