<svg width="41" height="41" viewBox="0 0 41 41" fill="none" xmlns="http://www.w3.org/2000/svg">
<circle cx="20.5" cy="20.5" r="20" fill="white" stroke="#EEEEEE"/>
<path d="M14.6308 22.562C14.4244 22.562 14.2149 22.5339 14.0068 22.4748C13.6101 22.3621 13.38 21.9496 13.4929 21.5534C13.6057 21.1573 14.0191 20.9276 14.4155 21.0403C14.8344 21.1592 15.2718 20.9159 15.3909 20.4978C15.5101 20.0797 15.2664 19.6427 14.8477 19.5238C13.3791 19.1118 12.0514 18.0929 11.1115 16.6554C10.1663 15.2097 9.66675 13.467 9.66675 11.6158V11.61C9.66934 10.8822 9.95456 10.2013 10.4699 9.69035C10.9829 9.18165 11.6628 8.90186 12.3854 8.90186C12.3887 8.90186 12.3919 8.90191 12.3952 8.90191C13.8944 8.90723 15.1099 10.1295 15.1046 11.6265C15.1031 12.0375 14.769 12.3696 14.3578 12.3696C14.357 12.3696 14.3561 12.3696 14.3552 12.3696C13.9427 12.3682 13.6096 12.0331 13.611 11.6213C13.6134 10.9466 13.0656 10.3957 12.3899 10.3933C12.0618 10.3911 11.7545 10.5183 11.5222 10.7486C11.29 10.9789 11.1614 11.2858 11.1603 11.6126V11.6158C11.1603 13.1544 11.5871 14.6547 12.3621 15.8401C13.1042 16.9751 14.1312 17.7737 15.254 18.0886C16.4672 18.4334 17.172 19.6969 16.8274 20.906C16.5422 21.9073 15.6251 22.5619 14.6308 22.562Z" fill="#FBAC5B"/>
<path d="M26.3886 22.562C25.3941 22.5621 24.4773 21.9074 24.1919 20.9059C23.8474 19.6969 24.5521 18.4333 25.7629 18.0892C26.8881 17.7736 27.9151 16.9751 28.6572 15.8401C29.4323 14.6546 29.8591 13.1544 29.8591 11.6158V11.61C29.858 11.2858 29.7294 10.979 29.4971 10.7486C29.2659 10.5194 28.9595 10.3933 28.6338 10.3933C28.6324 10.3933 28.6309 10.3933 28.6294 10.3933C27.9537 10.3957 27.406 10.9466 27.4084 11.6213C27.4098 12.0331 27.0767 12.3682 26.6642 12.3696C26.6634 12.3696 26.6625 12.3696 26.6616 12.3696C26.2503 12.3696 25.9163 12.0375 25.9148 11.6265C25.9096 10.1295 27.125 8.90723 28.6241 8.90191C28.6274 8.90191 28.6307 8.90186 28.634 8.90186C29.3566 8.90186 30.0365 9.18165 30.5495 9.69035C31.0649 10.2013 31.3501 10.8822 31.3527 11.6074V11.6158C31.3527 13.467 30.8531 15.2097 29.9078 16.6554C28.968 18.0929 27.6403 19.1118 26.1692 19.5245C25.753 19.6427 25.5093 20.0797 25.6284 20.4978C25.7476 20.9159 26.1851 21.1592 26.6039 21.0403C27.0003 20.9276 27.4136 21.1573 27.5265 21.5535C27.6393 21.9496 27.4093 22.3621 27.0126 22.4748C26.8047 22.5339 26.5949 22.562 26.3886 22.562Z" fill="#FD8F32"/>
<path d="M24.2809 29.9442H16.7381C16.3257 29.9442 15.9913 29.6103 15.9913 29.1984C15.9913 27.5653 16.8707 26.0767 18.2692 25.2799V22.1616C17.9463 22.0245 17.6369 21.8579 17.3449 21.664C15.7477 20.6034 14.7942 18.8268 14.7942 16.9115V9.64759C14.7942 9.23576 15.1285 8.90186 15.541 8.90186H25.4782C25.8906 8.90186 26.2249 9.23571 26.2249 9.64759V16.9115C26.2249 18.8269 25.2714 20.6035 23.6743 21.664C23.3822 21.8579 23.0728 22.0245 22.7499 22.1616V25.2799C24.1484 26.0767 25.0278 27.5653 25.0278 29.1984C25.0277 29.6103 24.6934 29.9442 24.2809 29.9442Z" fill="#FDDB8D"/>
<path d="M23.6742 21.664C25.2713 20.6035 26.2249 18.8269 26.2249 16.9115V9.64759C26.2249 9.23576 25.8905 8.90186 25.4781 8.90186H20.5095V29.9441H24.2809C24.6934 29.9441 25.0277 29.6103 25.0277 29.1984C25.0277 27.5653 24.1483 26.0767 22.7499 25.2799V22.1616C23.0727 22.0245 23.3821 21.8579 23.6742 21.664Z" fill="#FBAC5B"/>
<path d="M22.5008 24.4036H18.518C18.1056 24.4036 17.7712 24.0697 17.7712 23.6578C17.7712 23.246 18.1056 22.9121 18.518 22.9121H22.5008C22.9132 22.9121 23.2476 23.246 23.2476 23.6578C23.2476 24.0697 22.9132 24.4036 22.5008 24.4036Z" fill="#FBAC5B"/>
<path d="M22.5007 22.9121H20.5093V24.4035H22.5007C22.9131 24.4035 23.2475 24.0697 23.2475 23.6578C23.2475 23.2459 22.9131 22.9121 22.5007 22.9121Z" fill="#FD8F32"/>
<path d="M20.5094 18.8763C20.097 18.8763 19.7627 18.5425 19.7627 18.1306V14.2205H19.5129C19.1005 14.2205 18.7661 13.8866 18.7661 13.4747C18.7661 13.0629 19.1005 12.729 19.5129 12.729H20.5094C20.9219 12.729 21.2562 13.0629 21.2562 13.4747V18.1306C21.2562 18.5425 20.9219 18.8763 20.5094 18.8763Z" fill="#FBAC5B"/>
<path d="M20.5093 12.729V18.8763C20.9217 18.8763 21.2561 18.5424 21.2561 18.1305V13.4747C21.2561 13.0629 20.9217 12.729 20.5093 12.729Z" fill="#FD8F32"/>
<path d="M27.4611 34.3918H13.5581C13.1456 34.3918 12.8113 34.0579 12.8113 33.646V29.1984C12.8113 28.7865 13.1456 28.4526 13.5581 28.4526H27.4612C27.8736 28.4526 28.208 28.7865 28.208 29.1984V33.646C28.2079 34.0579 27.8736 34.3918 27.4611 34.3918Z" fill="#BA602B"/>
<path d="M27.4611 28.4526H20.5095V34.3917H27.4611C27.8735 34.3917 28.2078 34.0578 28.2078 33.646V29.1983C28.2078 28.7865 27.8735 28.4526 27.4611 28.4526Z" fill="#964C22"/>
<path d="M28.4569 34.3919H12.5625C12.15 34.3919 11.8157 34.058 11.8157 33.6461C11.8157 33.2342 12.15 32.9004 12.5625 32.9004H28.457C28.8694 32.9004 29.2038 33.2342 29.2038 33.6461C29.2038 34.058 28.8694 34.3919 28.4569 34.3919Z" fill="#964C22"/>
<path d="M28.457 32.9004H20.5098V34.3918H28.457C28.8694 34.3918 29.2038 34.0579 29.2038 33.6461C29.2038 33.2342 28.8694 32.9004 28.457 32.9004Z" fill="#6F3716"/>
</svg>
