<svg width="72" height="32" viewBox="0 0 72 32" fill="none" xmlns="http://www.w3.org/2000/svg">
<g filter="url(#filter0_b_14_15)">
<path d="M46.3833 24.9282H44.2062L44.0749 23.3596H42.3541L41.6936 24.9282H40.7915L43.5353 18.6649H45.7416L46.3833 24.9282ZM42.6624 22.6394H44.0103L43.7957 19.9574L42.6624 22.6394Z" fill="#210C0C"/>
<path d="M52.2333 19.4139H50.7353L49.6291 24.9282H47.6207L48.727 19.4139H47.2478L47.4145 18.6649H52.3916L52.2333 19.4139Z" fill="#210C0C"/>
<path d="M54.4562 22.2263C54.6421 22.2263 54.7984 22.144 54.9249 21.9788C55.0525 21.8142 55.1583 21.6137 55.2416 21.3779C55.326 21.141 55.3864 20.8941 55.4229 20.6378C55.4604 20.3815 55.4791 20.1579 55.4791 19.9662C55.4791 19.7895 55.451 19.6403 55.3958 19.5177C55.34 19.3957 55.2192 19.3344 55.0333 19.3344H54.6145L54.0291 22.2263H54.4562ZM53.8978 22.8559L53.4791 24.9282H51.4707L52.727 18.6649H54.8749C55.2291 18.6649 55.551 18.6848 55.8416 18.7246C56.1333 18.7633 56.3843 18.8417 56.5958 18.961C56.8067 19.0792 56.9713 19.2482 57.0895 19.4691C57.2072 19.6889 57.2666 19.9828 57.2666 20.3506C57.2666 20.6925 57.2151 21.0167 57.1125 21.3227C57.0093 21.6292 56.8447 21.896 56.6187 22.1224C56.3921 22.3494 56.0989 22.5284 55.7395 22.6593C55.3796 22.7907 54.9426 22.8559 54.4291 22.8559H53.8978Z" fill="#210C0C"/>
<path d="M58.8188 22.9464C58.7948 23.0912 58.7782 23.2287 58.7688 23.3596C58.7589 23.491 58.7542 23.6092 58.7542 23.7153C58.7542 23.7744 58.7568 23.8401 58.7625 23.9119C58.7693 23.9842 58.7834 24.0522 58.8042 24.1151C58.8261 24.177 58.8573 24.2295 58.898 24.272C58.9381 24.3151 58.9959 24.3361 59.0709 24.3361C59.1261 24.3361 59.1896 24.3173 59.2605 24.2786C59.3323 24.2389 59.4042 24.1831 59.4751 24.1107C59.5459 24.0373 59.6136 23.9483 59.6792 23.8434C59.7443 23.7374 59.7959 23.6192 59.8334 23.4877H61.3584L61.1167 24.5437C60.9928 24.6293 60.8506 24.7017 60.6896 24.7602C60.5282 24.8193 60.3574 24.8674 60.1771 24.9038C59.998 24.9392 59.8152 24.9646 59.6292 24.9812C59.4428 24.9988 59.2657 25.0077 59.098 25.0077C58.7881 25.0077 58.5 24.9779 58.2334 24.9193C57.9667 24.8591 57.7339 24.7569 57.5354 24.6122C57.3365 24.4681 57.1797 24.2759 57.0646 24.0356C56.9505 23.7959 56.8938 23.4982 56.8938 23.1431C56.8938 22.8205 56.9417 22.5046 57.0375 22.1953C57.1344 21.886 57.2959 21.6115 57.5209 21.3712C57.7469 21.1315 58.0511 20.9393 58.4334 20.7946C58.8152 20.6505 59.2907 20.5781 59.8605 20.5781C60.4813 20.5781 60.948 20.6809 61.2605 20.8852C61.574 21.0885 61.7313 21.4066 61.7313 21.8396C61.7313 22.018 61.7063 22.2108 61.6563 22.4184C61.6063 22.625 61.5318 22.8006 61.4334 22.9464H58.8188ZM60.0563 21.7711C60.0563 21.5679 60.0251 21.4303 59.9626 21.358C59.9011 21.2862 59.8271 21.2497 59.7396 21.2497C59.6407 21.2497 59.549 21.2845 59.4646 21.3536C59.3813 21.4215 59.3053 21.5137 59.2376 21.6297C59.1693 21.7446 59.1073 21.8766 59.0521 22.0252C58.9964 22.1727 58.95 22.3279 58.9125 22.4913H59.973C59.9855 22.4135 59.998 22.3317 60.0105 22.2461C60.023 22.1727 60.0334 22.0931 60.0417 22.0075C60.0511 21.9225 60.0563 21.8435 60.0563 21.7711Z" fill="#210C0C"/>
<path d="M64.1133 21.3182C64.2425 21.1873 64.3873 21.0658 64.5488 20.9537C64.6915 20.8609 64.8592 20.7759 65.0509 20.6974C65.2436 20.6179 65.4582 20.5781 65.6946 20.5781C66.0165 20.5781 66.2826 20.6659 66.4925 20.841C66.7035 21.015 66.8092 21.2531 66.8092 21.5546C66.8092 21.6402 66.7998 21.7441 66.7821 21.8661C66.7639 21.9871 66.7425 22.1136 66.7175 22.2461C66.6925 22.3776 66.666 22.5107 66.6384 22.646C66.6102 22.7802 66.5868 22.8995 66.5675 23.0039L66.178 24.9281H64.2883L64.8009 22.3544C64.8134 22.2693 64.8285 22.182 64.8467 22.0937C64.866 22.0042 64.8759 21.923 64.8759 21.8507C64.8759 21.7523 64.8519 21.6717 64.805 21.6098C64.7592 21.5469 64.6894 21.5148 64.5967 21.5148C64.4842 21.5148 64.3764 21.5579 64.2738 21.643C64.1722 21.7286 64.0936 21.8009 64.0383 21.8595L63.4238 24.9281H61.5258L62.3737 20.6864H63.8883L64.0571 21.3182H64.1133Z" fill="#210C0C"/>
<path d="M69.3041 21.3182C69.4333 21.1873 69.5781 21.0658 69.7396 20.9537C69.8823 20.8609 70.05 20.7759 70.2417 20.6974C70.4344 20.6179 70.6489 20.5781 70.8854 20.5781C71.2073 20.5781 71.4734 20.6659 71.6833 20.841C71.8943 21.015 72 21.2531 72 21.5546C72 21.6402 71.9906 21.7441 71.9729 21.8661C71.9547 21.9871 71.9333 22.1136 71.9083 22.2461C71.8833 22.3776 71.8568 22.5107 71.8292 22.646C71.801 22.7802 71.7776 22.8995 71.7583 23.0039L71.3687 24.9281H69.4791L69.9916 22.3544C70.0041 22.2693 70.0193 22.182 70.0375 22.0937C70.0568 22.0042 70.0666 21.923 70.0666 21.8507C70.0666 21.7523 70.0427 21.6717 69.9958 21.6098C69.95 21.5469 69.8802 21.5148 69.7875 21.5148C69.675 21.5148 69.5672 21.5579 69.4646 21.643C69.363 21.7286 69.2843 21.8009 69.2291 21.8595L68.6146 24.9281H66.7166L67.5645 20.6864H69.0791L69.2479 21.3182H69.3041Z" fill="#210C0C"/>
<path d="M59.2631 28.2354C59.2402 28.653 59.1011 28.9474 58.8313 29.1683C58.6922 29.2832 58.4995 29.3406 58.2599 29.3406C58.237 29.3406 58.2136 29.3406 58.1907 29.3406C58.1672 29.3406 58.1365 29.3406 58.1136 29.3323C58.0438 29.3975 58.0053 29.4632 58.0053 29.5367C58.0053 29.635 58.0823 29.6924 58.1985 29.725C58.3141 29.7659 58.4532 29.7907 58.5995 29.815C58.8464 29.8476 59.1089 29.9134 59.3251 30.0686C59.5334 30.2243 59.6803 30.4618 59.6803 30.8545C59.6803 31.2881 59.5027 31.5824 59.2558 31.7548C59.0011 31.9265 58.6615 32 58.3448 32C57.9745 31.9917 57.6584 31.9348 57.4422 31.8034C57.2183 31.6725 57.0948 31.4598 57.0948 31.1329C57.0948 30.9771 57.1719 30.8462 57.2875 30.7313C57.4037 30.617 57.5579 30.527 57.7042 30.4535C57.4495 30.3795 57.2339 30.2077 57.2339 29.8559C57.2339 29.725 57.3032 29.5941 57.3959 29.4715C57.4886 29.3483 57.6042 29.2506 57.7198 29.1849C57.4959 29.0297 57.3881 28.7839 57.3339 28.5795C57.3032 28.4563 57.2802 28.3337 57.2724 28.2111V26.9916C57.3032 26.5746 57.4266 26.2714 57.6969 26.0345C57.8282 25.9113 58.0209 25.8544 58.2599 25.8544C58.6537 25.8544 58.8928 26.0422 59.0396 26.2631C59.0933 26.2062 59.186 26.1079 59.3094 26.0179C59.4256 25.9279 59.5563 25.8544 59.6803 25.8544V26.5906C59.4714 26.5906 59.3172 26.6315 59.2245 26.6889C59.2323 26.7298 59.2402 26.7707 59.248 26.7955C59.248 26.8281 59.248 26.8607 59.2558 26.8856C59.2631 26.9099 59.2631 26.9425 59.2631 26.9673V28.2354ZM58.4995 27.0242C58.4995 26.869 58.4683 26.7707 58.4068 26.6807C58.3756 26.6398 58.3297 26.6155 58.2599 26.6155C58.1365 26.6155 58.075 26.7215 58.0516 26.8198C58.0365 26.8773 58.0287 26.9507 58.0365 27.0242V28.252C58.0287 28.4077 58.0516 28.5055 58.1214 28.5872C58.1521 28.6287 58.1985 28.653 58.2599 28.653C58.3912 28.653 58.4454 28.5547 58.4761 28.4563C58.4917 28.3995 58.4995 28.3255 58.4995 28.252V27.0242ZM58.1365 30.6004C57.9745 30.6987 57.8511 30.8214 57.8511 30.9937C57.8511 31.1654 57.9974 31.3046 58.3605 31.3046C58.4917 31.3046 58.6381 31.2798 58.7542 31.2306C58.8698 31.1815 58.9547 31.108 58.9547 31.0014C58.9547 30.928 58.9469 30.8705 58.8928 30.8136C58.8313 30.7562 58.7308 30.7153 58.5381 30.6827L58.1365 30.6004Z" fill="#210C0C"/>
<path d="M62.1341 26.7707C62.0643 26.7464 61.9872 26.7381 61.918 26.7381C61.7945 26.7381 61.6476 26.7541 61.5242 26.8773C61.3779 27.0082 61.3544 27.1474 61.3544 27.2865V30.3961H60.5752V25.9196H61.3544V26.4189C61.3622 26.3614 61.4164 26.2222 61.5398 26.0913C61.6633 25.9687 61.8482 25.8544 62.1341 25.8544V26.7707Z" fill="#210C0C"/>
<path d="M64.9815 29.3075C64.9581 29.7416 64.8346 30.0443 64.5648 30.2817C64.4258 30.4044 64.2331 30.4618 63.9784 30.4618C63.4768 30.4618 63.2294 30.1669 63.106 29.8725C63.0367 29.7007 62.9903 29.5041 62.9825 29.2832V27.0325C63.006 26.5989 63.1294 26.2797 63.3992 26.0345C63.5305 25.9113 63.7237 25.8544 63.9784 25.8544C64.4799 25.8544 64.7346 26.1488 64.8581 26.4354C64.9273 26.6072 64.9737 26.7955 64.9815 27.0082V29.3075ZM64.2482 27.0325C64.256 26.8607 64.2253 26.7381 64.1482 26.6398C64.1096 26.5989 64.0476 26.5746 63.9784 26.5746C63.8315 26.5746 63.77 26.6807 63.7388 26.8033C63.7159 26.869 63.7081 26.9425 63.7159 27.0325V29.2832C63.7081 29.4549 63.7466 29.5775 63.8164 29.6676C63.8549 29.7084 63.9086 29.7333 63.9784 29.7333C64.1247 29.7333 64.1945 29.635 64.2253 29.5124C64.2482 29.4466 64.256 29.3732 64.2482 29.2832V27.0325Z" fill="#210C0C"/>
<path d="M67.3118 25.9196H68.0915V30.3961H67.3118V30.0194C67.2962 30.0277 67.2655 30.0608 67.2269 30.1017C67.1342 30.1995 67.0264 30.3143 66.8873 30.3961C66.8181 30.437 66.7483 30.4618 66.679 30.4618C66.4707 30.4618 66.3243 30.3304 66.2316 30.1586C66.1389 29.9951 66.0925 29.7742 66.0925 29.5858V25.9196H66.8722V29.4632C66.8722 29.635 66.9644 29.6593 67.0571 29.6593C67.142 29.6593 67.1884 29.6107 67.2425 29.5533C67.2655 29.5284 67.2889 29.4875 67.3118 29.4467V25.9196Z" fill="#210C0C"/>
<path d="M69.2875 25.9196H70.0667V26.2145C70.1979 26.0836 70.3135 25.9853 70.4682 25.9113C70.5375 25.8704 70.6146 25.8544 70.6844 25.8544C70.9 25.8544 71.0469 25.9853 71.1474 26.1488C71.2396 26.3206 71.2859 26.5415 71.2859 26.7298V29.5858C71.2859 29.7742 71.2396 29.9951 71.1474 30.1586C71.0469 30.3303 70.9 30.4618 70.6844 30.4618C70.5375 30.4618 70.3833 30.3718 70.2672 30.2817C70.1979 30.2243 70.1365 30.1669 70.0667 30.1017V31.9348H69.2875V25.9196ZM70.0667 29.4141C70.0667 29.545 70.1823 29.6841 70.2984 29.6841C70.4141 29.6841 70.5068 29.5693 70.5068 29.4141V26.9016C70.5068 26.7464 70.4141 26.6315 70.2984 26.6315C70.1823 26.6315 70.0667 26.7464 70.0667 26.9016V29.4141Z" fill="#210C0C"/>
<mask id="mask0_14_15" style="mask-type:luminance" maskUnits="userSpaceOnUse" x="0" y="0" width="50" height="26">
<path d="M0 0H49.0672V25.2385H0V0Z" fill="white"/>
</mask>
<g mask="url(#mask0_14_15)">
<path d="M48.9296 16.433C48.6989 15.298 46.8843 15.1947 46.8843 15.1947C45.8786 15.4211 45.1734 15.061 44.2999 15.1964C38.1884 16.1436 35.0576 15.604 35.0576 15.604C35.7972 13.6963 37.3655 9.56552 38.4707 9.43572C39.7014 9.29157 40.9462 12.2669 41.7723 12.2884C42.0176 12.2951 42.3759 11.7234 42.3759 11.7234C43.1874 11.5141 43.3176 10.896 43.3176 10.896C42.4442 11.4854 40.9733 9.25346 41.4931 8.63653C42.0171 8.01462 43.6004 8.6901 44.2973 9.41087C45.0588 10.1996 44.452 11.1065 44.452 11.1065C44.452 11.1065 45.1655 10.8612 45.3958 10.2073C45.427 10.1184 45.4645 10.0361 45.5036 9.96263C45.6156 9.75386 45.7869 9.59092 45.9869 9.4777C46.2286 9.34183 46.3822 9.0607 46.0541 8.61443C45.6166 8.02125 44.8666 6.85532 44.528 6.01028C44.1687 6.04231 43.5666 6.00199 43.3296 5.42869C43.241 5.2166 43.0697 4.54388 43.0697 4.54388L44.4109 5.67226C44.3911 5.60156 44.3775 5.53529 44.3661 5.47398C44.0895 4.03134 42.6067 3.16752 42.6067 3.16752C41.3744 2.2076 40.1556 0.906346 39.3993 0C39.3993 0 37.6827 3.05761 40.2316 4.57371C38.9374 3.86785 38.4759 3.06921 38.4118 2.3396C31.2565 0.841173 26.7211 5.89705 25.3726 6.94037C23.7195 8.21953 21.5564 9.32029 19.3762 10.2382C18.8309 10.4663 18.2913 10.6956 17.7621 10.9065C17.4981 11.0142 17.2366 11.1197 16.9793 11.2241C16.7225 11.3291 16.4684 11.4246 16.2194 11.5224C15.971 11.619 15.7267 11.714 15.4887 11.8068C15.2506 11.9013 15.0173 11.9824 14.7913 12.0675C14.5652 12.1509 14.3459 12.2321 14.1345 12.3105C14.0282 12.3492 13.9246 12.3878 13.8225 12.4254C13.7204 12.4607 13.6204 12.4955 13.5225 12.5292C13.1303 12.6657 12.773 12.7894 12.4569 12.8987C12.1407 13.0048 11.8662 13.0893 11.6402 13.1627C11.1891 13.3074 10.9339 13.3892 10.9339 13.3892C10.9339 13.3892 11.2631 13.3146 11.8256 13.1881C11.9662 13.1561 12.122 13.1213 12.2902 13.0832C12.4584 13.0467 12.6397 12.997 12.8329 12.9495C13.0256 12.9009 13.2303 12.8496 13.4449 12.7949C13.6595 12.7402 13.885 12.6872 14.1178 12.6209C14.5834 12.4917 15.0845 12.3586 15.6064 12.2089C15.8673 12.1321 16.1335 12.0537 16.4038 11.9742C16.6741 11.8935 16.9491 11.8162 17.2251 11.7289C17.5022 11.6422 17.7809 11.5561 18.0606 11.4688C18.3408 11.3821 18.622 11.2948 18.9017 11.2026C19.1814 11.1114 19.4611 11.0203 19.7382 10.9303C19.8773 10.885 20.0153 10.8397 20.1528 10.795C20.2903 10.7491 20.4267 10.7027 20.5622 10.6569C17.7923 11.8659 14.4454 13.2251 11.749 14.0895C11.5808 14.1447 11.4152 14.1989 11.2527 14.2519C11.1714 14.2795 11.0907 14.3044 11.0105 14.327C10.9308 14.3513 10.8516 14.3745 10.773 14.3977C10.4594 14.491 10.1594 14.58 9.87611 14.6645C9.73392 14.7087 9.59537 14.7424 9.46152 14.7771C9.32714 14.8125 9.19745 14.8462 9.07245 14.8788C8.82193 14.9439 8.59016 15.0041 8.37974 15.0588C7.53494 15.2433 7.03128 15.3538 7.03128 15.3538C7.03128 15.3538 7.37191 15.3112 7.96307 15.2378C8.03702 15.2289 8.11515 15.219 8.19692 15.2091C8.27869 15.1975 8.36411 15.1897 8.45318 15.1732C8.6313 15.1439 8.82349 15.1119 9.0287 15.0776C9.23443 15.0434 9.45266 15.0069 9.68288 14.9688C9.91257 14.929 10.1532 14.8749 10.4042 14.8258C12.4152 14.4275 15.0647 13.7322 17.6205 12.9263C17.3798 13.0269 17.1382 13.1208 16.8981 13.2163C16.6585 13.3113 16.4199 13.4063 16.184 13.4996C16.0658 13.546 15.948 13.593 15.8314 13.6388C15.7142 13.683 15.5975 13.7272 15.4819 13.7708C15.2501 13.8581 15.022 13.9443 14.7975 14.0288C14.3501 14.2016 13.9147 14.3513 13.5037 14.4977C13.298 14.5706 13.0985 14.6413 12.9058 14.7092C12.7126 14.776 12.5246 14.8351 12.3449 14.8948C11.9855 15.013 11.6569 15.1201 11.3667 15.2151C11.0735 15.3024 10.8193 15.3775 10.6094 15.4399C10.1902 15.5642 9.95267 15.6343 9.95267 15.6343C9.95267 15.6343 10.2032 15.5835 10.6438 15.4946C10.8641 15.4488 11.1329 15.3968 11.4402 15.3311C11.747 15.2599 12.0933 15.1792 12.472 15.0909C12.6605 15.045 12.8595 15.0041 13.0621 14.9489C13.2657 14.8964 13.4767 14.8418 13.6933 14.7854C13.91 14.7291 14.1329 14.6711 14.3611 14.612C14.5892 14.5518 14.821 14.4839 15.0574 14.4181C15.5303 14.2839 16.022 14.1497 16.5184 13.9967C17.0152 13.8448 17.5246 13.6985 18.0304 13.5344C17.6559 13.6913 17.2835 13.8377 16.9215 13.9807C16.7402 14.0531 16.5621 14.1232 16.3866 14.1934C16.2116 14.2624 16.0392 14.332 15.8694 14.3944C15.5298 14.5225 15.2048 14.6451 14.8991 14.76C14.7465 14.8175 14.5991 14.8755 14.4553 14.9263C14.3116 14.9771 14.1735 15.0257 14.0413 15.0726C13.7761 15.1665 13.5355 15.2516 13.323 15.3267C13.2173 15.3648 13.1183 15.3996 13.0267 15.4322C12.935 15.4626 12.8506 15.4902 12.7746 15.515C12.4704 15.6139 12.3001 15.6702 12.3001 15.6702C12.3001 15.6702 12.3798 15.6515 12.5277 15.6167C12.6751 15.5813 12.8928 15.5355 13.1636 15.4653C13.4345 15.3952 13.7616 15.3101 14.1329 15.214C14.3183 15.1643 14.5168 15.1174 14.7215 15.0583C14.9267 15.0003 15.1418 14.9401 15.3647 14.8771C15.5881 14.8142 15.8199 14.749 16.0579 14.6816C16.2965 14.6142 16.5387 14.5385 16.7882 14.464C17.2861 14.3143 17.8064 14.1602 18.3314 13.9907C18.8575 13.8239 19.3944 13.6554 19.9252 13.477C20.4569 13.3008 20.9882 13.1268 21.5023 12.9484C21.3096 13.0324 21.1158 13.1174 20.9221 13.202C20.7278 13.2853 20.533 13.3682 20.3392 13.4505C19.9512 13.6151 19.5689 13.7824 19.1929 13.9376C18.8168 14.0928 18.4512 14.2436 18.1033 14.3878C18.0158 14.4237 17.9298 14.459 17.8449 14.4944C17.76 14.5281 17.6757 14.5612 17.5929 14.5943C17.4272 14.6601 17.2668 14.7236 17.1126 14.7849C16.8038 14.9069 16.5194 15.0196 16.2668 15.1196C16.0121 15.2162 15.7892 15.3002 15.6053 15.3692C15.2371 15.5079 15.0246 15.5879 15.0246 15.5879C15.0246 15.5879 15.2053 15.5377 15.523 15.4482C15.8397 15.3576 16.2965 15.235 16.8387 15.0682C17.1106 14.9865 17.4054 14.8981 17.7179 14.8042C18.0314 14.7114 18.3574 14.6032 18.6986 14.4966C19.0387 14.3878 19.3934 14.2795 19.7502 14.1602C20.1075 14.042 20.4715 13.9216 20.8372 13.8007C19.7908 14.2541 18.7038 14.7153 17.6559 15.14C17.3929 15.2455 17.1335 15.3499 16.8783 15.4521C16.7507 15.5034 16.6241 15.5543 16.4986 15.6045C16.3725 15.6526 16.2475 15.7006 16.1236 15.7481C15.8762 15.8426 15.6345 15.9348 15.3996 16.0243C15.1642 16.1132 14.9381 16.2038 14.7157 16.2811C14.272 16.4402 13.8621 16.5871 13.497 16.718C13.4064 16.7517 13.3168 16.782 13.2303 16.8102C13.1439 16.8384 13.06 16.8666 12.9798 16.8931C12.8188 16.9466 12.6704 16.9958 12.536 17.04C12.2678 17.1289 12.0553 17.1996 11.91 17.2476C11.8381 17.2725 11.7808 17.288 11.7428 17.3001C11.7043 17.3117 11.6845 17.3178 11.6845 17.3178C11.6845 17.3178 11.7022 17.3134 11.7365 17.3067C11.7704 17.299 11.8225 17.2891 11.8876 17.2731C12.0188 17.241 12.2121 17.1946 12.4584 17.135C12.7053 17.0748 13.0063 17.0013 13.3522 16.9174C13.6949 16.8257 14.0829 16.7218 14.5079 16.6081C14.8668 16.5153 15.2475 16.4037 15.6486 16.2872C13.1376 17.2648 10.7516 18.1225 8.90735 18.7516C8.63859 18.8433 8.3813 18.9311 8.13703 19.0145C7.89275 19.0979 7.6615 19.1769 7.44379 19.247C7.00837 19.389 6.63076 19.5127 6.32034 19.6143C6.0094 19.7154 5.76721 19.7971 5.60106 19.8479C5.43491 19.9004 5.34689 19.9275 5.34689 19.9275C5.34689 19.9275 5.46043 19.9021 5.67137 19.8557C5.88127 19.8076 6.18805 19.7358 6.57503 19.6458C6.96149 19.5547 7.42921 19.4486 7.9589 19.3199C8.48807 19.189 9.08079 19.0427 9.71986 18.8842C10.3574 18.7185 11.0417 18.5401 11.7558 18.3539C12.4683 18.159 13.211 17.9574 13.9663 17.7458C14.3428 17.637 14.723 17.5277 15.1043 17.4172C15.4861 17.3078 15.8694 17.1985 16.2496 17.0814C17.0106 16.8494 17.7715 16.6257 18.5064 16.3877C16.6215 17.1659 14.5376 17.9977 12.4574 18.7654C11.9397 18.9631 11.4188 19.1465 10.9042 19.3337C10.6464 19.4276 10.3902 19.5204 10.1355 19.6121C9.88132 19.7043 9.62663 19.7905 9.37454 19.8789C8.87089 20.0534 8.37609 20.229 7.89067 20.3942C7.40473 20.5571 6.93076 20.7162 6.47138 20.8697C6.01304 21.0266 5.56617 21.1658 5.13908 21.3038C4.71199 21.4408 4.30365 21.5745 3.91615 21.696C3.13958 21.934 2.45207 22.1494 1.87863 22.3218C0.729655 22.6614 0.0452728 22.8636 0.0452728 22.8636C0.0452728 22.8636 0.510382 22.7697 1.3182 22.6073C1.52029 22.5664 1.74373 22.5217 1.98696 22.4725C2.22967 22.4234 2.49165 22.3654 2.77134 22.3057C3.05103 22.2461 3.34843 22.1826 3.66146 22.1152C3.81771 22.0815 3.97813 22.0473 4.14271 22.0119C4.30626 21.9743 4.47345 21.9368 4.64428 21.8981C7.38077 21.2867 10.985 20.3892 14.4709 19.379C11.8345 20.3925 9.23235 21.3066 7.28598 21.9556C6.31409 22.2864 5.50366 22.5399 4.93908 22.7227C4.65678 22.8133 4.43594 22.8846 4.2849 22.9326C4.13386 22.9796 4.05313 23.0039 4.05313 23.0039C4.05313 23.0039 4.13802 22.9862 4.2974 22.9519C4.45626 22.916 4.68959 22.8636 4.98699 22.7962C5.58179 22.6603 6.4344 22.4714 7.45785 22.2201C9.50631 21.7291 12.2449 21.0216 15.0105 20.2147C14.8824 20.2644 14.7548 20.3141 14.6277 20.3632C14.5001 20.4119 14.373 20.4593 14.247 20.5074C13.9944 20.6018 13.7444 20.6957 13.498 20.7885C13.0048 20.9741 12.5256 21.1553 12.0636 21.3199C11.6022 21.4872 11.161 21.6468 10.7459 21.7976C10.3303 21.9456 9.93861 22.0798 9.58079 22.2052C9.22245 22.33 8.89693 22.4438 8.60943 22.5438C8.3214 22.6404 8.07192 22.7244 7.86723 22.7929C7.45837 22.9298 7.22868 23.0066 7.22868 23.0066C7.22868 23.0066 7.6589 22.9033 8.39276 22.7271C8.75995 22.6404 9.20058 22.5233 9.70319 22.3974C10.2058 22.2704 10.7688 22.129 11.3735 21.9644C11.6761 21.8838 11.9902 21.7998 12.3131 21.7131C12.4746 21.6695 12.6381 21.6253 12.8043 21.5805C12.9694 21.5347 13.1371 21.4878 13.3064 21.4403C13.9824 21.2475 14.6907 21.0564 15.4064 20.841C16.123 20.6295 16.8543 20.4185 17.5793 20.1904C17.9418 20.0783 18.3043 19.9667 18.6637 19.8557C19.0236 19.7441 19.3788 19.6265 19.7309 19.5143C17.622 20.3909 15.4199 21.2591 13.7376 21.8827C12.8985 22.2025 12.1876 22.4543 11.6891 22.636C11.1907 22.8166 10.9027 22.921 10.9027 22.921C10.9027 22.921 11.1475 22.8558 11.5766 22.741C11.7918 22.6841 12.0527 22.6145 12.3527 22.5344C12.6527 22.4538 12.9918 22.3643 13.361 22.2593C14.0985 22.0506 14.9647 21.8147 15.8913 21.5375C16.123 21.4684 16.359 21.3994 16.5986 21.3287C16.8376 21.2585 17.0804 21.1879 17.3241 21.1116C17.8121 20.9609 18.309 20.8079 18.808 20.6538C17.3762 21.2403 15.8913 21.8346 14.4631 22.3786C13.7491 22.6493 13.0522 22.9182 12.3813 23.1596C11.7115 23.4048 11.074 23.6429 10.4772 23.85C9.88132 24.0593 9.33183 24.2582 8.84016 24.4255C8.34744 24.5929 7.91567 24.7398 7.55889 24.8613C7.38025 24.922 7.21983 24.9762 7.08076 25.0237C6.94066 25.0695 6.82139 25.1087 6.72451 25.1402C6.53076 25.2043 6.42659 25.238 6.42659 25.238C6.42659 25.238 6.51982 25.2159 6.69482 25.1745C6.87035 25.1336 7.12816 25.0728 7.45629 24.9894C8.11255 24.8232 9.05787 24.5962 10.1964 24.2907C12.4777 23.6931 15.5475 22.826 18.7101 21.8164C19.5028 21.5706 20.296 21.3005 21.0898 21.0404C21.4866 20.9117 21.8799 20.7725 22.2721 20.6383C22.6648 20.5035 23.0544 20.3693 23.4414 20.2362C24.2117 19.9606 24.9695 19.6922 25.7018 19.4249C26.0669 19.289 26.4258 19.1553 26.7778 19.0244C27.1299 18.8919 27.4758 18.7676 27.8102 18.6362C27.9544 18.5804 28.0966 18.5251 28.2378 18.471C28.2737 18.5279 28.3102 18.5831 28.3471 18.6334C28.906 19.3879 32.7467 19.6011 34.3446 19.5011C36.0654 19.3934 44.6963 17.2405 44.6963 17.2405C44.6963 17.2405 45.9369 17.3968 46.4635 17.4415C46.5817 17.452 46.6958 17.3968 46.7676 17.2963L46.9166 17.0858C46.9166 17.0858 47.4786 17.2294 47.2416 18.0364C47.2416 18.0364 48.0572 17.3747 47.9135 16.7815C47.9489 16.7992 47.9854 16.8185 48.0234 16.8417C48.7349 17.288 48.0598 17.9844 48.0598 17.9844C48.0598 17.9844 49.1526 17.5315 48.9296 16.433Z" fill="#210C0C"/>
</g>
<path d="M39.4363 21.1149C38.5634 20.7686 38.1894 20.1285 37.4597 19.78C37.2821 19.6955 37.0988 19.6038 36.9118 19.5082C35.8535 19.6331 34.7832 19.7584 33.9107 19.8573C33.5811 19.8943 33.3071 19.9252 33.0779 19.9501C35.1222 20.8189 36.8238 21.5485 36.8238 21.5485C36.8238 21.5485 37.7009 22.3085 38.0821 22.6156C38.1681 22.6846 38.2806 22.7017 38.3811 22.6619L38.5926 22.578C38.5926 22.578 38.9561 22.9779 38.4035 23.4722C38.4035 23.4722 39.3316 23.3882 39.4941 22.8602C39.5139 22.8917 39.5322 22.926 39.5504 22.9635C39.89 23.6721 39.053 23.8555 39.053 23.8555C39.053 23.8555 40.0973 24.0748 40.4311 23.1187C40.7764 22.1323 39.4363 21.1149 39.4363 21.1149Z" fill="#210C0C"/>
</g>
<defs>
<filter id="filter0_b_14_15" x="-3.95473" y="-4" width="79.9547" height="40" filterUnits="userSpaceOnUse" color-interpolation-filters="sRGB">
<feFlood flood-opacity="0" result="BackgroundImageFix"/>
<feGaussianBlur in="BackgroundImageFix" stdDeviation="2"/>
<feComposite in2="SourceAlpha" operator="in" result="effect1_backgroundBlur_14_15"/>
<feBlend mode="normal" in="SourceGraphic" in2="effect1_backgroundBlur_14_15" result="shape"/>
</filter>
</defs>
</svg>
