<svg width="9" height="9" viewBox="0 0 9 9" fill="none" xmlns="http://www.w3.org/2000/svg">
<path d="M8.73633 0.649572H7.58139C7.58558 0.521649 7.58791 0.39297 7.58791 0.263674C7.58791 0.118035 7.46981 0 7.32424 0H1.67576C1.53019 0 1.41209 0.118035 1.41209 0.263674C1.41209 0.39297 1.41442 0.521649 1.41861 0.649572H0.263672C0.118034 0.649572 0 0.767607 0 0.913245C0 2.0947 0.308784 3.20934 0.869431 4.05193C1.42362 4.8849 2.16183 5.36267 2.9593 5.40916C3.1401 5.60589 3.33119 5.76629 3.53025 5.88865V7.06055H3.08791C2.55315 7.06055 2.11816 7.49562 2.11816 8.03031V8.47265H2.09942C1.95378 8.47265 1.83575 8.59076 1.83575 8.73633C1.83575 8.88196 1.95378 9 2.09942 9H6.90058C7.04622 9 7.16425 8.88196 7.16425 8.73633C7.16425 8.59076 7.04622 8.47265 6.90058 8.47265H6.88184V8.03031C6.88184 7.49562 6.44685 7.06055 5.91209 7.06055H5.46975V5.88865C5.66881 5.76636 5.85997 5.60589 6.04076 5.40916C6.83817 5.36267 7.57638 4.8849 8.13064 4.05193C8.69128 3.20934 9 2.0947 9 0.913245C9 0.767607 8.88197 0.649572 8.73633 0.649572ZM1.30847 3.75982C0.846016 3.06487 0.57431 2.15588 0.532906 1.17692H1.44807C1.54317 2.38034 1.82565 3.49272 2.26717 4.37568C2.33748 4.51631 2.41102 4.64917 2.4873 4.77428C2.04874 4.60866 1.64287 4.26245 1.30847 3.75982ZM6.35449 8.03031V8.47272H2.64551V8.03031C2.64551 7.78641 2.84395 7.5879 3.08791 7.5879H5.91209C6.15605 7.5879 6.35449 7.78641 6.35449 8.03031ZM4.94241 7.06055H4.05759V6.11778C4.20255 6.15596 4.35024 6.17581 4.5 6.17581C4.64976 6.17581 4.79745 6.15596 4.94241 6.11778V7.06055ZM5.10569 5.49046C5.09381 5.49533 5.08241 5.50124 5.0715 5.50776C4.88514 5.60046 4.69363 5.64846 4.5 5.64846C4.30643 5.64846 4.115 5.60046 3.92871 5.5079C3.91766 5.50124 3.90619 5.49533 3.89417 5.49032C3.68742 5.38101 3.4874 5.21594 3.29823 4.99902C3.28828 4.98481 3.27708 4.97169 3.26466 4.95975C3.07686 4.73679 2.90018 4.46254 2.73882 4.13982C2.25426 3.17075 1.97438 1.89653 1.94252 0.527348H7.05748C7.02555 1.89653 6.74567 3.17082 6.26118 4.13982C6.09982 4.46254 5.92314 4.73679 5.73541 4.95975C5.72292 4.97169 5.71159 4.98488 5.7017 4.99909C5.51253 5.21607 5.31244 5.38108 5.10569 5.49046ZM7.69153 3.75982C7.35713 4.26245 6.95126 4.60866 6.5127 4.77428C6.58898 4.64917 6.66252 4.51631 6.73283 4.37568C7.17435 3.49272 7.45676 2.38034 7.55193 1.17692H8.46709C8.42569 2.15588 8.15398 3.06487 7.69153 3.75982Z" fill="white"/>
</svg>
