<svg width="14" height="14" viewBox="0 0 14 14" fill="none" xmlns="http://www.w3.org/2000/svg">
<path d="M11.5001 2.1H11.5H9.8V1.3C9.8 1.19391 9.75786 1.09217 9.68284 1.01716C9.60783 0.942143 9.50609 0.9 9.4 0.9C9.29391 0.9 9.19217 0.942143 9.11716 1.01716C9.04214 1.09217 9 1.19391 9 1.3V2.1H5V1.3C5 1.19391 4.95786 1.09217 4.88284 1.01716C4.80783 0.942143 4.70609 0.9 4.6 0.9C4.49391 0.9 4.39217 0.942143 4.31716 1.01716C4.24214 1.09217 4.2 1.19391 4.2 1.3V2.1H2.5L2.49988 2.1C2.07572 2.10051 1.66908 2.26923 1.36916 2.56916C1.06923 2.86908 0.900508 3.27572 0.9 3.69988V3.7L0.9 11.5L0.9 11.5001C0.900508 11.9243 1.06923 12.3309 1.36916 12.6308C1.66908 12.9308 2.07572 13.0995 2.49988 13.1H2.5H11.5H11.5001C11.9243 13.0997 12.331 12.931 12.631 12.631C12.931 12.331 13.0997 11.9243 13.1 11.5001V11.5V3.7V3.69992C13.0997 3.2757 12.931 2.86895 12.631 2.56898C12.331 2.26901 11.9243 2.10034 11.5001 2.1ZM12.3 11.5C12.3 11.7122 12.2157 11.9157 12.0657 12.0657C11.9157 12.2157 11.7122 12.3 11.5 12.3H2.5C2.28783 12.3 2.08434 12.2157 1.93431 12.0657C1.78429 11.9157 1.7 11.7122 1.7 11.5V6.5H12.3V11.5ZM12.3 5.7H1.7V3.7C1.7 3.25834 2.05732 2.9 2.5 2.9H4.2V3.7C4.2 3.80609 4.24214 3.90783 4.31716 3.98284C4.39217 4.05786 4.49391 4.1 4.6 4.1C4.70609 4.1 4.80783 4.05786 4.88284 3.98284C4.95786 3.90783 5 3.80609 5 3.7V2.9H9V3.7C9 3.80609 9.04214 3.90783 9.11716 3.98284C9.19217 4.05786 9.29391 4.1 9.4 4.1C9.50609 4.1 9.60783 4.05786 9.68284 3.98284C9.75786 3.90783 9.8 3.80609 9.8 3.7V2.9H11.5C11.7122 2.9 11.9157 2.98429 12.0657 3.13431C12.2157 3.28434 12.3 3.48783 12.3 3.7V5.7Z" fill="#145E94" stroke="#145E94" stroke-width="0.2"/>
</svg>
