<svg width="21" height="16" viewBox="0 0 21 16" fill="none" xmlns="http://www.w3.org/2000/svg">
<path d="M21 13.4444C21 14.0928 20.7542 14.7145 20.3166 15.1729C19.879 15.6313 19.2855 15.8889 18.6667 15.8889H2.33333C1.71449 15.8889 1.121 15.6313 0.683418 15.1729C0.245833 14.7145 0 14.0928 0 13.4444V2.44444C0 1.79614 0.245833 1.17438 0.683418 0.715961C1.121 0.257539 1.71449 0 2.33333 0H18.6667C19.2855 0 19.879 0.257539 20.3166 0.715961C20.7542 1.17438 21 1.79614 21 2.44444V13.4444Z" fill="#009B3A"/>
<path d="M19.0914 7.94444L10.5 14.7424L1.90869 7.94444L10.5 1.14583L19.0914 7.94444Z" fill="#FEDF01"/>
<path d="M10.486 11.8446C12.5665 11.8446 14.2531 10.0776 14.2531 7.898C14.2531 5.71838 12.5665 3.95145 10.486 3.95145C8.40543 3.95145 6.71881 5.71838 6.71881 7.898C6.71881 10.0776 8.40543 11.8446 10.486 11.8446Z" fill="#002776"/>
<path d="M7.16159 6.04206C6.96594 6.42832 6.83343 6.8462 6.76959 7.27833C9.10001 7.10111 12.2628 8.43394 13.6203 10.0864C13.8548 9.71728 14.0286 9.30417 14.1353 8.86172C12.46 7.14572 9.51709 6.03228 7.16159 6.04206Z" fill="#CBE9D4"/>
<path d="M7 8.08684H7.58333V8.69795H7V8.08684ZM7.58333 9.30906H8.16667V9.92017H7.58333V9.30906Z" fill="#88C9F9"/>
<path d="M8.75 8.08683H9.33333V8.69794H8.75V8.08683ZM9.91667 8.69794H10.5V9.30905H9.91667V8.69794ZM12.25 9.92016H12.8333V10.5313H12.25V9.92016ZM10.5 10.5313H11.0833V11.1424H10.5V10.5313ZM12.25 6.86461H12.8333V7.47572H12.25V6.86461Z" fill="#55ACEE"/>
<path d="M11.0833 9.30905H11.6666V9.92016H11.0833V9.30905Z" fill="#3B88C3"/>
</svg>
