<svg width="12" height="12" viewBox="0 0 12 12" fill="none" xmlns="http://www.w3.org/2000/svg">
<path d="M6 12C2.69143 12 0 9.30857 0 6C0 2.69143 2.69143 0 6 0C9.30857 0 12 2.69143 12 6C12 9.30857 9.30857 12 6 12ZM6 0.857143C3.16286 0.857143 0.857143 3.16286 0.857143 6C0.857143 8.83714 3.16286 11.1429 6 11.1429C8.83714 11.1429 11.1429 8.83714 11.1429 6C11.1429 3.16286 8.83714 0.857143 6 0.857143Z" fill="white"/>
<path d="M7.71431 8.14286C7.63717 8.14286 7.56002 8.12571 7.49145 8.08286L5.34859 6.79714C5.28513 6.759 5.23274 6.70491 5.19666 6.64025C5.16057 6.57559 5.14203 6.50262 5.14288 6.42857V3C5.14288 2.76 5.33145 2.57143 5.57145 2.57143C5.81145 2.57143 6.00002 2.76 6.00002 3V6.18857L7.93717 7.34571C8.01696 7.39461 8.07863 7.4682 8.11283 7.55531C8.14704 7.64241 8.15191 7.7383 8.12672 7.82842C8.10152 7.91856 8.04762 7.99801 7.9732 8.05475C7.89879 8.1115 7.8079 8.14242 7.71431 8.14286Z" fill="white"/>
</svg>
