<svg width="12" height="12" viewBox="0 0 12 12" fill="none" xmlns="http://www.w3.org/2000/svg">
<path d="M5.7411 11.3534C5.61047 11.3534 5.49944 11.3142 5.408 11.2358C5.32962 11.1444 5.29044 11.0334 5.29044 10.9027V6.82713H1.27362C1.143 6.82713 1.03196 6.78794 0.940522 6.70956C0.862145 6.61813 0.822957 6.50709 0.822957 6.37646V5.74945C0.822957 5.61882 0.862145 5.51432 0.940522 5.43594C1.03196 5.3445 1.143 5.29878 1.27362 5.29878H5.29044V1.34075C5.29044 1.21012 5.32962 1.10562 5.408 1.02725C5.49944 0.935806 5.61047 0.890086 5.7411 0.890086H6.4269C6.55753 0.890086 6.66203 0.935806 6.74041 1.02725C6.83185 1.10562 6.87757 1.21012 6.87757 1.34075V5.29878H10.914C11.0446 5.29878 11.1491 5.3445 11.2275 5.43594C11.3189 5.51432 11.3646 5.61882 11.3646 5.74945V6.37646C11.3646 6.50709 11.3189 6.61813 11.2275 6.70956C11.1491 6.78794 11.0446 6.82713 10.914 6.82713H6.87757V10.9027C6.87757 11.0334 6.83185 11.1444 6.74041 11.2358C6.66203 11.3142 6.55753 11.3534 6.4269 11.3534H5.7411Z" fill="black"/>
</svg>
