<svg width="16" height="16" viewBox="0 0 16 16" fill="none" xmlns="http://www.w3.org/2000/svg">
<path d="M0.184054 0.112073C0.258701 0.0510832 0.349387 0.0129711 0.445193 0.00232603C0.540999 -0.00831904 0.637839 0.00895687 0.724054 0.0520735L15.7241 7.55207C15.8073 7.59354 15.8773 7.65739 15.9262 7.73643C15.9751 7.81548 16.001 7.90661 16.001 7.99957C16.001 8.09254 15.9751 8.18366 15.9262 8.26271C15.8773 8.34176 15.8073 8.4056 15.7241 8.44707L0.724054 15.9471C0.637926 15.9902 0.541171 16.0076 0.445423 15.997C0.349675 15.9865 0.25901 15.9485 0.184331 15.8877C0.109651 15.8268 0.0541361 15.7457 0.0244608 15.654C-0.00521444 15.5624 -0.0077866 15.4641 0.0170539 15.3711L1.98305 8.00007L0.0170539 0.629073C-0.00790602 0.53597 -0.0054222 0.437637 0.0242064 0.345912C0.053835 0.254187 0.109345 0.172982 0.184054 0.112073ZM2.88405 8.50007L1.27005 14.5561L14.3821 8.00007L1.26905 1.44407L2.88405 7.50007H9.50005C9.63266 7.50007 9.75984 7.55275 9.85361 7.64652C9.94738 7.74029 10.0001 7.86747 10.0001 8.00007C10.0001 8.13268 9.94738 8.25986 9.85361 8.35363C9.75984 8.4474 9.63266 8.50007 9.50005 8.50007H2.88405Z" fill="white"/>
</svg>
